<svg width="50" height="50" viewBox="0 0 50 50" fill="none" xmlns="http://www.w3.org/2000/svg">
<circle cx="25" cy="25" r="25" fill="#F6F6F6"/>
<path d="M25 38C32.1779 38 38 32.1779 38 25C38 17.8221 32.1779 12 25 12C17.8221 12 12 17.8221 12 25C12 32.1779 17.8221 38 25 38ZM24.0714 17.5714C24.0714 17.0607 24.4893 16.6428 25 16.6428C25.5107 16.6428 25.9286 17.0607 25.9286 17.5714V24.5543L30.2232 27.99C30.6226 28.3104 30.6875 28.8953 30.3671 29.2946C30.2805 29.4035 30.1703 29.4914 30.0449 29.5517C29.9194 29.6119 29.782 29.6431 29.6428 29.6428C29.4386 29.6428 29.2343 29.5778 29.0625 29.4385L24.4197 25.7243C24.2015 25.5479 24.0715 25.2832 24.0715 25V17.5714H24.0714Z" fill="#B0C47F"/>
</svg>
