<svg width="1261" height="811" viewBox="0 0 1261 811" fill="none" xmlns="http://www.w3.org/2000/svg">
<path d="M0.350214 177.738C1.16021 143.818 7.0002 111.238 21.4302 82.9881C38.1102 50.3381 69.5602 23.4781 106.77 17.9681C126.54 15.0381 146.9 18.1481 165.76 24.5581C188.43 32.2681 208.35 45.1181 229.3 56.1181C251.63 67.8481 274.28 79.0181 297.48 89.0281C320.15 98.8081 343.34 107.328 367.73 112.088C381.76 114.828 396.02 116.458 410.18 118.598C410.57 118.658 410.96 118.748 411.34 118.838C411.81 118.948 412.06 119.438 411.87 119.868C411.77 120.088 411.69 120.288 411.62 120.358C411.07 120.968 410.3 121.378 409.56 121.748C405.36 123.818 400.57 124.848 396 125.838C391.15 126.888 386.24 127.638 381.3 128.098C380.53 128.168 379.77 128.228 379 128.288C375.31 128.558 371.61 128.668 367.91 128.608C332.49 128.038 297.25 123.938 262.34 118.268C228.29 112.738 193.62 102.478 159.02 101.528C115.01 100.328 95.5102 138.068 88.9802 174.798C82.5002 211.238 83.7502 248.538 86.7902 285.398C93.6702 368.978 110.88 451.508 135.26 531.908C144.91 563.718 154.53 595.618 167.23 626.448C178.97 654.938 193.58 691.908 219.08 711.608C219.95 712.278 220.78 713.018 221.7 713.618C234.12 721.678 240.82 721.518 252.14 709.358C262.4 698.338 267.33 684.278 271.4 670.218C275.34 656.618 279.01 642.878 281.62 628.988C285.97 605.818 291.87 583.188 302.21 561.778C307.11 551.638 313.69 542.668 322.35 535.208C332.65 526.328 344.41 525.148 357.1 529.278C371.53 533.978 381.9 543.988 391.92 554.408C394.48 557.068 396.98 559.788 399.46 562.528C400.7 563.898 401.94 565.268 403.17 566.638C404.04 567.608 405.36 568.678 406.18 569.908C406.62 570.558 405.91 571.348 405.19 571.008C405.19 571.008 405.19 571.008 405.18 571.008C399.44 568.378 393.95 564.898 387.92 563.278C378.86 560.838 370.86 563.608 363.82 570.018C352 580.778 344.29 594.078 339.04 608.498C331.8 628.388 325.22 648.568 319.56 668.928C314.94 685.538 312.35 702.658 308.36 719.438C303.36 740.428 298.36 761.488 288.28 780.908C276.15 804.288 256.17 819.758 229.25 804.748C217.67 798.288 208.86 788.128 200.63 777.928C102.46 656.298 53.2602 504.248 23.2202 352.678C12.9802 300.998 -1.09979 237.298 0.320215 177.718L0.350214 177.738Z" fill="white"/>
<path d="M733.07 145.626C732.56 169.166 729.34 193.886 722.82 216.596C721.29 221.926 719.45 227.176 717.18 232.256C715.04 237.056 712.49 243.456 708.63 247.186C707.59 242.996 708.34 237.726 708.56 233.436C708.81 228.606 709.24 223.786 709.67 218.966C710.54 209.306 711.48 199.596 711.07 189.886C710.18 168.796 702.58 149.966 688.85 133.496C678.78 121.426 667.24 111.006 653.56 102.776C636.36 92.4363 617.93 85.3863 598.09 81.3863C581.34 78.0063 564.48 75.6463 547.51 77.6163C533.36 79.2563 519.43 82.7263 505.38 85.2363C496.64 86.8063 487.88 88.3963 479.07 89.4563C466.38 90.9863 453.65 92.5463 440.89 93.1863C426.45 93.9163 411.94 94.2563 397.51 93.6163C385.05 93.0663 372.35 92.1163 360.32 89.1663C339.89 84.1563 320.8 75.8963 306.57 59.8163C304.96 57.9963 303.46 56.0863 301.84 54.2863C301.26 53.6463 300.89 52.8663 300.82 52.0063C300.8 51.7063 301.02 51.7263 301.26 51.7163C301.59 51.6963 301.83 51.7163 302.16 51.7963C302.53 51.8963 302.9 52.0063 303.27 52.1163C304 52.3363 304.72 52.5763 305.44 52.8163C306.64 53.2163 307.85 53.6163 309.05 54.0163C309.65 54.2163 310.25 54.4163 310.86 54.6163C311.41 54.7963 311.96 54.9263 312.52 55.0863C314.35 55.6263 316.19 56.1463 318.03 56.6463C320.37 57.2763 322.73 57.8563 325.1 58.4063C327.46 58.9463 329.83 59.4563 332.2 59.9163C334.57 60.3763 336.95 60.8063 339.33 61.1863C341.71 61.5763 344.1 61.9163 346.49 62.2363C348.88 62.5463 351.28 62.8263 353.68 63.0663C356.08 63.3063 358.49 63.5163 360.9 63.6863C363.31 63.8563 365.73 64.0063 368.14 64.1163C370.56 64.2263 372.98 64.3063 375.4 64.3563C377.82 64.4063 380.26 64.4263 382.68 64.4163C385.11 64.4163 387.55 64.3763 389.98 64.3163C392.41 64.2563 394.86 64.1663 397.3 64.0563C398.09 64.0163 398.89 63.9863 399.68 63.9463C411.72 63.3263 423.71 61.1663 435.64 59.1863C450 56.7963 464.37 54.2663 478.54 50.9963C488.79 48.6363 498.75 45.0763 508.78 41.8763C519.07 38.5963 529.33 35.2063 539.53 31.6663C548.56 28.5363 557.35 24.6963 566.5 21.9363C600.48 11.7163 640.34 18.0263 670.97 34.8863C697.25 49.3463 718.29 73.1063 727.31 101.026C731.96 115.426 733.41 130.506 733.08 145.636L733.07 145.626Z" fill="white"/>
<path d="M409.25 487.887C422.87 487.497 435.94 491.227 448.23 501.437C466.32 516.457 477.62 536.087 488.78 555.937C497.65 571.717 507.36 587.077 520.75 599.767C528.11 606.737 535.81 613.467 546.43 615.677C560.14 618.527 571.65 614.387 581.8 605.567C596.41 592.857 606.19 576.897 614.62 560.037C619.47 550.327 624.05 540.497 628.65 530.677C629.79 528.247 630.51 525.627 631.48 523.107C631.48 523.087 631.49 523.067 631.5 523.057C631.78 522.377 632.88 522.657 632.76 523.377C632.76 523.377 632.76 523.387 632.76 523.397C631.29 531.487 630.35 539.717 628.13 547.617C622.65 567.087 616.7 586.437 610.7 605.757C600.72 637.877 587.71 668.787 569.25 697.257C563 706.897 555.7 715.857 545.29 722.287C529.99 731.727 516.4 727.427 506.39 715.157C497.23 703.927 491.61 690.817 486.67 677.417C475.59 647.347 465.11 617.047 453.02 587.357C444.69 566.887 433.33 547.747 417.58 531.437C405.39 518.827 390.52 510.887 373.15 507.257C368.95 506.377 364.69 505.697 360.47 504.897C359.93 504.797 359.4 504.637 358.87 504.477C358.41 504.337 358.26 503.787 358.58 503.437C359.07 502.927 359.55 502.417 360.15 502.147C366.11 499.527 372.02 496.747 378.15 494.537C388.77 490.707 399.16 488.167 409.24 487.877L409.25 487.887Z" fill="white"/>
<path d="M195.472 291.191C192.702 290.285 189.401 286.861 187.864 283.562C186.705 279.936 187.913 277.896 190.709 278.449C261.911 298.753 316.131 293.752 357.379 276.842C362.817 270.142 368.582 263.819 373.995 257.471C414.63 209.332 450.076 159.407 468.448 115.355C469.707 112.609 470.89 110.921 471.998 110.291C481.289 104.22 487.993 119.58 480.194 149.501C475.666 168.315 466.077 193.502 449.79 218.213C431.538 245.618 404.825 272.422 366.448 288.827C314.811 347.169 257.833 400.877 217.12 435.19C209.188 442.067 205.764 445.367 206.444 445.77C213.952 454.809 271.775 453.962 337.405 452.962C434.239 451.702 546.334 450.11 558.762 494.582C559.594 497.831 557.706 499.468 554.96 498.21C552.215 496.951 548.915 493.527 548.108 489.926C540.797 463.182 435.099 464.52 344.284 465.855C275.833 466.654 215.164 467.653 201.107 451.06C194.254 442.776 195.259 433.634 207.32 423.507C243.149 393.099 291.34 348.333 337.413 298.456C299.916 307.482 253.149 307.344 195.472 291.191ZM395.829 254.417C414.185 240.485 428.485 223.784 439.587 207.21C451.519 188.923 459.901 170.737 464.933 154.794C447.766 186.884 423.372 220.94 395.829 254.417ZM479.457 124.997C481.395 122.654 482.553 121.319 481.068 122.277C480.69 122.604 480.287 123.284 479.457 124.997Z" fill="white"/>
<path d="M640.47 374.566C641.861 378.044 640.818 380.13 638.035 379.435C635.253 378.739 631.775 375.609 630.384 372.479C623.428 365.871 606.385 373.87 600.125 379.087C587.256 389.521 579.952 402.042 576.126 418.041C588.3 414.563 619.95 377.696 619.95 377.696C621.341 376.305 624.471 377.348 627.601 380.478C630.036 383.261 631.427 386.391 630.384 388.13C629.688 389.869 625.514 398.912 627.601 408.65C628.992 416.998 674.207 379.087 674.902 378.739C676.294 377.348 679.076 375.609 681.858 378.391C684.641 381.522 684.293 384.304 682.902 385.695C659.947 406.216 646.383 418.389 636.992 423.258C620.993 431.605 608.82 426.736 609.168 409.694C596.647 421.519 583.778 432.301 576.126 428.823C573.344 427.779 571.257 425.693 569.17 423.606C565.692 419.084 564.301 414.215 564.997 408.998C565.345 404.824 566.736 400.303 568.823 395.782C573.344 386.043 581.344 375.261 590.386 367.957C606.037 355.089 634.557 354.393 640.47 374.566ZM771.502 381.869C772.197 380.826 773.589 378.739 776.371 380.826C779.153 382.565 780.892 385.347 780.197 386.391C771.502 401.346 701.246 458.038 681.073 468.124C668.552 474.733 647.684 480.993 638.989 467.081C618.469 438.213 752.373 247.27 755.503 246.574C766.633 230.575 781.24 219.793 792.022 216.663C795.848 215.62 799.674 215.272 803.152 216.663C809.065 218.402 813.238 222.228 814.977 227.793C816.368 233.01 814.977 241.357 808.717 253.183C786.457 297.701 693.594 368.305 693.246 368.653C692.898 368.653 692.551 369.001 691.855 368.653C666.465 412.824 648.38 452.821 653.249 463.255C656.379 467.777 671.335 462.212 674.813 460.473C694.637 450.039 762.807 396.477 771.502 381.869ZM765.241 253.878C765.241 253.878 737.069 294.919 708.897 340.829C737.765 316.83 784.023 275.79 798.978 246.226C804.195 235.792 805.934 228.489 804.891 223.967C803.847 223.967 802.108 224.315 800.369 224.663C790.283 227.793 776.371 238.227 765.241 253.878ZM792.829 353.35C794.568 351.958 798.046 353.35 800.829 356.48C803.611 359.61 804.654 363.088 802.915 364.479C795.264 371.088 782.743 386.043 775.091 400.651C770.222 410.389 770.57 415.954 774.048 417.693C788.308 419.78 826.914 382.217 826.914 381.869C828.305 380.478 830.74 377.696 833.522 380.826C836.652 383.956 835.261 385 833.87 386.391C833.522 386.391 775.787 448.995 760.831 422.91C755.962 414.215 758.397 402.39 764.309 390.565C771.961 375.609 784.83 359.958 792.829 353.35ZM814.393 343.263C813.002 345.002 809.524 343.611 806.741 340.829C803.959 337.699 802.568 334.22 803.959 332.481L823.436 310.222C824.827 308.483 827.957 309.874 831.087 312.657C833.87 315.787 834.913 319.265 833.87 321.004L814.393 343.263ZM925.356 224.663C926.399 223.271 929.877 223.967 932.659 227.097C935.442 229.88 936.833 233.706 935.79 235.097C935.79 235.445 910.4 270.573 883.271 311.266H971.961C974.396 311.266 978.222 314.048 979.961 317.178C982.047 320.656 981.7 323.439 979.265 323.439H875.272C867.968 334.568 860.664 346.046 853.708 357.175V357.523C853.708 358.914 853.013 359.61 852.317 359.61C831.101 394.043 819.624 413.867 823.449 420.823C829.71 432.649 900.314 376.305 900.314 375.957C901.705 374.913 903.792 374.218 906.574 377.348C909.357 380.478 907.27 382.217 905.879 383.261C905.531 383.608 826.58 461.516 809.537 430.214C804.32 420.476 820.319 387.086 842.579 350.219C842.231 350.219 844.665 346.394 844.665 346.394C845.361 319.961 756.324 323.439 756.324 323.439C753.889 323.439 750.063 320.656 748.324 317.178C746.237 314.048 746.585 311.266 749.02 311.266H866.577C895.792 265.703 925.008 225.01 925.356 224.663ZM848.491 340.133C851.969 334.568 855.447 329.003 858.925 323.439L815.45 321.7C825.884 325.873 842.926 332.829 848.491 340.133ZM976.502 251.096C977.545 249.357 981.023 250.4 983.805 253.183C986.936 255.965 988.327 259.791 987.283 261.53L911.115 385C930.244 370.392 949.721 361.697 951.808 384.652C952.155 387.782 952.503 410.389 952.503 410.389C953.894 412.128 965.024 409.346 995.631 380.826C997.022 379.435 999.109 376.305 1001.89 379.087C1004.67 382.217 1004.67 384.652 1003.28 386.043C968.85 418.041 952.155 426.04 944.156 417.693C935.809 408.65 938.591 392.304 937.548 380.13C936.504 371.435 881.204 433.692 880.856 434.04C879.812 435.431 876.682 434.388 873.9 431.605C870.77 428.823 869.378 424.997 870.422 423.258L976.502 251.096ZM1053.83 374.566C1055.22 378.044 1054.17 380.13 1051.39 379.435C1048.61 378.739 1045.13 375.609 1043.74 372.479C1036.78 365.871 1019.74 373.87 1013.48 379.087C1000.61 389.521 993.307 402.042 989.482 418.041C1001.65 414.563 1033.3 377.696 1033.3 377.696C1034.7 376.305 1037.83 377.348 1040.96 380.478C1043.39 383.261 1044.78 386.391 1043.74 388.13C1043.04 389.869 1038.87 398.912 1040.96 408.65C1042.35 416.998 1087.56 379.087 1088.26 378.739C1089.65 377.348 1092.43 375.609 1095.21 378.391C1098 381.522 1097.65 384.304 1096.26 385.695C1073.3 406.216 1059.74 418.389 1050.35 423.258C1034.35 431.605 1022.18 426.736 1022.52 409.694C1010 421.519 997.133 432.301 989.482 428.823C986.699 427.779 984.612 425.693 982.526 423.606C979.048 419.084 977.656 414.215 978.352 408.998C978.7 404.824 980.091 400.303 982.178 395.782C986.699 386.043 994.699 375.261 1003.74 367.957C1019.39 355.089 1047.91 354.393 1053.83 374.566Z" fill="white"/>
<path d="M754.432 502.568C749.182 502.568 744.906 501.324 741.605 498.835C738.358 496.291 736.734 492.908 736.734 488.686C736.734 487.875 736.761 487.279 736.815 486.901H744.122C743.959 489.552 744.771 491.825 746.557 493.72C748.343 495.614 751.076 496.561 754.756 496.561C758.436 496.561 761.359 495.722 763.524 494.044C765.688 492.367 766.771 490.012 766.771 486.982C766.771 485.142 766.23 483.599 765.147 482.354C764.119 481.056 762.82 480 761.251 479.188C759.735 478.322 757.652 477.375 755 476.347C751.753 475.048 749.128 473.831 747.125 472.694C745.177 471.557 743.526 470.015 742.173 468.067C740.82 466.118 740.198 463.656 740.306 460.679C740.306 457.54 741.145 454.753 742.823 452.318C744.501 449.882 746.801 448.015 749.723 446.716C752.7 445.363 756.082 444.688 759.871 444.688C763.551 444.688 766.717 445.309 769.369 446.554C772.075 447.799 774.104 449.531 775.457 451.75C776.81 453.968 777.405 456.458 777.243 459.218H769.531C769.639 457.811 769.315 456.458 768.557 455.159C767.853 453.86 766.717 452.805 765.147 451.993C763.632 451.181 761.738 450.775 759.465 450.775C755.947 450.775 753.106 451.614 750.941 453.292C748.83 454.916 747.775 457.162 747.775 460.03C747.775 461.708 748.262 463.169 749.236 464.414C750.264 465.604 751.536 466.633 753.051 467.498C754.567 468.31 756.65 469.284 759.302 470.421C762.495 471.774 765.093 473.046 767.096 474.236C769.152 475.373 770.884 476.916 772.291 478.865C773.698 480.813 774.402 483.248 774.402 486.171C774.402 489.31 773.59 492.123 771.966 494.613C770.343 497.048 768.016 498.996 764.985 500.458C761.954 501.865 758.436 502.568 754.432 502.568ZM849.658 445.823L839.754 502H832.367L839.754 460.111L813.695 502H808.5L797.135 460.273L789.747 502H782.36L792.345 445.823H800.301L812.884 492.258L841.784 445.823H849.658ZM869.736 445.418L859.67 502H852.283L862.349 445.418H869.736ZM880.703 496.317H900.511L899.456 502H872.26L882.327 445.418H889.714L880.703 496.317ZM923.699 451.181L920.29 470.583H940.828L939.854 476.266H919.316L915.744 496.155H938.799L937.744 502H907.301L917.367 445.336H947.729L946.673 451.181H923.699ZM1000.78 445.418C1008.85 445.418 1015.1 447.366 1019.54 451.262C1024.03 455.159 1026.27 460.571 1026.27 467.498C1026.27 469.663 1026.08 471.774 1025.71 473.831C1024.68 479.621 1022.57 484.655 1019.37 488.93C1016.23 493.151 1012.2 496.399 1007.28 498.672C1002.41 500.891 996.887 502 990.717 502H973.101L983.168 445.418H1000.78ZM991.773 496.317C999.025 496.317 1004.92 494.342 1009.47 490.391C1014.02 486.386 1016.91 480.866 1018.16 473.831C1018.48 471.882 1018.64 470.042 1018.64 468.31C1018.64 462.952 1017.05 458.813 1013.85 455.891C1010.66 452.914 1005.95 451.425 999.728 451.425H989.5L981.544 496.317H991.773ZM1046.9 451.181L1043.49 470.583H1064.03L1063.05 476.266H1042.51L1038.94 496.155H1062L1060.94 502H1030.5L1040.56 445.336H1070.93L1069.87 451.181H1046.9ZM1116.61 502H1109.22L1087.54 456.945L1079.51 502H1072.12L1082.18 445.336H1089.57L1111.33 490.31L1119.28 445.336H1126.67L1116.61 502ZM1174.01 445.418L1172.95 451.181H1157.53L1148.6 502H1141.21L1150.14 451.181H1134.72L1135.77 445.418H1174.01ZM1208.84 489.417H1184.08L1177.34 502H1169.55L1199.91 445.742H1208.43L1218.9 502H1211.11L1208.84 489.417ZM1207.78 483.654L1202.59 454.753L1187.16 483.654H1207.78ZM1236.26 496.317H1256.07L1255.01 502H1227.82L1237.89 445.418H1245.27L1236.26 496.317Z" fill="white"/>
</svg>
