<svg width="80" height="80" viewBox="0 0 80 80" fill="none" xmlns="http://www.w3.org/2000/svg">
<circle cx="40" cy="40" r="40" fill="#EDF8FF"/>
<g clip-path="url(#clip0_246_1918)">
<path d="M57.6562 28.072C57.6425 24.0892 54.3955 20.8206 50.4129 20.7816C49.2038 20.7697 48.0618 21.0516 47.0532 21.5596C46.0446 21.0516 44.9025 20.7697 43.6935 20.7816C39.7107 20.8206 36.4639 24.0893 36.4502 28.0721C36.4452 29.5308 36.8671 30.8906 37.598 32.0336C38.4496 33.3654 38.8613 34.9248 38.8568 36.5055C38.8568 36.5148 38.8568 36.5242 38.8568 36.5335C38.8568 39.1741 39.9029 41.5702 41.6032 43.3304C42.4528 44.2099 43.9353 43.5742 43.8985 42.3519C43.8698 41.4005 43.9807 40.4289 44.2459 39.4631C44.5296 38.43 44.9689 37.4816 45.5313 36.6357C46.2543 35.5487 47.8521 35.5487 48.5751 36.6357C49.1375 37.4816 49.5768 38.43 49.8605 39.4631C50.1257 40.4289 50.2366 41.4005 50.2079 42.3519C50.1711 43.5742 51.6536 44.2099 52.5032 43.3304C54.2036 41.5702 55.2496 39.1741 55.2496 36.5335C55.2496 36.5242 55.2496 36.5148 55.2496 36.5055C55.2451 34.9248 55.6568 33.3655 56.5083 32.0337C57.2393 30.8906 57.6612 29.5307 57.6562 28.072Z" stroke="#A5BC6C" stroke-width="2" stroke-miterlimit="10" stroke-linejoin="round"/>
<path d="M31.2559 56.5174C33.6593 56.1139 36.1298 56.2831 38.4645 57.0185L38.9577 57.1738C42.3977 58.2574 46.1346 57.8476 49.2581 56.0443L56.5508 51.8339C57.6085 51.2232 57.9709 49.8707 57.3602 48.8131C56.7496 47.7554 55.3972 47.3931 54.3395 48.0036L47.6611 51.8595C46.3847 52.5964 44.8872 52.8533 43.4382 52.5839L39.9072 51.9276" stroke="#A5BC6C" stroke-width="2" stroke-miterlimit="10" stroke-linejoin="round"/>
<path d="M39.512 51.8562L43.4199 52.5826C44.6702 52.815 45.8726 51.9914 46.1076 50.7415C46.3292 49.5626 45.6097 48.4106 44.4531 48.0923L39.6562 46.7724C37.2385 44.1601 33.2546 43.4682 30.0422 45.3229C28.9118 45.9755 28.0067 46.8684 27.3543 47.8998C27.1807 48.1743 26.9791 48.4288 26.752 48.6572" stroke="#A5BC6C" stroke-width="2" stroke-miterlimit="10" stroke-linejoin="round"/>
<path d="M27.6496 59.2183L22.3438 50.0282L26.1814 47.8125L31.4873 57.0026L27.6496 59.2183Z" stroke="#A5BC6C" stroke-width="2" stroke-miterlimit="10" stroke-linejoin="round"/>
<path d="M44.2529 24.0355C44.909 23.0541 45.7962 22.2403 46.8366 21.6719" stroke="#A5BC6C" stroke-width="2" stroke-miterlimit="10" stroke-linejoin="round"/>
</g>
<defs>
<clipPath id="clip0_246_1918">
<rect width="40" height="40" fill="white" transform="translate(20 20)"/>
</clipPath>
</defs>
</svg>
