<svg width="96" height="96" viewBox="0 0 96 96" fill="none" xmlns="http://www.w3.org/2000/svg">
<path opacity="0.6" d="M63.4086 46.2938L60.52 47.86L63.3991 49.4446L92.9929 65.7321L86.6695 76.6986L56.4815 59.3837L53.7982 57.8446L53.8216 60.9547L54.0702 94H41.9266L42.1751 60.9547L42.1985 57.8446L39.5152 59.3837L9.32721 76.6986L3.00684 65.7375L32.8544 49.4476L35.7634 47.86L32.8446 46.2908L3 30.2457L9.33919 19.052L39.5152 36.3601L42.1987 37.8992L42.1751 34.789L41.9266 2H54.0701L53.8216 34.789L53.798 37.8992L56.4815 36.3601L86.6576 19.052L93 30.2513L63.4086 46.2938Z" stroke="white" stroke-width="3"/>
</svg>
