<svg width="80" height="80" viewBox="0 0 80 80" fill="none" xmlns="http://www.w3.org/2000/svg">
<circle cx="40" cy="40" r="40" fill="#EDF8FF"/>
<g clip-path="url(#clip0_246_1955)">
<path d="M50.2652 51.4897C49.7062 51.9815 49.1443 52.4523 48.587 52.9006M48.587 52.9006C44.1462 56.4737 40 58.6234 40 58.6234C40 58.6234 20.7812 48.6593 20.7812 35.9777C20.7812 30.122 25.5413 25.375 31.413 25.375C34.941 25.375 38.066 27.0902 40 29.7287C41.9338 27.0902 45.0589 25.375 48.587 25.375C54.4587 25.375 59.2188 30.122 59.2188 35.9777C59.2188 39.7315 57.5348 43.2471 55.164 46.3367C53.9673 47.7773 50.9767 51.1068 48.587 52.9006Z" stroke="#A5BC6C" stroke-width="2" stroke-miterlimit="10" stroke-linejoin="round"/>
<path d="M49.913 37.5913C49.913 36.089 49.3814 34.6665 48.4161 33.5858C47.4014 32.4497 46.005 31.8242 44.4838 31.8242C43.8332 31.8242 42.5661 32.5162 41.5444 33.1483C40.5974 33.7342 39.4024 33.7342 38.4554 33.1483C37.4337 32.5162 36.1666 31.8242 35.516 31.8242C33.9948 31.8242 32.5984 32.4497 31.5837 33.5858C30.6184 34.6665 30.0869 36.089 30.0869 37.5913C30.0869 39.3086 31.1949 40.6861 32.542 42.2955C33.9242 43.9468 34.6819 44.5194 34.6819 46.6729V47.5177C34.6819 49.8595 36.3862 51.8032 38.6222 52.176V45.3592C38.6222 44.6085 39.2108 43.9739 39.9612 43.9533C40.7398 43.9319 41.3777 44.5568 41.3777 45.3305V52.176C43.6136 51.8032 45.318 49.8595 45.318 47.5177V46.6729C45.318 44.5194 46.0755 43.9468 47.4577 42.2955C48.8048 40.6861 49.913 39.3086 49.913 37.5913Z" stroke="#A5BC6C" stroke-width="2" stroke-miterlimit="10" stroke-linejoin="round"/>
<path d="M38.2881 33.0469L38.6055 33.412C40.0083 35.0264 42.3039 35.529 44.2528 34.6485" stroke="#A5BC6C" stroke-width="2" stroke-miterlimit="10" stroke-linejoin="round"/>
</g>
<defs>
<clipPath id="clip0_246_1955">
<rect width="40" height="40" fill="white" transform="translate(20 20)"/>
</clipPath>
</defs>
</svg>
