<svg width="20" height="11" viewBox="0 0 20 11" fill="none" xmlns="http://www.w3.org/2000/svg">
<path d="M13.7446 0.297501C13.3566 -0.0948138 12.7244 -0.0997627 12.3304 0.286474L4.9387 7.59194L1.72547 4.26545C1.34223 3.86602 0.707761 3.8529 0.308371 4.23615C-0.0910638 4.61939 -0.104174 5.25386 0.279067 5.65325L0.284233 5.65859L4.20208 9.71874C4.29491 9.81345 4.4056 9.88879 4.52775 9.9404C4.64991 9.99201 4.78109 10.0189 4.91369 10.0194H4.92472C5.18751 10.0186 5.43946 9.91457 5.6263 9.72977L13.7355 1.71169C14.1273 1.32315 14.1313 0.691031 13.7446 0.297501ZM10.2156 9.71874C10.3082 9.8132 10.4186 9.8884 10.5404 9.94001C10.6622 9.99161 10.793 10.0186 10.9252 10.0194H10.9362C11.199 10.0186 11.451 9.91457 11.6378 9.72977L19.7471 1.71169C20.1147 1.2978 20.0771 0.664333 19.6633 0.296763C19.2881 -0.0364679 18.7243 -0.0408525 18.344 0.286474L10.9553 7.59194L10.6917 7.31832C10.3085 6.91888 9.674 6.90573 9.27457 7.28897C8.87513 7.67217 8.86198 8.30663 9.24522 8.70607L9.25043 8.71145L10.2156 9.71874Z" fill="#23BE00"/>
</svg>
