<svg width="80" height="80" viewBox="0 0 80 80" fill="none" xmlns="http://www.w3.org/2000/svg">
<circle cx="40" cy="40" r="40" fill="#EDF8FF"/>
<path d="M24.375 45.9375V27.8125L40 21.5625L55.625 27.8125V45.9375" stroke="#B0C47F" stroke-width="2" stroke-miterlimit="10" stroke-linejoin="round"/>
<path d="M24.375 45.9375C24.375 53.75 40 58.4375 40 58.4375L24.375 45.9375Z" stroke="#B0C47F" stroke-width="2" stroke-miterlimit="10" stroke-linejoin="round"/>
<path d="M55.625 45.9375C55.625 53.75 40 58.4375 40 58.4375L55.625 45.9375Z" stroke="#B0C47F" stroke-width="2" stroke-miterlimit="10" stroke-linejoin="round"/>
<path d="M45.2466 30.8148C43.2404 30.2124 41.3761 30.6898 39.9746 31.7491C38.5729 30.6898 36.7084 30.2123 34.7021 30.815C32.8404 31.3742 31.3299 32.9095 30.8205 34.7855C30.3437 36.5416 30.6695 38.202 31.5028 39.5122C32.4698 41.0325 32.9434 42.8115 32.9434 44.6132C32.9434 47.202 35.042 49.3007 37.6309 49.3007V44.6132C37.6309 43.3188 38.6802 42.2695 39.9746 42.2695C41.269 42.2695 42.3184 43.3188 42.3184 44.6132V49.3007C44.9071 49.3007 47.0059 47.202 47.0059 44.6132C47.0059 42.8115 47.4794 41.0325 48.4463 39.5123C49.2796 38.202 49.6055 36.5416 49.1286 34.7855C48.6192 32.9095 47.1085 31.374 45.2466 30.8148Z" stroke="#B0C47F" stroke-width="2" stroke-miterlimit="10" stroke-linejoin="round"/>
</svg>
