<svg width="50" height="50" viewBox="0 0 50 50" fill="none" xmlns="http://www.w3.org/2000/svg">
<circle cx="25" cy="25" r="25" fill="#F6F6F6"/>
<path d="M35.4941 28.9096C33.9635 28.9096 32.4607 28.6702 31.0365 28.1996C30.3386 27.9616 29.4808 28.18 29.0548 28.6174L26.2438 30.7394C22.9838 28.9992 20.9758 26.9918 19.2593 23.7563L21.3189 21.0186C21.854 20.4842 22.046 19.7036 21.816 18.9712C21.3433 17.5395 21.1032 16.0374 21.1032 14.5061C21.1033 13.3999 20.2034 12.5 19.0972 12.5H14.5061C13.3999 12.5 12.5 13.3999 12.5 14.5061C12.5 27.1851 22.815 37.5 35.4941 37.5C36.6003 37.5 37.5002 36.6001 37.5002 35.4939V30.9156C37.5001 29.8096 36.6002 28.9096 35.4941 28.9096Z" fill="#3889FA"/>
</svg>
