<svg width="20" height="20" viewBox="0 0 20 20" fill="none" xmlns="http://www.w3.org/2000/svg">
<path d="M10.6363 9.67941V4.80201C10.6363 4.63334 10.5692 4.47157 10.45 4.3523C10.3307 4.23302 10.1689 4.16602 10.0003 4.16602C9.83158 4.16602 9.66981 4.23302 9.55054 4.3523C9.43126 4.47157 9.36426 4.63334 9.36426 4.80201V9.99175C9.36426 10.1882 9.45542 10.3748 9.61088 10.4949L12.9237 13.0566C12.9896 13.108 13.0651 13.1459 13.1457 13.168C13.2264 13.1901 13.3106 13.196 13.3935 13.1854C13.4764 13.1747 13.5565 13.1478 13.6289 13.106C13.7013 13.0642 13.7648 13.0085 13.8155 12.9421C13.8667 12.876 13.9043 12.8005 13.9263 12.7199C13.9483 12.6393 13.9541 12.5551 13.9436 12.4722C13.933 12.3894 13.9062 12.3094 13.8647 12.2368C13.8232 12.1643 13.7679 12.1007 13.7018 12.0496L10.6363 9.67941Z" fill="#849954"/>
<path d="M15.6604 0H4.34174C3.19059 0.00112253 2.0869 0.458915 1.27291 1.27291C0.458915 2.0869 0.00112253 3.19059 0 4.34174V15.6583C0.00112253 16.8094 0.458915 17.9131 1.27291 18.7271C2.0869 19.5411 3.19059 19.9989 4.34174 20H15.6583C16.8094 19.9989 17.9131 19.5411 18.7271 18.7271C19.5411 17.9131 19.9989 16.8094 20 15.6583V4.33821C19.9983 3.18792 19.5405 2.08524 18.727 1.27199C17.9135 0.458744 16.8107 0.00130847 15.6604 0ZM18.728 15.6576C18.7271 16.4713 18.4033 17.2515 17.8278 17.8269C17.2523 18.4023 16.4721 18.7258 15.6583 18.7266H4.34174C3.52795 18.7258 2.74769 18.4023 2.17218 17.8269C1.59667 17.2515 1.27293 16.4713 1.27199 15.6576V4.34104C1.27293 3.52724 1.59667 2.74705 2.17218 2.17168C2.74769 1.59631 3.52795 1.27274 4.34174 1.27199H15.6604C16.4734 1.27274 17.253 1.59601 17.8279 2.17085C18.4029 2.7457 18.7264 3.52516 18.7273 4.33821L18.728 15.6576Z" fill="#849954"/>
</svg>
