<svg width="50" height="50" viewBox="0 0 50 50" fill="none" xmlns="http://www.w3.org/2000/svg">
<circle cx="25" cy="25" r="25" fill="#F6F6F6"/>
<path d="M24.9637 12.5C19.9209 12.5 15.833 16.5905 15.833 21.6358C15.833 27.1901 19.6387 28.499 21.6354 31.9044C23.4943 35.0734 23.4958 37.5 24.9637 37.5C26.486 37.5 26.3899 35.2395 28.2921 31.9044C30.1937 28.5689 34.0945 27.1901 34.0945 21.6358C34.0945 16.5905 30.0065 12.5 24.9637 12.5ZM24.9637 25.1368C23.0772 25.1368 21.5479 23.6066 21.5479 21.7193C21.5479 20.7751 21.9302 19.921 22.5485 19.3023C23.1667 18.6841 24.0205 18.3013 24.9637 18.3013C26.8502 18.3013 28.3791 19.8315 28.3791 21.7193C28.3791 23.6066 26.8502 25.1368 24.9637 25.1368Z" fill="#4CAF50"/>
<path d="M24.9646 12.5C24.7104 12.5 24.4589 12.5109 24.21 12.5312C28.8996 12.9152 32.5861 16.8448 32.5861 21.6358C32.5861 27.1901 28.6852 28.5689 26.7837 31.9044C25.2771 34.5459 25.024 36.513 24.2275 37.217C24.4317 37.401 24.6683 37.5 24.9646 37.5C26.4869 37.5 26.3908 35.2395 28.2929 31.9044C30.1945 28.5689 34.0953 27.1901 34.0953 21.6358C34.0953 16.5905 30.0074 12.5 24.9646 12.5Z" fill="#43A047"/>
<path d="M22.5483 19.3035L16.5452 25.31C16.1061 24.3093 15.833 23.1256 15.833 21.6369C15.833 19.1351 16.8382 16.8685 18.466 15.2188L22.5483 19.3035Z" fill="#F44336"/>
<path d="M27.4033 24.1136C28.0073 23.4972 28.3797 22.6528 28.3797 21.7214C28.3797 19.8335 26.8504 18.3034 24.9642 18.3034C24.0208 18.3034 23.167 18.6861 22.5488 19.3046L28.5961 13.2539C30.7577 14.1921 32.4847 15.9428 33.3935 18.1209L27.4035 24.1143L27.4033 24.1136Z" fill="#42A5F5"/>
<path d="M28.5967 13.2539L28.0869 13.764C30.115 14.9606 31.6404 16.9189 32.2698 19.2458L33.3941 18.1209C32.4852 15.9428 30.7583 14.1921 28.5967 13.2539Z" fill="#2196F3"/>
<path d="M27.4037 24.1144L20.8107 30.7111C19.3772 28.9043 17.538 27.576 16.5459 25.3112L22.549 19.3047C21.9309 19.9232 21.5484 20.7775 21.5484 21.7215C21.5484 23.6087 23.0777 25.1389 24.9644 25.1389C25.9198 25.1389 26.7836 24.7463 27.4035 24.1137L27.4037 24.1144Z" fill="#FFC107"/>
<path d="M28.5955 13.2518L22.5482 19.3025L18.4658 15.2178C20.1215 13.5397 22.4213 12.5 24.9636 12.5C26.2543 12.5 27.4827 12.7682 28.5955 13.2518Z" fill="#1E88E5"/>
<path d="M24.9646 12.5C24.7105 12.5 24.459 12.5108 24.2101 12.5312L24.21 12.5313C25.5787 12.6427 26.9043 13.0635 28.0868 13.7618L28.5966 13.2518C27.4837 12.7682 26.2553 12.5 24.9646 12.5Z" fill="#1976D2"/>
</svg>
