<svg width="80" height="80" viewBox="0 0 80 80" fill="none" xmlns="http://www.w3.org/2000/svg">
<circle cx="40" cy="40" r="40" fill="#EDF8FF"/>
<path d="M40.0809 23C35.5507 23 31.2062 24.7996 28.0029 28.0029C24.7996 31.2062 23 35.5507 23 40.0809V52.2424C23.0434 53.5189 23.581 54.7286 24.4994 55.6162C25.4177 56.5038 26.6449 57 27.9221 57C29.1993 57 30.4266 56.5038 31.3449 55.6162C32.2633 54.7286 32.8009 53.5189 32.8443 52.2424V40.0809C32.8443 38.1616 33.6067 36.3209 34.9638 34.9638C36.3209 33.6067 38.1616 32.8443 40.0809 32.8443C42.0001 32.8443 43.8408 33.6067 45.1979 34.9638C46.555 36.3209 47.3175 38.1616 47.3175 40.0809V52.2424C47.3609 53.5189 47.8985 54.7286 48.8168 55.6162C49.7352 56.5038 50.9624 57 52.2396 57C53.5168 57 54.744 56.5038 55.6624 55.6162C56.5807 54.7286 57.1183 53.5189 57.1617 52.2424V40.0809C57.1617 35.5507 55.3622 31.2062 52.1589 28.0029C48.9556 24.7996 44.611 23 40.0809 23ZM40.0809 31.7055C37.8605 31.7086 35.732 32.5919 34.162 34.162C32.5919 35.732 31.7086 37.8605 31.7055 40.0809V43.2921C31.4304 43.3854 31.142 43.4334 30.8515 43.4344C30.1271 43.4329 29.4329 43.1445 28.9207 42.6323C28.4085 42.1201 28.1201 41.4258 28.1186 40.7015V40.0809C28.1186 36.9098 29.3783 33.8686 31.6206 31.6263C33.8629 29.384 36.9041 28.1243 40.0752 28.1243C43.2463 28.1243 46.2875 29.384 48.5298 31.6263C50.7721 33.8686 52.0318 36.9098 52.0318 40.0809V40.7015C52.0288 41.4264 51.7391 42.1206 51.226 42.6326C50.7129 43.1447 50.018 43.4329 49.2932 43.4344C49.0032 43.4326 48.7152 43.3865 48.4391 43.2978V40.0809C48.4361 37.8635 47.5551 35.7375 45.9888 34.168C44.4224 32.5984 42.2983 31.7131 40.0809 31.7055ZM56.023 52.2424C55.9851 53.2205 55.5699 54.1458 54.8645 54.8243C54.1591 55.5029 53.2184 55.8819 52.2396 55.8819C51.2608 55.8819 50.3201 55.5029 49.6147 54.8243C48.9093 54.1458 48.4941 53.2205 48.4562 52.2424V44.4763C49.0224 44.6035 49.6099 44.6018 50.1753 44.4712C50.7407 44.3407 51.2695 44.0848 51.7227 43.7224C52.1759 43.36 52.5418 42.9003 52.7934 42.3774C53.045 41.8545 53.1758 41.2817 53.1762 40.7015V40.0809C53.1762 36.6078 51.7965 33.2769 49.3407 30.8211C46.8848 28.3652 43.554 26.9855 40.0809 26.9855C36.6078 26.9855 33.2769 28.3652 30.8211 30.8211C28.3652 33.2769 26.9855 36.6078 26.9855 40.0809V40.7015C26.9847 41.2827 27.1149 41.8566 27.3665 42.3806C27.6181 42.9045 27.9845 43.365 28.4387 43.7278C28.8928 44.0905 29.4229 44.3462 29.9895 44.4758C30.5561 44.6054 31.1446 44.6056 31.7112 44.4763V52.2424C31.7112 53.2466 31.3123 54.2097 30.6023 54.9197C29.8922 55.6298 28.9292 56.0287 27.925 56.0287C26.9208 56.0287 25.9578 55.6298 25.2477 54.9197C24.5376 54.2097 24.1387 53.2466 24.1387 52.2424V40.0809C24.1387 35.8527 25.8183 31.7978 28.8081 28.8081C31.7978 25.8183 35.8527 24.1387 40.0809 24.1387C44.309 24.1387 48.3639 25.8183 51.3537 28.8081C54.3434 31.7978 56.023 35.8527 56.023 40.0809V52.2424ZM26.5244 47.5509H29.5192C29.6702 47.5509 29.815 47.6109 29.9218 47.7177C30.0286 47.8244 30.0886 47.9693 30.0886 48.1203C30.0886 48.2713 30.0286 48.4161 29.9218 48.5229C29.815 48.6296 29.6702 48.6896 29.5192 48.6896H26.5244C26.3733 48.6896 26.2285 48.6296 26.1218 48.5229C26.015 48.4161 25.955 48.2713 25.955 48.1203C25.955 47.9693 26.015 47.8244 26.1218 47.7177C26.2285 47.6109 26.3733 47.5509 26.5244 47.5509ZM30.0886 51.434C30.0886 51.585 30.0286 51.7298 29.9218 51.8366C29.815 51.9433 29.6702 52.0033 29.5192 52.0033H26.5244C26.3733 52.0033 26.2285 51.9433 26.1218 51.8366C26.015 51.7298 25.955 51.585 25.955 51.434C25.955 51.2829 26.015 51.1381 26.1218 51.0314C26.2285 50.9246 26.3733 50.8646 26.5244 50.8646H29.5192C29.6702 50.8646 29.815 50.9246 29.9218 51.0314C30.0286 51.1381 30.0886 51.2829 30.0886 51.434ZM50.9329 48.2683H53.9278C54.0788 48.2683 54.2236 48.3283 54.3304 48.4351C54.4371 48.5418 54.4971 48.6867 54.4971 48.8377C54.4971 48.9887 54.4371 49.1335 54.3304 49.2403C54.2236 49.347 54.0788 49.407 53.9278 49.407H50.9329C50.7819 49.407 50.6371 49.347 50.5303 49.2403C50.4235 49.1335 50.3636 48.9887 50.3636 48.8377C50.3636 48.6867 50.4235 48.5418 50.5303 48.4351C50.6371 48.3283 50.7819 48.2683 50.9329 48.2683ZM54.4971 52.1513C54.4971 52.3024 54.4371 52.4472 54.3304 52.5539C54.2236 52.6607 54.0788 52.7207 53.9278 52.7207H50.9329C50.7819 52.7207 50.6371 52.6607 50.5303 52.5539C50.4235 52.4472 50.3636 52.3024 50.3636 52.1513C50.3636 52.0003 50.4235 51.8555 50.5303 51.7487C50.6371 51.642 50.7819 51.582 50.9329 51.582H53.9278C54.0788 51.582 54.2236 51.642 54.3304 51.7487C54.4371 51.8555 54.4971 52.0003 54.4971 52.1513Z" fill="#9B4522"/>
</svg>
