<svg width="80" height="80" viewBox="0 0 80 80" fill="none" xmlns="http://www.w3.org/2000/svg">
<circle cx="40" cy="40" r="40" fill="#EDF8FF"/>
<path d="M57.7599 28.7341L51.2564 22.2397C50.9363 21.9201 50.4179 21.9201 50.0978 22.2397C50.0217 22.3156 49.9613 22.4058 49.9201 22.505C49.8789 22.6043 49.8577 22.7107 49.8577 22.8182C49.8577 22.9257 49.8789 23.0321 49.9201 23.1313C49.9613 23.2306 50.0217 23.3208 50.0978 23.3967L51.0804 24.3779L45.6842 29.7663L42.2436 26.3306C41.9236 26.011 41.4051 26.011 41.085 26.3306C41.0089 26.4065 40.9485 26.4966 40.9073 26.5959C40.8661 26.6952 40.8449 26.8016 40.8449 26.9091C40.8449 27.0165 40.8661 27.123 40.9073 27.2222C40.9485 27.3215 41.0089 27.4116 41.085 27.4875L42.9637 29.3636L27.1561 45.1488C27.0801 45.2247 27.0197 45.3149 26.9785 45.4141C26.9373 45.5134 26.9161 45.6198 26.9161 45.7273C26.9161 47.4625 27.5453 49.0382 28.5544 50.298L22.2401 56.6034C22.164 56.6793 22.1036 56.7694 22.0624 56.8687C22.0212 56.9679 22 57.0744 22 57.1818C22 57.2893 22.0212 57.3957 22.0624 57.495C22.1036 57.5943 22.164 57.6844 22.2401 57.7603C22.3161 57.8364 22.4064 57.8968 22.5058 57.9379C22.6052 57.979 22.7118 58.0001 22.8194 58C23.029 58 23.2386 57.9201 23.3986 57.7603L29.7129 51.455C30.9746 52.4627 32.5524 53.0909 34.2901 53.0909C34.5073 53.091 34.7157 53.0048 34.8694 52.8512L50.6769 37.0661L52.5556 38.9421C52.7156 39.1019 52.9253 39.1818 53.1349 39.1818C53.3445 39.1818 53.5542 39.1019 53.7142 38.9421C53.7903 38.8662 53.8506 38.7761 53.8918 38.6768C53.933 38.5775 53.9542 38.4711 53.9542 38.3636C53.9542 38.2562 53.933 38.1497 53.8918 38.0505C53.8506 37.9512 53.7903 37.8611 53.7142 37.7852L50.1456 34.2216L55.5417 28.8332L56.6011 29.8911C56.7611 30.0508 56.9707 30.1308 57.1803 30.1308C57.39 30.1308 57.5996 30.0508 57.7596 29.8911C57.8358 29.8152 57.8962 29.725 57.9374 29.6258C57.9786 29.5265 57.9999 29.4201 57.9999 29.3126C57.9999 29.2051 57.9787 29.0987 57.9376 28.9994C57.8964 28.9001 57.836 28.81 57.7599 28.7341ZM33.9436 51.4449C31.0472 51.2803 28.7197 48.9528 28.5551 46.0564L29.3637 45.2478L31.2397 47.1239C31.3156 47.1999 31.4058 47.2603 31.5051 47.3014C31.6043 47.3426 31.7108 47.3637 31.8182 47.3636C32.0276 47.3636 32.2369 47.2836 32.3967 47.1239C32.7164 46.8042 32.7164 46.2865 32.3967 45.9669L30.5206 44.0909L32.6364 41.9751L33.6943 43.0331C33.7701 43.1091 33.8603 43.1695 33.9596 43.2106C34.0589 43.2518 34.1653 43.2729 34.2728 43.2728C34.4821 43.2728 34.6914 43.1928 34.8513 43.0331C35.1709 42.7134 35.1709 42.1957 34.8513 41.8761L33.7934 40.8182L35.9091 38.7025L37.7851 40.5785C37.861 40.6546 37.9512 40.715 38.0505 40.7561C38.1497 40.7972 38.2562 40.8183 38.3636 40.8182C38.573 40.8182 38.7823 40.7383 38.9421 40.5785C39.2618 40.2589 39.2618 39.7411 38.9421 39.4216L37.0661 37.5455L39.1818 35.4297L40.2397 36.4876C40.3156 36.5637 40.4058 36.624 40.5051 36.6651C40.6044 36.7063 40.7108 36.7274 40.8183 36.7273C41.0276 36.7273 41.2369 36.6473 41.3968 36.4876C41.7164 36.1679 41.7164 35.6502 41.3968 35.3306L40.3388 34.2727L44.0909 30.5206L49.4794 35.9091L33.9436 51.4449ZM48.9488 33.0646L46.8075 30.9233L52.1959 25.5348L54.3373 27.6761L48.9488 33.0646Z" fill="#9B4522"/>
</svg>
