<svg width="80" height="80" viewBox="0 0 80 80" fill="none" xmlns="http://www.w3.org/2000/svg">
<circle cx="40" cy="40" r="40" fill="#EDF8FF"/>
<path d="M31.6073 26.998C30.033 27.0128 28.5105 27.5625 27.2899 28.5569C27.2261 28.6045 27.1726 28.6644 27.1325 28.7332C27.0924 28.8019 27.0665 28.878 27.0565 28.957C27.0465 29.036 27.0524 29.1161 27.0741 29.1927C27.0957 29.2693 27.1325 29.3408 27.1824 29.4028C27.2323 29.4649 27.2941 29.5162 27.3642 29.5538C27.4344 29.5914 27.5114 29.6145 27.5907 29.6217C27.6699 29.6289 27.7498 29.6201 27.8256 29.5957C27.9014 29.5714 27.9715 29.532 28.0317 29.4799C29.0421 28.6549 30.3028 28.1976 31.6073 28.183C31.7644 28.183 31.9151 28.1206 32.0262 28.0095C32.1373 27.8984 32.1997 27.7477 32.1997 27.5905C32.1997 27.4334 32.1373 27.2827 32.0262 27.1716C31.9151 27.0605 31.7644 26.998 31.6073 26.998Z" fill="#9B4522"/>
<path d="M56.867 38.4359C57.436 36.9843 57.6683 35.4226 57.5465 33.8683C57.4247 32.3139 56.9519 30.8075 56.1638 29.4623L56.7391 29.1477C56.992 29.0095 57.2031 28.8058 57.3501 28.558C57.4971 28.3101 57.5747 28.0272 57.5747 27.739C57.5747 27.4509 57.4971 27.168 57.3501 26.9201C57.2031 26.6723 56.992 26.4686 56.7391 26.3304L56.0157 25.9347C55.4344 25.6171 54.9566 25.1392 54.6393 24.5577L54.2436 23.8349C54.1052 23.5822 53.9014 23.3713 53.6535 23.2244C53.4056 23.0775 53.1228 23 52.8347 23C52.5465 23 52.2637 23.0775 52.0158 23.2244C51.7679 23.3713 51.5641 23.5822 51.4258 23.8349L51.03 24.5583C50.9313 24.7344 50.8175 24.9015 50.6899 25.0578C46.9614 23.8788 43.0422 25.1621 39.8002 28.6304C35.481 24.002 30.7436 23.9771 27.4826 25.6266C24.7015 25.8357 22.888 26.7523 22.2439 28.2927C22.0473 28.8328 21.9681 29.4087 22.0116 29.9818C22.0551 30.555 22.2204 31.1123 22.4963 31.6165C21.7983 33.8505 21.8819 36.2557 22.7333 38.4359C23.3159 39.8409 24.051 41.1776 24.9255 42.4221C25.9505 43.9945 26.9186 45.4804 27.3167 47.2555C27.4621 48.0172 27.5369 48.7907 27.5401 49.5662C27.5405 50.4939 27.6443 51.4187 27.8494 52.3235C28.6439 55.3487 30.4201 57.0527 32.7669 56.9988C36.4622 56.9146 37.3776 53.3219 38.1128 50.4383C38.5513 48.7201 38.9464 46.9142 39.8014 46.9142C40.6563 46.9142 41.0515 48.7195 41.4899 50.4383C42.2252 53.3219 43.1406 56.9111 46.8352 56.9988C49.1714 57.0254 50.9595 55.3505 51.7528 52.3235C51.9579 51.4187 52.0616 50.4939 52.0621 49.5662C52.0653 48.7907 52.14 48.0172 52.2854 47.2555C52.4097 46.7196 52.5832 46.1964 52.8038 45.6925C55.2075 45.407 56.7977 44.52 57.3943 43.1022C57.8926 41.9208 57.6349 40.4722 56.6698 38.8998C56.7331 38.744 56.8078 38.5947 56.867 38.4359ZM52.0692 25.1277L52.465 24.4049C52.5013 24.3387 52.5548 24.2834 52.6199 24.245C52.6849 24.2065 52.7591 24.1862 52.8347 24.1862C52.9102 24.1862 52.9844 24.2065 53.0494 24.245C53.1145 24.2834 53.168 24.3387 53.2044 24.4049L53.6001 25.1277C54.0258 25.908 54.6668 26.5495 55.4469 26.9756L56.1709 27.3714C56.2371 27.4077 56.2924 27.4612 56.3309 27.5262C56.3694 27.5911 56.3897 27.6653 56.3897 27.7408C56.3897 27.8164 56.3694 27.8905 56.3309 27.9555C56.2924 28.0205 56.2371 28.0739 56.1709 28.1102L55.4469 28.506C54.6669 28.9317 54.0258 29.5728 53.6001 30.3528L53.2044 31.0768C53.168 31.143 53.1145 31.1982 53.0494 31.2367C52.9844 31.2752 52.9102 31.2955 52.8347 31.2955C52.7591 31.2955 52.6849 31.2752 52.6199 31.2367C52.5548 31.1982 52.5013 31.143 52.465 31.0768L52.0692 30.3539C51.6439 29.573 51.0028 28.9311 50.2224 28.5048L49.4984 28.1085C49.4322 28.0722 49.3769 28.0189 49.3384 27.9539C49.2999 27.889 49.2795 27.8148 49.2795 27.7393C49.2795 27.6638 49.2999 27.5897 49.3384 27.5248C49.3769 27.4598 49.4322 27.4064 49.4984 27.3702L50.2218 26.9745C51.002 26.5487 51.6432 25.9077 52.0692 25.1277ZM23.3341 28.7519C23.5231 28.3919 23.7846 28.075 24.1022 27.8211C24.4197 27.5672 24.7864 27.3818 25.1791 27.2766C24.3818 28.0477 23.7133 28.9417 23.199 29.9244C23.1392 29.5277 23.1867 29.1223 23.3365 28.7501L23.3341 28.7519ZM51.1242 47.0001C50.9616 47.8326 50.8773 48.6783 50.8724 49.5265C50.8743 50.3673 50.7833 51.2058 50.601 52.0267C50.2248 53.467 49.2134 55.8612 46.8601 55.8185C44.0631 55.7528 43.3367 52.9042 42.6346 50.1503C42.0629 47.9392 41.5433 45.6606 39.7315 45.7305C38.0299 45.7956 37.5168 47.9819 36.9634 50.1503C36.2607 52.9042 35.535 55.748 32.7379 55.8185C30.3733 55.8778 29.3732 53.4688 28.997 52.0267C28.8147 51.2058 28.7237 50.3673 28.7256 49.5265C28.7207 48.6783 28.6364 47.8326 28.4738 47.0001C28.0295 45.0165 26.9571 43.3706 25.9197 41.7786C25.0914 40.6063 24.3946 39.3465 23.8419 38.0218C23.2318 36.4493 23.0634 34.74 23.3548 33.0787C25.6827 36.3374 30.8017 39.9195 36.9516 42.5092C42.288 44.7203 47.2606 45.9088 51.4874 45.7986C51.3412 46.1893 51.2207 46.589 51.1265 46.9954L51.1242 47.0001ZM52.0093 44.5834C48.2175 44.856 42.7969 43.6864 37.409 41.4172C30.8603 38.6599 25.5594 34.8052 23.7743 31.53C24.4737 29.6261 25.7954 28.014 27.5253 26.9549C30.4705 25.2 35.1054 25.0483 39.3037 29.858C39.9625 31.171 40.6889 32.9348 43.9475 32.9691C44.1047 32.9691 44.2554 32.9067 44.3665 32.7956C44.4776 32.6845 44.54 32.5338 44.54 32.3767C44.54 32.2195 44.4776 32.0688 44.3665 31.9577C44.2554 31.8466 44.1047 31.7842 43.9475 31.7842C41.6369 31.7842 41.0385 30.7011 40.5112 29.6181C43.2318 26.6225 46.4596 25.3369 49.5642 25.9844L48.932 26.3298C48.6791 26.4681 48.4681 26.6718 48.3211 26.9197C48.174 27.1676 48.0964 27.4505 48.0964 27.7388C48.0964 28.027 48.174 28.3099 48.3211 28.5578C48.4681 28.8057 48.6791 29.0094 48.932 29.1477L49.6554 29.5434C50.2369 29.8608 50.7147 30.3388 51.0318 30.9203L51.4275 31.6426C51.5658 31.8955 51.7695 32.1065 52.0174 32.2535C52.2653 32.4006 52.5482 32.4781 52.8364 32.4781C53.1247 32.4781 53.4076 32.4006 53.6555 32.2535C53.9034 32.1065 54.1071 31.8955 54.2453 31.6426L54.6411 30.9192C54.7908 30.6481 54.9762 30.3982 55.1921 30.1762C55.8646 31.3585 56.2647 32.676 56.363 34.0326C56.4613 35.3893 56.2554 36.7507 55.7603 38.0176C55.2069 39.3429 54.5095 40.6034 53.6807 41.7763C53.0701 42.677 52.5128 43.6127 52.0117 44.5787L52.0093 44.5834ZM56.2971 42.646C55.938 43.4992 54.9249 44.1035 53.4443 44.4009C53.8182 43.7397 54.2382 43.0898 54.6713 42.4256C55.1376 41.7093 55.6069 40.9741 56.0305 40.2056C56.2419 40.5707 56.375 40.9758 56.4214 41.3951C56.4677 41.8145 56.4262 42.2389 56.2995 42.6413L56.2971 42.646Z" fill="#9B4522"/>
<path d="M50.5977 33.8772L50.1924 33.6585C49.9108 33.5045 49.6794 33.2727 49.5259 32.9908L49.3043 32.5862C49.2044 32.4033 49.0572 32.2507 48.8779 32.1445C48.6987 32.0383 48.4942 31.9823 48.2858 31.9824C48.0776 31.9817 47.8729 32.037 47.6934 32.1426C47.5139 32.2482 47.3661 32.4002 47.2656 32.5826L47.044 32.9879C46.8908 33.2709 46.6591 33.5038 46.3769 33.6585L45.9722 33.8795C45.7895 33.9794 45.6371 34.1266 45.5309 34.3057C45.4247 34.4848 45.3687 34.6892 45.3687 34.8974C45.3687 35.1056 45.4247 35.31 45.5309 35.4891C45.6371 35.6682 45.7895 35.8154 45.9722 35.9153L46.3775 36.1375C46.6594 36.2911 46.891 36.5227 47.0446 36.8046L47.2662 37.2093C47.366 37.3921 47.5131 37.5447 47.6922 37.651C47.8713 37.7573 48.0758 37.8135 48.2841 37.8136C48.4924 37.8135 48.6968 37.7574 48.876 37.6512C49.0551 37.545 49.2025 37.3925 49.3025 37.2098L49.5241 36.804C49.6779 36.5226 49.9092 36.2912 50.1906 36.1375L50.5959 35.9159C50.7786 35.816 50.931 35.6688 51.0372 35.4897C51.1434 35.3106 51.1995 35.1062 51.1995 34.898C51.1995 34.6898 51.1434 34.4854 51.0372 34.3063C50.931 34.1272 50.7786 33.98 50.5959 33.8801L50.5977 33.8772ZM49.6242 35.0953C49.1436 35.3574 48.7485 35.7523 48.4861 36.2329L48.3084 36.6375L48.0868 36.2334C47.8246 35.7526 47.4294 35.3575 46.9486 35.0953L46.5434 34.9176L46.948 34.696C47.4289 34.4336 47.8242 34.0385 48.0868 33.5578L48.2645 33.1526L48.4861 33.5572C48.7486 34.0378 49.1437 34.4328 49.6242 34.6954L50.0295 34.8731L49.6242 35.0953Z" fill="#9B4522"/>
<path d="M26.173 31.2943C26.5003 31.2943 26.7655 31.0291 26.7655 30.7019C26.7655 30.3746 26.5003 30.1094 26.173 30.1094C25.8458 30.1094 25.5806 30.3746 25.5806 30.7019C25.5806 31.0291 25.8458 31.2943 26.173 31.2943Z" fill="#9B4522"/>
</svg>
