<svg width="80" height="80" viewBox="0 0 80 80" fill="none" xmlns="http://www.w3.org/2000/svg">
<circle cx="40" cy="40" r="40" fill="#EDF8FF"/>
<path d="M37.8301 23.0181C44.8996 22.9042 51.9682 23.3283 59.0369 24.2829C60.3017 24.4537 61.2452 25.535 61.2452 26.8108V30.4208C61.2452 32.6231 60.0484 34.5458 58.2702 35.5743M21.72 35.4177C20.0829 34.3586 19 32.5158 19 30.4205V26.8089C19 25.533 19.9427 24.4526 21.2066 24.2809C25.7567 23.663 30.3059 23.2686 34.856 23.0986M45.2368 38.3H40.8451C40.3756 38.3 39.9951 37.9195 39.9951 37.45V32.8458C39.9951 31.1637 41.3587 29.8 43.0409 29.8C44.7231 29.8 46.0867 31.1637 46.0867 32.8458V37.45C46.0868 37.9195 45.7063 38.3 45.2368 38.3Z" stroke="#9B4522" stroke-miterlimit="10" stroke-linecap="round" stroke-linejoin="round"/>
<path d="M51.3283 38.3008H46.9366C46.4671 38.3008 46.0866 37.9203 46.0866 37.4508V33.6193C46.0866 31.9372 47.4502 30.5735 49.1324 30.5735C50.8146 30.5735 52.1782 31.9372 52.1782 33.6193V37.4508C52.1783 37.9203 51.7978 38.3008 51.3283 38.3008ZM34.7532 38.3008H39.145C39.6144 38.3008 39.995 37.9203 39.995 37.4508V32.8466C39.995 31.1644 38.6313 29.8008 36.9491 29.8008C35.267 29.8008 33.9033 31.1644 33.9033 32.8466V37.4508C33.9032 37.9203 34.2838 38.3008 34.7532 38.3008Z" stroke="#9B4522" stroke-miterlimit="10" stroke-linecap="round" stroke-linejoin="round"/>
<path d="M27.8118 37.4496V33.6181C27.8118 31.9359 29.1755 30.5723 30.8576 30.5723C32.5398 30.5723 33.9034 31.9359 33.9034 33.6181V37.4496C33.9034 37.919 33.5229 38.2996 33.0534 38.2996H28.6617C28.1923 38.2996 27.8117 37.919 27.8118 37.4496ZM27.8118 37.4496C27.8118 37.919 27.4312 38.2996 26.9617 38.2996H22.57C22.1006 38.2996 21.72 37.919 21.7201 37.4496V34.3908C21.7201 32.7087 23.0838 31.345 24.7659 31.345C26.4481 31.345 27.8117 32.7087 27.8117 34.3908L27.8118 37.4496ZM21.72 44.5822C20.0829 45.6413 19 47.4841 19 49.5794V53.191C19 54.4669 19.9427 55.5472 21.2066 55.7189C30.923 57.0398 40.6394 57.3356 50.3558 56.6216M58.2702 44.4255C60.0484 45.454 61.2452 47.3767 61.2452 49.5791V53.1891C61.2452 54.4649 60.3017 55.5461 59.0369 55.717C57.1311 55.9745 55.2254 56.193 53.3197 56.3732M39.9951 46.6916V47.154C39.9951 48.8362 41.3585 50.1996 43.0406 50.1996C43.8813 50.1996 44.6429 49.8588 45.1946 49.308C45.7462 48.7563 46.0871 47.9947 46.0871 47.154V42.5496C46.0871 42.0804 45.7063 41.6996 45.2371 41.6996H40.8451C40.3759 41.6996 39.9951 42.0804 39.9951 42.5496V43.7166M57.4201 38.2996H53.0284C52.559 38.2996 52.1784 37.919 52.1784 37.4496V34.3908C52.1784 32.7087 53.5421 31.345 55.2242 31.345C56.9064 31.345 58.2701 32.7087 58.2701 34.3908V37.4496C58.2702 37.919 57.8896 38.2996 57.4201 38.2996Z" stroke="#9B4522" stroke-miterlimit="10" stroke-linecap="round" stroke-linejoin="round"/>
<path d="M39.9953 46.6913V47.1537C39.9953 48.8358 38.6319 50.1993 36.9497 50.1993C36.1091 50.1993 35.3475 49.8584 34.7958 49.3076C34.2442 48.7559 33.9033 47.9943 33.9033 47.1537V42.5492C33.9033 42.08 34.2841 41.6992 34.7533 41.6992H39.1453C39.6145 41.6992 39.9953 42.08 39.9953 42.5492V43.7163M51.3286 41.6993H46.9369C46.4675 41.6993 46.0869 42.0799 46.0869 42.5493V46.3808C46.0869 48.0629 47.4506 49.4266 49.1327 49.4266C50.8149 49.4266 52.1786 48.0629 52.1786 46.3808V42.5493C52.1786 42.0799 51.7981 41.6993 51.3286 41.6993Z" stroke="#9B4522" stroke-miterlimit="10" stroke-linecap="round" stroke-linejoin="round"/>
<path d="M27.8119 42.5492V46.3807C27.8119 48.0629 29.1756 49.4265 30.8578 49.4265C32.5399 49.4265 33.9036 48.0629 33.9036 46.3807V42.5492C33.9036 42.0798 33.523 41.6992 33.0536 41.6992H28.6619C28.1924 41.6992 27.8118 42.0798 27.8119 42.5492ZM27.8119 42.5492C27.8119 42.0798 27.4313 41.6992 26.9618 41.6992H22.5701C22.1007 41.6992 21.7201 42.0798 21.7202 42.5492V45.608C21.7202 47.2901 23.0839 48.6538 24.766 48.6538C26.4482 48.6538 27.8118 47.2901 27.8118 45.608L27.8119 42.5492ZM57.4203 41.6992H53.0286C52.5591 41.6992 52.1786 42.0798 52.1786 42.5492V45.608C52.1786 47.2901 53.5422 48.6538 55.2244 48.6538C56.9065 48.6538 58.2702 47.2901 58.2702 45.608V42.5492C58.2703 42.0798 57.8897 41.6992 57.4203 41.6992Z" stroke="#9B4522" stroke-miterlimit="10" stroke-linecap="round" stroke-linejoin="round"/>
</svg>
