<svg width="80" height="80" viewBox="0 0 80 80" fill="none" xmlns="http://www.w3.org/2000/svg">
<circle cx="40" cy="40" r="40" fill="#EDF8FF"/>
<path d="M28.9172 39.545C29.3453 40.2878 29.5432 40.692 29.3686 41.7527C29.2176 42.6671 29.1299 43.5618 29.1068 44.4139C29.0983 44.7364 28.8337 44.9923 28.5127 44.9923H28.4962C28.3386 44.988 28.1891 44.9213 28.0806 44.8068C27.9721 44.6924 27.9135 44.5395 27.9176 44.3818C27.9418 43.4759 28.0352 42.5265 28.1945 41.5596C28.308 40.8705 28.2355 40.7445 27.8862 40.1388L27.7829 39.9586C26.1034 37.0093 25.4782 33.7539 25.9244 30.2818C25.9666 29.9571 26.2626 29.7256 26.5905 29.7683C26.9165 29.8098 27.1462 30.1084 27.1044 30.4338C26.6918 33.6437 27.2679 36.6504 28.8163 39.3696L28.9172 39.545ZM54.2841 29.7682C53.9584 29.8098 53.7283 30.1084 53.7701 30.4337C54.1827 33.6436 53.6065 36.6504 52.0583 39.3696L51.9572 39.5457C51.5291 40.2882 51.3311 40.6919 51.5061 41.7532C51.6571 42.6671 51.7448 43.5618 51.7679 44.4138C51.7762 44.7363 52.0409 44.9922 52.3622 44.9922H52.3783C52.536 44.988 52.6855 44.9213 52.7941 44.8068C52.9026 44.6923 52.9612 44.5395 52.9571 44.3818C52.9327 43.4758 52.8393 42.5265 52.68 41.5595C52.5666 40.8707 52.6389 40.7451 52.988 40.1396L53.0919 39.9585C54.7714 37.0092 55.3963 33.7538 54.95 30.2817C54.9401 30.2042 54.915 30.1295 54.8761 30.0617C54.8373 29.994 54.7854 29.9345 54.7236 29.8868C54.6617 29.8391 54.5911 29.8041 54.5156 29.7838C54.4402 29.7634 54.3615 29.7581 54.2841 29.7682ZM36.7143 43.9752C36.4805 44.2058 36.4788 44.5828 36.7098 44.8162C36.9407 45.0493 37.3179 45.0523 37.551 44.8204C39.1423 43.2462 41.7323 43.2455 43.3237 44.8204C43.4348 44.9309 43.5853 44.9927 43.742 44.9923C43.8954 44.9923 44.0486 44.9335 44.1648 44.8162C44.3959 44.5828 44.394 44.2058 44.1605 43.9745C42.1073 41.9438 38.7672 41.9438 36.7143 43.9752ZM49.8916 31.495C51.1802 33.0549 49.9542 36.4848 49.1259 38.0803C49.1135 38.1045 49.0993 38.1277 49.0834 38.1498C48.4004 39.1163 48.1574 40.5042 48.3611 42.2743C48.504 42.978 48.6177 43.6676 48.6994 44.3242C48.7398 44.6503 48.5086 44.9475 48.1827 44.988C48.1581 44.9909 48.1332 44.9923 48.1084 44.9922C47.8126 44.9922 47.5562 44.772 47.5189 44.4712C47.4459 43.8844 47.3431 43.2671 47.2185 42.6378C47.2043 42.6228 47.1887 42.6097 47.1762 42.5926C45.5831 40.5033 43.0633 39.2555 40.4351 39.2555C37.7696 39.2555 35.2325 40.5298 33.6399 42.6651C33.5256 43.2554 33.4237 43.8864 33.351 44.4713C33.3104 44.7971 33.0208 45.0288 32.6872 44.9882C32.3616 44.9477 32.13 44.6505 32.1707 44.3244C32.2593 43.6183 32.374 42.9157 32.5146 42.2181C32.7067 40.4747 32.4618 39.106 31.786 38.1499C31.7703 38.1278 31.7561 38.1046 31.7435 38.0804C30.9156 36.4849 29.6894 33.055 30.978 31.4951C31.6247 30.7122 32.7139 30.5385 34.215 30.9773C36.2635 31.369 38.3445 31.5662 40.4302 31.5664H40.4394C42.5205 31.5664 44.611 31.3687 46.6547 30.9773C48.1548 30.5385 49.2449 30.712 49.8916 31.495ZM48.7149 36.0483H32.1547C32.2483 36.3083 32.3503 36.5652 32.4605 36.8185H48.4092C48.5194 36.5652 48.6214 36.3083 48.7149 36.0483ZM49.0724 34.8587C49.1333 34.6045 49.1819 34.3474 49.2181 34.0885H31.6515C31.6876 34.3474 31.7363 34.6045 31.7972 34.8587H49.0724ZM31.8952 32.2526C31.7637 32.4118 31.6794 32.6333 31.6356 32.8989H49.2339C49.1901 32.6333 49.106 32.4118 48.9742 32.2526C48.5783 31.7727 47.6622 31.9185 46.9639 32.126C46.9452 32.1316 46.9262 32.1363 46.907 32.1401C44.7756 32.5495 42.6102 32.7557 40.4398 32.756H40.4302C38.2596 32.7557 36.094 32.5495 33.9625 32.1401C33.9433 32.1363 33.9244 32.1316 33.9057 32.126C33.2069 31.9185 32.2909 31.772 31.8952 32.2526ZM34.6795 39.9707H33.6853C33.7197 40.2212 33.7439 40.4802 33.7549 40.7487C34.0466 40.4703 34.3554 40.2105 34.6795 39.9707ZM40.4351 38.0659C41.6895 38.0659 42.9212 38.318 44.0641 38.7829C44.0692 38.7829 44.0742 38.7811 44.0793 38.7811H47.4589C47.5502 38.5105 47.6545 38.2505 47.7813 38.0083H33.0879C33.2147 38.2505 33.3196 38.5105 33.4111 38.7811H36.7927C36.7965 38.7811 36.7998 38.7823 36.8038 38.7823C37.9455 38.318 39.1768 38.0659 40.4351 38.0659ZM47.1153 40.7524C47.1263 40.4823 47.1498 40.2224 47.1841 39.9706H46.1871C46.5121 40.2109 46.8215 40.4722 47.1153 40.7524ZM58.8799 29.7589V44.9967C58.8799 45.8965 58.1479 46.6277 57.2481 46.6277H52.8658C52.4174 50.7979 50.3318 54.2062 46.6504 56.7615C46.4255 56.9161 46.1591 56.999 45.8862 56.9993C45.6666 56.9992 45.4504 56.9453 45.2563 56.8426C45.0391 56.7278 44.8575 56.5555 44.7315 56.3446C44.6054 56.1336 44.5396 55.8921 44.5414 55.6464V47.7378C44.541 47.3625 44.4893 46.989 44.3877 46.6277H36.4861C36.3843 46.989 36.3328 47.3625 36.3329 47.7378V55.6499C36.3343 55.8951 36.2683 56.136 36.1422 56.3463C36.0161 56.5566 35.8346 56.7283 35.6177 56.8426C35.4236 56.9459 35.2072 56.9999 34.9874 57C34.716 56.9998 34.451 56.9176 34.2271 56.7641C30.5433 54.2062 28.4572 50.7965 28.009 46.6278H23.6317C22.7319 46.6278 22 45.8965 22 44.9968V29.7589C22 28.8592 22.7319 28.1276 23.6317 28.1276H26.3422C26.3829 27.9685 26.4212 27.81 26.4659 27.6515C26.4705 27.6352 26.4758 27.6188 26.482 27.6031C27.3605 25.2741 28.6541 23.8109 30.3265 23.2534C32.2674 22.6068 34.7047 23.1991 37.5735 25.0138C39.3948 25.7042 41.479 25.7042 43.3017 25.0138C46.1708 23.199 48.6084 22.6068 50.5482 23.2534C52.2207 23.8109 53.5141 25.2744 54.3925 27.6031C54.3984 27.6188 54.404 27.6346 54.4085 27.6508C54.4534 27.8093 54.4911 27.9685 54.5316 28.1276H57.2481C58.1479 28.1276 58.8799 28.8592 58.8799 29.7589ZM27.5705 28.1276H53.3034C53.2921 28.0845 53.2827 28.0417 53.2705 27.9994C52.5253 26.036 51.4829 24.8192 50.1724 24.3821C48.5777 23.851 46.4636 24.4117 43.8891 26.0498C43.8561 26.0704 43.8212 26.0885 43.7848 26.1024C42.7201 26.5145 41.5937 26.7238 40.4372 26.7238C39.2803 26.7238 38.1543 26.5145 37.0903 26.1024C37.0538 26.0883 37.0188 26.0707 36.9858 26.0498C34.4117 24.4123 32.2985 23.8509 30.7025 24.3821C29.3918 24.8192 28.3491 26.036 27.6037 27.9989C27.5918 28.0417 27.5824 28.0845 27.5705 28.1276ZM35.265 46.6277H29.205C29.645 50.3819 31.5568 53.4618 34.9026 55.7843C34.9475 55.8152 35.0095 55.8189 35.0605 55.7916C35.0857 55.7784 35.1068 55.7584 35.1214 55.734C35.136 55.7095 35.1436 55.6815 35.1433 55.653V47.7378C35.1433 47.3619 35.1874 46.991 35.265 46.6277ZM51.6702 46.6277H45.6096C45.6872 46.9917 45.731 47.3619 45.731 47.7378V55.6499C45.7307 55.7111 45.7621 55.7644 45.8137 55.7916C45.8645 55.8181 45.927 55.8152 45.9754 55.7817C49.3175 53.4619 51.2298 50.3827 51.6702 46.6277ZM57.6901 29.7589C57.6899 29.6417 57.6433 29.5294 57.5605 29.4466C57.4776 29.3638 57.3653 29.3173 57.2481 29.3173H23.6317C23.5145 29.3173 23.4022 29.3638 23.3193 29.4466C23.2364 29.5294 23.1898 29.6417 23.1897 29.7589V44.9967C23.1898 45.1139 23.2364 45.2262 23.3193 45.309C23.4022 45.3918 23.5145 45.4383 23.6317 45.4384H57.2481C57.3653 45.4383 57.4776 45.3918 57.5605 45.309C57.6433 45.2262 57.6899 45.1139 57.6901 44.9967V29.7589Z" fill="#9B4522"/>
</svg>
