<svg width="80" height="80" viewBox="0 0 80 80" fill="none" xmlns="http://www.w3.org/2000/svg">
<circle cx="40" cy="40" r="40" fill="#EDF8FF"/>
<path d="M31.3704 49.2984L30.9647 48.2552C30.8488 47.9654 30.501 47.7915 30.2112 47.9074C29.9214 48.0233 29.7475 48.3711 29.8635 48.6609L30.2692 49.7042C30.3271 49.936 30.6169 50.2258 31.0227 50.0519C31.3125 49.936 31.4863 49.5882 31.3704 49.2984Z" fill="#9B4522"/>
<path d="M51.7711 40.5472H47.482C46.6126 39.0982 45.1057 38.2288 43.4248 38.2288H36.9912C35.3104 38.2288 33.8034 39.0982 32.934 40.5472H28.587C28.2393 40.5472 27.9495 40.837 28.0074 41.1268C28.0654 42.9236 28.3552 44.6624 28.9927 46.3433C29.1087 46.6331 29.4564 46.8069 29.7462 46.691C30.036 46.5751 30.2099 46.2273 30.094 45.9375C29.5723 44.5465 29.2825 43.1554 29.1666 41.7064H51.1915C51.1335 43.0395 50.9017 44.3726 50.5539 45.5898L47.3661 55.7328C47.0183 56.834 46.033 56.7761 45.9751 56.7761C45.9751 56.7761 44.6999 56.95 44.5261 55.6748L43.193 50.2845C42.9032 49.1253 41.8599 48.3139 40.6427 48.3139C39.4256 48.3139 38.3823 49.1253 38.0925 50.2845L36.7594 55.6748C36.5855 56.3124 36.0059 56.7761 35.3104 56.7761C35.3104 56.7761 34.1512 56.834 33.8034 55.8487L32.2385 51.6756C32.1226 51.3858 31.7748 51.2119 31.485 51.3278C31.1952 51.4437 31.0213 51.7915 31.1373 52.0813L32.7022 56.2544C33.1659 57.6455 34.499 57.9932 35.1945 57.9932C35.2524 57.9932 37.281 58.1671 37.8606 56.0226L39.1937 50.6323C39.3676 49.9947 39.9472 49.5311 40.5848 49.5311C41.2803 49.5311 41.8019 49.9947 41.9758 50.6323L43.3089 56.0226C43.5987 57.1818 44.642 57.9932 45.8012 57.9932C46.4967 58.0512 47.9457 57.7614 48.4094 56.1385L51.5392 45.9955C52.0029 44.4306 52.2927 42.8077 52.2348 41.1268C52.3507 40.7791 52.0609 40.5472 51.7711 40.5472ZM34.3251 40.5472C35.0206 39.7938 35.948 39.388 36.9912 39.388H43.4248C44.4101 39.388 45.3955 39.8517 46.091 40.5472H34.3251ZM28.587 31.2736H47.1343C47.482 31.2736 47.7139 31.0418 47.7139 30.694C47.7139 30.3463 47.482 30.1144 47.1343 30.1144H29.1666C29.2246 28.2017 29.6883 24.7821 31.1952 23.5649C32.2965 22.6955 33.4557 23.3331 33.8034 23.5649C33.2238 23.8547 32.7602 24.2025 32.4124 24.4923C32.1806 24.7241 32.1806 25.0719 32.4124 25.3037C32.6442 25.5356 32.992 25.5356 33.2238 25.3037C33.2818 25.2458 34.0353 24.6082 35.0786 24.2604C36.1218 23.9706 37.4549 23.9706 38.846 25.1878C41.0485 27.2164 43.193 26.5209 44.5261 25.1878C44.5261 25.1878 45.9171 23.507 46.9604 23.1592C49.047 22.4637 50.0323 24.898 50.0323 24.956C50.7278 26.6368 51.0756 28.3756 51.1915 30.1144H49.2788C48.931 30.1144 48.6992 30.3463 48.6992 30.694C48.6992 31.0418 48.931 31.2736 49.2788 31.2736H51.829C52.1188 31.2736 52.4086 31.0418 52.4086 30.694C52.4086 28.6075 51.945 26.5209 51.1335 24.6082C51.0176 24.4923 50.0323 22 47.6559 22C46.7865 22 45.9171 22.3478 45.2795 22.9274C43.8305 22 41.6281 22 41.6281 22C39.5415 22 38.0345 22.8694 37.5129 23.2751C36.6435 23.0433 35.832 23.0433 35.0786 23.2172C34.383 22.5796 32.5283 21.0726 30.3838 22.9274C28.4131 24.5502 27.9495 28.7813 28.0074 30.694C28.0074 31.0418 28.2972 31.2736 28.587 31.2736ZM41.686 23.1592C42.9032 23.1592 43.8305 23.507 44.4101 23.7388C44.4101 23.7388 43.0771 25.3617 41.5701 25.3617C40.295 25.3617 39.0198 23.9706 38.73 23.7968C39.4256 23.507 40.4109 23.1592 41.686 23.1592Z" fill="#9B4522"/>
<path d="M49.3369 28.9562C49.6267 28.8982 49.8586 28.6084 49.8006 28.3186C49.5688 27.0435 49.221 25.8263 48.7573 24.6092C48.6414 24.3194 48.2937 24.1455 48.0039 24.3194C47.7141 24.4353 47.5402 24.7831 47.7141 25.0729C48.1777 26.1741 48.5255 27.3333 48.6994 28.4925C48.7573 28.7823 49.0471 29.0141 49.3369 28.9562ZM40.1792 32.4338C39.8315 32.4338 39.5996 32.6656 39.5996 33.0134V35.1C39.5996 35.1 39.078 34.5204 38.6143 34.9261C38.3825 35.1579 38.3825 35.5057 38.6143 35.7375L39.7735 36.8967C40.1792 37.2445 40.585 36.8967 40.585 36.8967L41.7442 35.7375C41.976 35.5057 41.976 35.1579 41.7442 34.9261C41.2805 34.4624 40.7588 35.1 40.7588 35.1V33.0134C40.7588 32.6656 40.527 32.4338 40.1792 32.4338Z" fill="#9B4522"/>
</svg>
