<svg width="80" height="80" viewBox="0 0 80 80" fill="none" xmlns="http://www.w3.org/2000/svg">
<circle cx="40" cy="40" r="40" fill="#EDF8FF"/>
<g clip-path="url(#clip0_483_38)">
<path d="M50.0802 41.7465C49.9368 42.4562 49.7995 43.2419 49.6542 44.0735C49.0867 47.3254 48.3798 51.37 46.6701 54.4789C46.6658 54.4851 46.6621 54.4945 46.6581 54.5006C46.5559 54.4727 46.3817 54.4012 46.1158 54.2364C45.9 53.9225 45.7551 52.4986 45.6492 51.4571C45.2728 47.7606 44.704 42.1758 39.9973 41.8572C39.9649 41.855 39.932 41.855 39.8997 41.8572C35.1929 42.1758 34.6242 47.7606 34.2481 51.4571C34.1416 52.4986 33.9969 53.9225 33.7812 54.2364C33.5159 54.4012 33.3411 54.4727 33.2392 54.5006C33.2352 54.4945 33.2312 54.4851 33.2269 54.4789C31.4172 51.1897 30.8069 46.6141 30.4028 43.5873C30.2861 42.7133 30.1855 41.9588 30.0768 41.4042C30.0728 41.3843 30.0682 41.3638 30.0624 41.3439C29.9836 41.0666 29.7324 40.3991 29.2951 39.2429C28.7103 37.6975 27.4943 34.4813 27.4614 33.9345C27.4614 29.2705 31.2177 25.4761 35.8349 25.4761C37.1599 25.4761 38.4587 26.0578 39.6652 26.6864C39.8751 26.7958 40.125 26.7958 40.3349 26.6864C41.5414 26.0578 42.8405 25.4761 44.1651 25.4761C48.7823 25.4761 52.5387 29.2705 52.5387 33.9345C52.5387 34.8177 50.8182 39.7901 50.1144 41.6283C50.1002 41.6666 50.0885 41.7067 50.0802 41.7465ZM44.1651 24C42.661 24 41.2776 24.5577 40 25.2025C38.7222 24.5577 37.339 24 35.8349 24C30.4123 24 26 28.4563 26 33.9345C26 34.5572 26.6225 36.3121 27.9298 39.7695C28.2585 40.6382 28.5694 41.4602 28.6497 41.7241C28.7476 42.2321 28.8436 42.9527 28.9544 43.7844C29.3699 46.8957 29.9956 51.5846 31.9035 55.11C31.9884 55.3867 32.1949 55.7069 32.5633 55.8779C32.7372 55.9588 32.9246 55.9993 33.1262 55.9993C33.5497 55.9993 34.0369 55.8219 34.5989 55.4582C35.3591 54.9701 35.4881 53.7048 35.7017 51.6063C36.131 47.3907 36.7792 43.5863 39.9486 43.3336C43.1175 43.5863 43.7659 47.3907 44.1953 51.6063C44.4089 53.7048 44.5378 54.9701 45.2983 55.4582C46.1278 55.9929 46.7938 56.1298 47.3336 55.8779C47.7024 55.7069 47.9086 55.3867 47.9941 55.11C49.7887 51.7991 50.5117 47.6611 51.0937 44.33C51.2331 43.531 51.3652 42.7755 51.5003 42.0993C51.7533 41.4222 54 35.3453 54 33.9345C54 28.4563 49.5881 24 44.1651 24Z" fill="#9B4522"/>
<path d="M44.5889 33.3682C44.3501 32.9385 44.2913 32.4408 44.423 31.9661C44.5547 31.492 44.8616 31.0974 45.2872 30.8565C45.5639 30.6989 45.8695 30.6193 46.1785 30.6193C46.3444 30.6193 46.5109 30.642 46.675 30.6886C47.1446 30.8217 47.5349 31.1313 47.7737 31.5613C48.2671 32.4483 47.9538 33.5749 47.0757 34.0732C46.1979 34.5707 45.0823 34.2551 44.5889 33.3682ZM46.9907 29.5517C46.2207 29.3328 45.4122 29.4308 44.7148 29.8265C44.0171 30.2226 43.5135 30.8689 43.2975 31.6471C43.0811 32.4253 43.1778 33.242 43.5699 33.9464C44.1189 34.9338 45.138 35.4897 46.1868 35.4897C46.683 35.4897 47.1859 35.3653 47.6485 35.1029C48.3459 34.7068 48.8491 34.0605 49.0654 33.2824C49.2815 32.5039 49.1849 31.6875 48.7928 30.983C48.4013 30.2786 47.7614 29.7699 46.9907 29.5517Z" fill="#9B4522"/>
</g>
<defs>
<clipPath id="clip0_483_38">
<rect width="28" height="32" fill="white" transform="translate(26 24)"/>
</clipPath>
</defs>
</svg>
