<svg width="80" height="80" viewBox="0 0 80 80" fill="none" xmlns="http://www.w3.org/2000/svg">
<circle cx="40" cy="40" r="40" fill="#EDF8FF"/>
<path d="M57.4386 30.2643C57.1884 28.0774 56.0363 26.2648 54.1932 25.1606C52.9719 24.4293 51.4594 24.028 49.8194 24.0016C48.0809 23.9718 46.224 24.3468 44.2963 25.1114C43.8284 25.2965 43.6128 25.2965 43.145 25.1114C41.2166 24.3468 39.3582 23.9725 37.6212 24.0016C35.9811 24.0287 34.4687 24.4293 33.2473 25.1606C31.4049 26.2648 30.2522 28.0774 30.0033 30.2609C29.9909 30.3656 29.9805 30.4709 29.9721 30.5784C28.5311 31.2389 27.2737 32.3362 26.4225 33.8106C24.3326 37.4309 25.4354 42.0328 28.8506 44.3341L28.0673 45.6913C27.44 45.396 26.6775 45.6255 26.3247 46.2361L22.2392 53.3126C21.7457 54.1687 22.0403 55.2666 22.897 55.7609C23.1682 55.9176 23.4759 56.0001 23.7891 56C24.4095 56 25.0133 55.6784 25.3446 55.1037L29.4266 48.0314C29.6075 47.7195 29.6554 47.3563 29.5625 47.0076C29.4806 46.699 29.291 46.4298 29.0281 46.2486L29.812 44.8914C30.8393 45.3947 31.9463 45.6643 33.0699 45.6927C33.0837 46.2847 33.1059 46.8676 33.1572 47.4429C33.2501 48.4931 33.718 52.0351 35.8321 53.5185C36.7402 54.1555 37.8048 54.3184 38.9964 54.0023C42.1877 53.1532 42.327 50.3029 42.4386 48.0127C42.4483 47.8159 42.458 47.6197 42.4691 47.4263C42.5329 46.3117 42.6521 45.3142 42.8226 44.4617C43.1935 42.6061 43.6017 42.168 43.7057 42.0841C43.8811 42.2054 44.3393 42.8688 44.6789 44.7826C44.8231 45.5901 44.9229 46.5127 44.9777 47.5233C44.9867 47.6814 44.9943 47.8401 45.0019 48.0002C45.1135 50.296 45.2522 53.1532 48.4449 54.0023C48.8386 54.107 49.2184 54.159 49.5837 54.159C50.3226 54.159 51.0012 53.9448 51.6091 53.5185C53.724 52.0351 54.1912 48.4931 54.284 47.4429C54.3582 46.6035 54.3728 45.762 54.388 44.8713C54.4081 43.711 54.4282 42.5118 54.5869 41.2399C54.8032 39.5035 55.4402 37.9924 56.0558 36.5305C56.9049 34.5141 57.7069 32.6107 57.4386 30.2643ZM27.3839 34.3658C28.1498 33.0391 29.3122 32.0326 30.7097 31.4663C30.9717 31.3602 31.2413 31.2674 31.5186 31.1932C32.0968 31.0376 32.6929 30.9586 33.2917 30.9582C34.4714 30.9582 35.6366 31.268 36.6861 31.8739C38.2616 32.7833 39.388 34.2521 39.8594 36.0093C40.33 37.7664 40.0881 39.6019 39.1787 41.1775C38.2693 42.7523 36.8005 43.8787 35.044 44.3494C34.5795 44.474 34.1032 44.5495 33.623 44.5746C33.6195 44.5746 33.6168 44.574 33.6133 44.574H33.6036C33.5828 44.5746 33.5627 44.576 33.5433 44.5788C32.2707 44.6301 31.007 44.3209 29.8772 43.668C26.6249 41.7909 25.5068 37.6181 27.3839 34.3658ZM28.4666 47.4734C28.4666 47.4741 28.4659 47.4741 28.4659 47.4748L24.3832 54.5485C24.1953 54.8743 23.7774 54.9866 23.4516 54.7988C23.1258 54.6109 23.0135 54.1929 23.2007 53.8672L27.2854 46.7921C27.3291 46.7165 27.4123 46.6735 27.4955 46.6735C27.535 46.6735 27.5752 46.6832 27.6112 46.704L28.3793 47.149C28.4534 47.192 28.4805 47.2586 28.4902 47.2939C28.4999 47.3293 28.5096 47.4 28.4666 47.4734ZM55.0327 36.098C54.3873 37.6292 53.7205 39.2124 53.4848 41.1012C53.3192 42.4321 53.2984 43.6618 53.2776 44.8505C53.263 45.7211 53.2485 46.5432 53.1778 47.3431C53.0079 49.259 52.3397 51.6477 50.9707 52.6077C50.3344 53.0541 49.601 53.158 48.7291 52.9272C46.3203 52.2861 46.2184 50.1775 46.1096 47.9441C46.102 47.7819 46.0937 47.6204 46.0853 47.461C46.0285 46.4053 45.9231 45.4376 45.7713 44.5857C45.3457 42.1888 44.6526 40.9681 43.7113 40.9584H43.6988C42.8053 40.9584 42.1801 42.0023 41.733 44.2419C41.5521 45.1451 41.4266 46.1946 41.3594 47.3605C41.3476 47.5573 41.3379 47.7562 41.3282 47.9573C41.2194 50.1844 41.1168 52.2881 38.7094 52.9279C37.8367 53.1594 37.1041 53.0548 36.4677 52.6084C35.0994 51.6483 34.4305 49.2597 34.2607 47.3438C34.2122 46.7907 34.1907 46.2223 34.1768 45.6407C34.5622 45.5957 34.9476 45.5236 35.3296 45.4217C37.3723 44.8741 39.0803 43.564 40.138 41.7327C41.1958 39.9 41.4765 37.7657 40.9296 35.7223C40.382 33.6782 39.0712 31.9702 37.2392 30.9125C35.3178 29.8034 33.1205 29.5941 31.1366 30.1514C31.4 28.4233 32.3448 26.9954 33.8171 26.1137C36.0553 24.7731 39.3055 24.7835 42.7353 26.1442C43.4707 26.4353 43.9677 26.4353 44.7039 26.1442C48.1322 24.7842 51.3825 24.7731 53.6214 26.1137C55.1609 27.0363 56.1244 28.555 56.3344 30.3912C56.5715 32.4478 55.8242 34.2209 55.0327 36.098ZM54.544 30.5957C54.6188 31.2535 54.5627 31.9321 54.3735 32.6738C54.3429 32.7931 54.2736 32.899 54.1763 32.9746C54.0791 33.0503 53.9595 33.0915 53.8363 33.0918C53.7905 33.0918 53.7448 33.0862 53.6983 33.0744C53.4016 32.9982 53.2221 32.696 53.2977 32.3993C53.455 31.7824 53.5008 31.25 53.4412 30.7225C53.3753 30.1562 53.1888 29.671 52.8873 29.2801C52.2163 28.4122 51.0858 27.9936 49.5255 28.0338C49.2219 28.0428 48.964 27.8002 48.9557 27.4938C48.9474 27.1874 49.1893 26.9323 49.4957 26.924C51.4033 26.8734 52.8776 27.4536 53.7649 28.6015C54.1932 29.1539 54.4546 29.8249 54.544 30.5957Z" fill="#9B4522"/>
</svg>
