<svg width="80" height="80" viewBox="0 0 80 80" fill="none" xmlns="http://www.w3.org/2000/svg">
<circle cx="40" cy="40" r="40" fill="#EDF8FF"/>
<path d="M29.6264 39.5906C30.0118 40.2593 30.19 40.6232 30.0328 41.5782C29.8968 42.4013 29.8179 43.2069 29.7971 43.974C29.7895 44.2644 29.5512 44.4947 29.2622 44.4947H29.2474C29.1055 44.4909 28.9709 44.4308 28.8732 44.3278C28.7755 44.2247 28.7228 44.0871 28.7265 43.9452C28.7483 43.1296 28.8324 42.2748 28.9758 41.4043C29.078 40.7839 29.0126 40.6705 28.6982 40.1252L28.6052 39.963C27.0932 37.3077 26.5303 34.3769 26.932 31.251C26.97 30.9587 27.2365 30.7503 27.5317 30.7888C27.8252 30.8261 28.032 31.095 27.9944 31.3879C27.6229 34.2777 28.1416 36.9847 29.5356 39.4327L29.6264 39.5906ZM52.4639 30.7887C52.1707 30.8261 51.9636 31.0949 52.0012 31.3878C52.3726 34.2777 51.8539 36.9846 50.4601 39.4327L50.369 39.5912C49.9837 40.2597 49.8054 40.6231 49.963 41.5786C50.0989 42.4013 50.1778 43.2069 50.1986 43.9739C50.2061 44.2643 50.4444 44.4947 50.7337 44.4947H50.7482C50.8902 44.4908 51.0248 44.4308 51.1225 44.3277C51.2202 44.2247 51.273 44.087 51.2692 43.9451C51.2473 43.1295 51.1632 42.2748 51.0198 41.4043C50.9177 40.7842 50.9828 40.671 51.2971 40.1259L51.3906 39.9629C52.9027 37.3077 53.4653 34.3769 53.0635 31.2509C53.0545 31.1812 53.0319 31.1139 52.9969 31.0529C52.962 30.9919 52.9153 30.9384 52.8596 30.8955C52.8039 30.8525 52.7403 30.821 52.6724 30.8027C52.6045 30.7843 52.5337 30.7796 52.4639 30.7887ZM36.646 43.5791C36.4355 43.7866 36.434 44.1261 36.642 44.3362C36.8499 44.5461 37.1894 44.5487 37.3993 44.34C38.8319 42.9228 41.1637 42.9221 42.5964 44.34C42.6965 44.4395 42.8319 44.4951 42.973 44.4947C43.1112 44.4947 43.249 44.4418 43.3537 44.3362C43.5617 44.1261 43.56 43.7866 43.3498 43.5784C41.5013 41.7502 38.4943 41.7502 36.646 43.5791ZM48.5095 32.3433C49.6695 33.7476 48.5658 36.8355 47.8201 38.2719C47.8089 38.2937 47.7961 38.3146 47.7818 38.3345C47.1669 39.2046 46.9481 40.4542 47.1315 42.0477C47.2602 42.6813 47.3626 43.3021 47.4361 43.8933C47.4725 44.1869 47.2643 44.4544 46.971 44.4909C46.9487 44.4935 46.9264 44.4948 46.904 44.4947C46.6377 44.4947 46.4069 44.2964 46.3733 44.0256C46.3076 43.4973 46.2151 42.9416 46.1029 42.375C46.0901 42.3615 46.0761 42.3497 46.0648 42.3343C44.6305 40.4533 42.362 39.33 39.9958 39.33C37.5961 39.33 35.312 40.4772 33.8782 42.3996C33.7753 42.931 33.6836 43.4991 33.6181 44.0257C33.5815 44.319 33.3208 44.5276 33.0205 44.491C32.7273 44.4546 32.5189 44.187 32.5555 43.8934C32.6353 43.2577 32.7386 42.6252 32.8651 41.9971C33.0381 40.4276 32.8176 39.1954 32.2092 38.3346C32.195 38.3147 32.1822 38.2938 32.1709 38.2721C31.4255 36.8356 30.3216 33.7477 31.4817 32.3434C32.0639 31.6385 33.0446 31.4822 34.3959 31.8772C36.2402 32.2298 38.1137 32.4074 39.9915 32.4075H39.9998C41.8733 32.4075 43.7554 32.2296 45.5953 31.8772C46.9458 31.4821 47.9272 31.6384 48.5095 32.3433ZM47.4501 36.4426H32.5411C32.6253 36.6766 32.7172 36.9079 32.8164 37.136H47.1748C47.2741 36.9079 47.3659 36.6766 47.4501 36.4426ZM47.7719 35.3716C47.8267 35.1427 47.8705 34.9113 47.9031 34.6782H32.0881C32.1206 34.9113 32.1644 35.1427 32.2192 35.3716H47.7719ZM32.3075 33.0253C32.1891 33.1686 32.1132 33.368 32.0737 33.6072H47.9173C47.8779 33.368 47.8022 33.1686 47.6835 33.0253C47.3271 32.5933 46.5023 32.7246 45.8737 32.9114C45.8568 32.9164 45.8397 32.9206 45.8225 32.924C43.9036 33.2926 41.954 33.4783 40.0001 33.4785H39.9914C38.0373 33.4783 36.0876 33.2926 34.1686 32.924C34.1514 32.9206 34.1343 32.9164 34.1175 32.9114C33.4884 32.7246 32.6637 32.5927 32.3075 33.0253ZM34.8142 39.9739H33.9191C33.9501 40.1994 33.9719 40.4325 33.9817 40.6743C34.2443 40.4237 34.5224 40.1898 34.8142 39.9739ZM39.9958 38.259C41.1251 38.259 42.2341 38.486 43.263 38.9045C43.2676 38.9045 43.2721 38.9029 43.2767 38.9029H46.3193C46.4015 38.6592 46.4954 38.4252 46.6096 38.2071H33.3812C33.4954 38.4251 33.5898 38.6592 33.6722 38.9029H36.7166C36.72 38.9029 36.723 38.9039 36.7266 38.9039C37.7545 38.486 38.863 38.259 39.9958 38.259ZM46.01 40.6776C46.0198 40.4345 46.041 40.2004 46.0719 39.9738H45.1743C45.4669 40.1901 45.7454 40.4254 46.01 40.6776ZM56.6015 30.7803V44.4987C56.6015 45.3087 55.9425 45.9671 55.1324 45.9671H51.1871C50.7833 49.7214 48.9057 52.7899 45.5914 55.0905C45.3889 55.2296 45.1491 55.3042 44.9034 55.3045C44.7057 55.3044 44.5111 55.2559 44.3364 55.1634C44.1408 55.06 43.9773 54.905 43.8638 54.7151C43.7503 54.5252 43.6911 54.3077 43.6927 54.0865V46.9665C43.6923 46.6286 43.6458 46.2924 43.5543 45.9671H36.4406C36.349 46.2923 36.3026 46.6286 36.3027 46.9665V54.0896C36.3039 54.3104 36.2445 54.5273 36.131 54.7166C36.0174 54.906 35.8541 55.0605 35.6588 55.1634C35.4841 55.2564 35.2892 55.3051 35.0913 55.3051C34.847 55.305 34.6084 55.231 34.4069 55.0928C31.0904 52.7899 29.2123 49.7202 28.8088 45.9672H24.8679C24.0578 45.9672 23.3989 45.3088 23.3989 44.4988V30.7803C23.3989 29.9703 24.0578 29.3117 24.8679 29.3117H27.3082C27.3448 29.1684 27.3793 29.0257 27.4195 28.883C27.4237 28.8683 27.4285 28.8536 27.434 28.8395C28.2249 26.7426 29.3895 25.4254 30.8952 24.9235C32.6425 24.3413 34.8369 24.8745 37.4196 26.5083C39.0592 27.1298 40.9356 27.1298 42.5766 26.5083C45.1597 24.8745 47.3542 24.3413 49.1006 24.9235C50.6063 25.4254 51.7707 26.743 52.5615 28.8395C52.5668 28.8536 52.5719 28.8678 52.5759 28.8824C52.6163 29.0251 52.6503 29.1684 52.6868 29.3117H55.1324C55.9425 29.3117 56.6015 29.9703 56.6015 30.7803ZM28.414 29.3117H51.5811C51.5708 29.2728 51.5624 29.2343 51.5514 29.1962C50.8806 27.4286 49.9421 26.3331 48.7622 25.9396C47.3266 25.4614 45.4232 25.9663 43.1054 27.441C43.0758 27.4595 43.0444 27.4759 43.0115 27.4884C42.053 27.8594 41.0389 28.0478 39.9977 28.0478C38.9562 28.0478 37.9425 27.8594 36.9845 27.4884C36.9517 27.4757 36.9202 27.4598 36.8905 27.441C34.573 25.9668 32.6706 25.4614 31.2337 25.9396C30.0537 26.3331 29.115 27.4286 28.4439 29.1957C28.4331 29.2343 28.4247 29.2728 28.414 29.3117ZM35.3413 45.9671H29.8855C30.2816 49.347 32.0029 52.1198 35.015 54.2106C35.0554 54.2385 35.1112 54.2418 35.1571 54.2172C35.1799 54.2053 35.1988 54.1874 35.212 54.1654C35.2252 54.1434 35.232 54.1181 35.2317 54.0925V46.9665C35.2317 46.6281 35.2714 46.2941 35.3413 45.9671ZM50.1107 45.9671H44.6544C44.7243 46.2948 44.7637 46.628 44.7637 46.9665V54.0896C44.7634 54.1448 44.7917 54.1928 44.8381 54.2172C44.8839 54.2411 44.9402 54.2385 44.9837 54.2083C47.9925 52.1198 49.7142 49.3476 50.1107 45.9671ZM55.5303 30.7803C55.5302 30.6748 55.4882 30.5737 55.4136 30.4991C55.339 30.4246 55.2379 30.3827 55.1324 30.3827H24.8679C24.7624 30.3827 24.6613 30.4246 24.5867 30.4991C24.5121 30.5737 24.4701 30.6748 24.47 30.7803V44.4987C24.4701 44.6042 24.5121 44.7053 24.5867 44.7799C24.6613 44.8544 24.7624 44.8963 24.8679 44.8964H55.1324C55.2379 44.8963 55.339 44.8544 55.4136 44.7799C55.4882 44.7053 55.5302 44.6042 55.5303 44.4987V30.7803Z" fill="#9B4522"/>
</svg>
