<svg width="80" height="80" viewBox="0 0 80 80" fill="none" xmlns="http://www.w3.org/2000/svg">
<circle cx="40" cy="40" r="40" fill="#EDF8FF"/>
<path fill-rule="evenodd" clip-rule="evenodd" d="M33.5709 58.0005C32.8863 58.0005 32.2489 57.6766 31.8345 57.0956C31.416 56.5083 31.0218 55.904 30.6527 55.2844C29.0268 52.5569 28.6191 49.3712 28.1875 45.9984C28.0716 45.0922 27.9517 44.1552 27.806 43.207C27.6876 42.4366 27.3509 41.6324 26.9944 40.7811C26.5056 39.6135 26 38.406 26 37.1299V37.0851C26.002 35.2841 26.5395 33.5467 27.5544 32.0604C28.5731 30.5688 29.998 29.4403 31.6751 28.7971C32.632 28.4302 33.6176 28.2441 34.6044 28.2441C35.553 28.2441 36.5474 28.482 37.56 28.951C38.12 29.2103 38.6901 29.5398 39.2851 29.9486C39.4557 30.0659 39.658 30.1287 39.8651 30.1287C40.0722 30.1287 40.2744 30.0659 40.4451 29.9486C41.04 29.5398 41.6102 29.2103 42.1702 28.951C43.1828 28.4819 44.1773 28.2441 45.1257 28.2441C46.1126 28.2441 47.098 28.4302 48.0548 28.7971C49.732 29.4404 51.1569 30.5688 52.1755 32.0604C53.1904 33.5467 53.7278 35.2842 53.7299 37.0849V37.13C53.7299 38.4061 53.2243 39.6136 52.7354 40.7812C52.379 41.6325 52.0423 42.4367 51.9239 43.2071C51.7782 44.1553 51.6584 45.0923 51.5424 45.9985C51.1108 49.3712 50.7031 52.5569 49.0772 55.2844C48.7082 55.9039 48.314 56.508 47.8957 57.0953C47.4812 57.6762 46.8436 58.0002 46.1591 58.0003C45.9966 58.0003 45.8315 57.982 45.6661 57.9446C44.799 57.7485 44.1642 57.0832 44.0095 56.2083C43.4083 52.8074 42.7021 49.947 41.9672 47.936C41.5711 46.8521 41.1702 46.0211 40.7755 45.4664C40.4413 44.9967 40.118 44.738 39.8649 44.738C39.6119 44.738 39.2884 44.9967 38.9542 45.4665C38.5595 46.0212 38.1586 46.8523 37.7625 47.9361C37.0278 49.947 36.3216 52.8075 35.7204 56.2085C35.5657 57.0834 34.9311 57.7487 34.0639 57.9448C33.9021 57.9816 33.7368 58.0003 33.5709 58.0005ZM39.8652 31.5179C39.6421 31.5179 39.4253 31.4442 39.2475 31.3096C37.5245 30.0043 36.0032 29.369 34.6045 29.369C33.7559 29.369 32.9059 29.53 32.078 29.8474C29.119 30.9821 27.1285 33.8912 27.1251 37.0862V37.13C27.1251 38.1802 27.5862 39.2816 28.0322 40.3468C28.3992 41.2233 28.7786 42.1296 28.918 43.0363C29.0658 43.9984 29.1866 44.9426 29.3035 45.8557C29.7379 49.2504 30.1131 52.182 31.6192 54.7084C31.9724 55.3015 32.3498 55.88 32.7503 56.4422C32.999 56.7908 33.3975 56.9422 33.8161 56.8476C34.2396 56.7518 34.5375 56.4397 34.613 56.0127C35.2255 52.548 35.9493 49.6217 36.7063 47.5501C37.1369 46.3716 37.5849 45.4511 38.038 44.8143C38.6051 44.0172 39.22 43.6131 39.8654 43.6131C40.5108 43.6131 41.1255 44.0172 41.6926 44.8143C42.1457 45.4511 42.5937 46.3715 43.0243 47.55C43.7813 49.6217 44.5051 52.5479 45.1176 56.0125C45.1931 56.4396 45.4911 56.7517 45.9145 56.8474C46.3331 56.942 46.7316 56.7906 46.9803 56.4421C47.3808 55.8798 47.7581 55.3015 48.1113 54.7084C49.6174 52.1821 49.9924 49.2504 50.4268 45.8558C50.5437 44.9427 50.6645 43.9985 50.8124 43.0364C50.9517 42.1297 51.3311 41.2234 51.6981 40.3469C52.1441 39.2817 52.6052 38.1803 52.6052 37.13V37.0865C52.6017 33.8913 50.6114 30.9822 47.6524 29.8475C46.8246 29.53 45.9746 29.3691 45.126 29.3691C43.7273 29.3691 42.2059 30.0044 40.483 31.3097C40.3052 31.4444 40.0883 31.5175 39.8652 31.5179Z" fill="#9B4522"/>
<path fill-rule="evenodd" clip-rule="evenodd" d="M32.9391 52.0605C32.8212 52.0604 32.7063 52.0233 32.6106 51.9544C32.5149 51.8855 32.4433 51.7883 32.4059 51.6765C31.8113 49.9001 31.5442 47.8131 31.2614 45.6034C31.143 44.6778 31.0206 43.7212 30.869 42.7347C30.693 41.5885 30.2467 40.5228 29.853 39.5826C29.4653 38.6566 29.0991 37.7818 29.0991 37.1283V37.0871C29.1018 34.7028 30.5828 32.5337 32.7846 31.6893C33.3943 31.4555 33.9896 31.3418 34.6041 31.3418C35.6146 31.3418 36.8216 31.906 38.2943 33.0668L39.2432 33.8149C39.4203 33.9545 39.6393 34.0304 39.8649 34.0304C40.0904 34.0304 40.3094 33.9545 40.4866 33.8149L41.4355 33.0669C42.908 31.9062 44.1151 31.3419 45.1255 31.3419C45.74 31.3419 46.3351 31.4556 46.9449 31.6894C49.1465 32.5337 50.6277 34.7028 50.6302 37.0868V37.1285C50.6302 37.782 50.264 38.6567 49.8763 39.5826C49.4826 40.5231 49.0364 41.5888 48.8602 42.735C48.7085 43.722 48.5862 44.6786 48.4678 45.6037C48.185 47.8138 47.918 49.9004 47.3236 51.6764C47.2847 51.7925 47.2089 51.8928 47.1078 51.9619C47.0068 52.0311 46.8859 52.0654 46.7635 52.0596C46.6412 52.0537 46.5241 52.0082 46.43 51.9297C46.336 51.8513 46.2701 51.7443 46.2423 51.6251C45.8115 49.768 45.3526 48.1685 44.8785 46.871C44.3803 45.5078 43.8644 44.4603 43.3011 43.6685C42.1069 41.9897 40.7733 41.6373 39.8649 41.6373C38.9565 41.6373 37.6229 41.9897 36.4286 43.6685C35.8654 44.4602 35.3494 45.5078 34.8513 46.8711C34.3772 48.1685 33.9184 49.7682 33.4874 51.6254C33.4597 51.7448 33.3938 51.8518 33.2998 51.9302C33.2057 52.0087 33.0886 52.0543 32.9662 52.0601C32.957 52.0602 32.9481 52.0605 32.9391 52.0605ZM39.8648 35.4628C39.6393 35.4628 39.4202 35.3869 39.2431 35.2472L37.5978 33.9503C36.0422 32.7241 35.1111 32.4668 34.6041 32.4668C34.1298 32.4668 33.6663 32.556 33.1874 32.7397C31.417 33.4186 30.2262 35.1661 30.224 37.0881V37.1287C30.224 37.5559 30.5782 38.4019 30.8907 39.1483C31.3094 40.1482 31.7839 41.2815 31.981 42.564C32.1347 43.5646 32.258 44.5283 32.3773 45.4602C32.5515 46.822 32.7113 48.0709 32.9347 49.2158C33.213 48.2027 33.5005 47.2891 33.7943 46.4848C34.3276 45.0256 34.8893 43.891 35.5116 43.0162C36.9839 40.9465 38.6914 40.5122 39.8646 40.5122C41.0377 40.5122 42.7452 40.9466 44.2174 43.0162C44.8398 43.8911 45.4015 45.0257 45.9347 46.4847C46.2286 47.289 46.5161 48.2024 46.7944 49.2154C47.0176 48.071 47.1774 46.8225 47.3516 45.4615C47.4709 44.5287 47.5943 43.565 47.7481 42.564C47.9452 41.2815 48.4197 40.148 48.8384 39.1482C49.1509 38.4017 49.5051 37.5558 49.5051 37.1283V37.0879C49.503 35.166 48.3123 33.4185 46.5418 32.7396C46.0629 32.556 45.5997 32.4668 45.1253 32.4668C44.6182 32.4668 43.6872 32.7242 42.1317 33.9503L40.4864 35.2472C40.3093 35.3869 40.0903 35.4628 39.8648 35.4628Z" fill="#9B4522"/>
<path fill-rule="evenodd" clip-rule="evenodd" d="M32.9397 52.0589C32.7926 52.0589 32.6513 52.0012 32.5463 51.8982C32.4412 51.7953 32.3806 51.6552 32.3776 51.5081C32.3766 51.4614 32.2894 46.7653 33.0404 41.2809C33.4829 38.0498 34.1256 35.1762 34.9509 32.7399C35.9955 29.6562 37.3415 27.258 38.9512 25.612C40.7379 23.7853 42.8675 22.8572 45.2811 22.8535H45.282C45.4312 22.8534 45.5743 22.9126 45.6799 23.018C45.7854 23.1234 45.8448 23.2664 45.8449 23.4156C45.845 23.5648 45.7858 23.7079 45.6804 23.8135C45.575 23.919 45.432 23.9784 45.2828 23.9785C43.1829 23.9817 41.3234 24.7957 39.7561 26.3979C37.0636 29.1504 35.1275 34.344 34.1571 41.4174C33.4163 46.8171 33.5013 51.4388 33.5023 51.4849C33.5054 51.634 33.449 51.7783 33.3458 51.8859C33.2425 51.9935 33.1007 52.0557 32.9515 52.0588L32.9397 52.0589Z" fill="#9B4522"/>
<path fill-rule="evenodd" clip-rule="evenodd" d="M49.1824 24.8345H46.1365C45.355 24.8345 44.7192 24.1987 44.7192 23.4172C44.7192 22.6357 45.3551 22 46.1365 22H49.1824C49.964 22 50.5997 22.6357 50.5997 23.4172C50.5997 24.1987 49.9639 24.8345 49.1824 24.8345ZM46.1365 23.1249C45.978 23.1249 45.8441 23.2587 45.8441 23.4171C45.8441 23.5756 45.978 23.7095 46.1365 23.7095H49.1824C49.3409 23.7095 49.4747 23.5756 49.4747 23.4171C49.4747 23.2586 49.3408 23.1249 49.1824 23.1249H46.1365Z" fill="#9B4522"/>
</svg>
