<svg width="80" height="80" viewBox="0 0 80 80" fill="none" xmlns="http://www.w3.org/2000/svg">
<circle cx="40" cy="40" r="40" fill="#EDF8FF"/>
<path d="M47.621 51.2143C46.9468 54.5173 46.9921 54.9422 46.3293 55.4748C46.0921 55.6681 45.8098 55.7982 45.5088 55.8531C45.2077 55.9079 44.8977 55.8856 44.6076 55.7884C44.3175 55.6911 44.0567 55.522 43.8495 55.2967C43.6424 55.0715 43.4956 54.7975 43.4229 54.5003L42.3974 50.3022C42.2917 49.8681 42.0432 49.4821 41.6919 49.206C41.3405 48.93 40.9067 48.7799 40.4598 48.7799C40.013 48.7799 39.5792 48.93 39.2278 49.206C38.8765 49.4821 38.628 49.8681 38.5222 50.3022L37.4968 54.5003C37.3987 54.8994 37.1679 55.2534 36.8422 55.5041C36.5165 55.7549 36.1152 55.8875 35.7043 55.8802C35.2933 55.873 34.897 55.7263 34.5804 55.4643C34.2637 55.2022 34.0455 54.8403 33.9615 54.438C32.7491 48.6026 32.6188 46.376 30.6246 43.9569C29.9684 43.1577 29.5103 42.2147 29.2875 41.2049C29.0647 40.1951 29.0836 39.147 29.3425 38.1458C29.6015 37.1447 30.0933 36.2189 30.7778 35.4438C31.4623 34.6687 32.3202 34.0662 33.2817 33.6854C33.5505 34.3569 33.9946 34.9439 34.5677 35.3851C34.6849 35.4797 34.8349 35.524 34.9848 35.508C35.1346 35.4921 35.2719 35.4173 35.3666 35.3001C35.4612 35.1829 35.5055 35.0329 35.4895 34.8831C35.4736 34.7333 35.3988 34.5959 35.2816 34.5013C34.7356 34.1162 34.3584 33.5361 34.2278 32.8809C34.2179 32.7995 34.1904 32.7212 34.1473 32.6514C34.1042 32.5816 34.0464 32.5221 33.978 32.4768C33.9095 32.4316 33.8321 32.4017 33.751 32.3893C33.6699 32.3769 33.5871 32.3823 33.5083 32.405C32.29 32.7674 31.1803 33.4256 30.278 34.3208C29.3758 35.2161 28.709 36.3206 28.3371 37.536C27.9653 38.7515 27.8999 40.04 28.1467 41.2868C28.3936 42.5337 28.9451 43.7001 29.7521 44.6821C31.5254 46.8293 31.6047 48.6479 32.8511 54.6646C32.9895 55.3179 33.3458 55.9048 33.8615 56.329C34.3773 56.7533 35.0218 56.9898 35.6896 56.9996C36.3573 57.0095 37.0086 56.7922 37.5367 56.3834C38.0647 55.9746 38.4382 55.3985 38.5959 54.7496L39.6213 50.5515C39.6544 50.3499 39.758 50.1667 39.9136 50.0344C40.0693 49.9022 40.2669 49.8296 40.4712 49.8296C40.6754 49.8296 40.873 49.9022 41.0287 50.0344C41.1844 50.1667 41.288 50.3499 41.321 50.5515L42.3238 54.7496C42.4432 55.2313 42.6821 55.6751 43.0185 56.04C43.3549 56.4049 43.7779 56.6791 44.2483 56.8373C44.7188 56.9954 45.2215 57.0323 45.71 56.9447C46.1985 56.8571 46.657 56.6477 47.0431 56.3359C48.0289 55.5371 48.0119 54.9422 48.7428 51.4183C48.7562 51.3446 48.7549 51.2691 48.7391 51.1959C48.7233 51.1227 48.6932 51.0534 48.6506 50.9918C48.608 50.9303 48.5537 50.8777 48.4907 50.8372C48.4278 50.7966 48.3575 50.7688 48.2839 50.7554C48.2102 50.742 48.1346 50.7433 48.0615 50.7591C47.9883 50.7749 47.9189 50.805 47.8574 50.8476C47.7958 50.8902 47.7433 50.9445 47.7027 51.0075C47.6622 51.0704 47.6344 51.1407 47.621 51.2143Z" fill="#9B4522"/>
<path d="M47.3943 32.405C47.3166 32.3851 47.2356 32.3819 47.1565 32.3956C47.0775 32.4094 47.0023 32.4398 46.9359 32.4848C46.8695 32.5297 46.8134 32.5883 46.7713 32.6566C46.7292 32.7249 46.7021 32.8014 46.6918 32.8809C46.3915 35.2831 41.2529 36.9997 37.1285 35.504C36.9884 35.4578 36.8359 35.468 36.7032 35.5325C36.5706 35.597 36.4683 35.7106 36.4181 35.8493C36.368 35.988 36.3739 36.1408 36.4346 36.2752C36.4953 36.4096 36.606 36.515 36.7432 36.5691C41.0773 38.1384 46.5728 36.6314 47.6549 33.6854C48.6198 34.0666 49.4805 34.6711 50.1667 35.4492C50.8529 36.2273 51.3449 37.1569 51.6025 38.1618C51.8601 39.1667 51.8759 40.2184 51.6486 41.2306C51.4214 42.2429 50.9575 43.1868 50.295 43.9852C49.638 44.7857 49.1104 45.6842 48.7314 46.648C48.705 46.7175 48.6925 46.7916 48.6947 46.866C48.6969 46.9404 48.7138 47.0136 48.7443 47.0814C48.7748 47.1493 48.8184 47.2105 48.8726 47.2615C48.9267 47.3125 48.9904 47.3524 49.06 47.3788C49.1295 47.4052 49.2036 47.4177 49.278 47.4154C49.3524 47.4132 49.4256 47.3964 49.4934 47.3659C49.5613 47.3354 49.6225 47.2918 49.6735 47.2376C49.7245 47.1834 49.7644 47.1198 49.7908 47.0502C50.1239 46.1941 50.5883 45.3951 51.1675 44.682C51.9743 43.6989 52.5252 42.5313 52.771 41.2835C53.0168 40.0357 52.9499 38.7464 52.5763 37.5307C52.2027 36.3151 51.5339 35.2108 50.6297 34.3164C49.7255 33.422 48.614 32.7653 47.3943 32.405ZM39.8932 28.1219V31.8725L38.5958 30.5694C38.543 30.5166 38.4803 30.4747 38.4113 30.4461C38.3423 30.4175 38.2683 30.4028 38.1936 30.4028C38.1189 30.4028 38.0449 30.4175 37.9759 30.4461C37.9069 30.4747 37.8442 30.5166 37.7913 30.5694C37.7385 30.6222 37.6966 30.6849 37.668 30.754C37.6394 30.823 37.6247 30.8969 37.6247 30.9716C37.6247 31.0463 37.6394 31.1203 37.668 31.1893C37.6966 31.2584 37.7385 31.3211 37.7913 31.3739C40.2615 33.8384 40.0972 33.6967 40.2445 33.759C40.726 33.963 40.7827 33.7137 43.1282 31.3739C43.2349 31.2672 43.2948 31.1225 43.2948 30.9716C43.2948 30.8208 43.2349 30.6761 43.1282 30.5694C43.0215 30.4627 42.8768 30.4028 42.726 30.4028C42.5751 30.4028 42.4304 30.4627 42.3237 30.5694L41.0263 31.8555V28.1219C46.9241 27.8556 48.703 23.7652 47.4056 23.3629C47.0092 23.236 46.6012 23.1487 46.1876 23.1023C46.1132 23.0934 46.0377 23.0992 45.9656 23.1194C45.8934 23.1397 45.826 23.1739 45.767 23.2202C45.7081 23.2665 45.6589 23.3239 45.6222 23.3893C45.5855 23.4546 45.562 23.5265 45.553 23.6009C45.5441 23.6753 45.5499 23.7507 45.5701 23.8229C45.5904 23.895 45.6246 23.9625 45.6709 24.0214C45.7172 24.0803 45.7746 24.1296 45.84 24.1663C45.9053 24.203 45.9772 24.2265 46.0516 24.2354C46.2216 24.2354 46.3859 24.2864 46.5502 24.3204C45.9383 25.8161 43.3718 26.9888 40.4598 26.9888C37.5477 26.9888 34.9813 25.8161 34.3694 24.2921C35.5203 24.0535 36.7142 24.1298 37.8253 24.513C40.862 25.5555 42.9243 24.479 43.9724 24.2751C44.1226 24.2465 44.2554 24.1595 44.3414 24.033C44.4275 23.9066 44.4598 23.7511 44.4313 23.6009C44.4027 23.4506 44.3157 23.3179 44.1892 23.2318C44.0628 23.1457 43.9073 23.1134 43.7571 23.142C42.5107 23.3743 40.8564 24.3374 38.1992 23.4196C36.6883 22.8974 35.0518 22.8617 33.5196 23.3176C32.2562 23.7312 33.9105 27.833 39.8932 28.1219ZM48.6464 48.4722C48.4961 48.4722 48.352 48.5319 48.2458 48.6382C48.1395 48.7444 48.0798 48.8885 48.0798 49.0388C48.0798 49.189 48.1395 49.3331 48.2458 49.4394C48.352 49.5456 48.4961 49.6053 48.6464 49.6053C48.7966 49.6053 48.9407 49.5456 49.047 49.4394C49.1532 49.3331 49.2129 49.189 49.2129 49.0388C49.2129 48.8885 49.1532 48.7444 49.047 48.6382C48.9407 48.5319 48.7966 48.4722 48.6464 48.4722Z" fill="#9B4522"/>
</svg>
