<svg width="80" height="80" viewBox="0 0 80 80" fill="none" xmlns="http://www.w3.org/2000/svg">
<circle cx="40" cy="40" r="40" fill="#EDF8FF"/>
<path d="M55.3592 33.7539C54.8078 33.9347 54.2246 33.998 53.6472 33.9398C55.963 31.7413 57.0916 30.0369 56.9945 28.8705C56.9791 28.6422 56.9089 28.421 56.79 28.2255C56.671 28.0301 56.5068 27.8661 56.3112 27.7474C54.6074 26.6676 50.1764 28.2185 46.6947 29.7435C46.1925 29.636 45.6805 29.5814 45.1669 29.5806C44.2155 29.5806 43.2848 29.76 42.4014 30.1131L41.9111 30.3095C41.4092 30.5089 40.879 30.6277 40.34 30.6615C40.1133 30.0252 39.6955 29.4745 39.1439 29.0847C38.5922 28.6949 37.9336 28.485 37.2581 28.4839C37.0042 28.4839 36.7481 28.5157 36.4936 28.5787C36.187 28.2056 35.8014 27.9051 35.3646 27.699C34.9278 27.4929 34.4507 27.3864 33.9677 27.3871C33.1564 27.385 32.3737 27.6871 31.7742 28.2338C31.1747 27.6871 30.392 27.385 29.5806 27.3871C29.1326 27.3876 28.6894 27.4796 28.2781 27.6573C27.8668 27.835 27.4962 28.0948 27.1887 28.4207C26.8813 28.7466 26.6436 29.1318 26.4901 29.5527C26.3367 29.9737 26.2708 30.4215 26.2964 30.8688C26.2815 30.8737 26.2689 30.882 26.2541 30.8875C26.1762 30.5183 25.9739 30.187 25.681 29.9492C25.3882 29.7113 25.0225 29.5812 24.6452 29.5806C23.7381 29.5806 23 30.3188 23 31.2258C23.0006 31.6029 23.1305 31.9683 23.368 32.2611C23.6055 32.554 23.9363 32.7565 24.3052 32.8348C24.1691 33.1971 24.0985 33.5807 24.0968 33.9677C24.0968 34.9548 24.5355 35.8723 25.2884 36.4936C25.2259 36.7436 25.194 37.0003 25.1935 37.2581C25.1935 38.9444 26.4696 40.3367 28.1066 40.5248C28.1768 40.6915 28.2431 40.8604 28.3232 41.0227C25.7556 43.1642 22.892 45.978 23.0038 47.8019C23.0137 48.0368 23.0814 48.2657 23.201 48.4681C23.3206 48.6705 23.4883 48.8403 23.6893 48.9623C24.071 49.2041 24.6062 49.3165 25.2659 49.3165C26.8524 49.3165 29.1666 48.6596 31.8038 47.5979C32.5082 49.6203 32.8689 51.7464 32.871 53.8879V54.2581C32.871 55.77 34.101 57 35.6129 57C37.1248 57 38.3548 55.77 38.3548 54.2581V49.871C38.3548 48.9639 39.093 48.2258 40 48.2258C40.907 48.2258 41.6452 48.9639 41.6452 49.871V54.2581C41.6452 55.77 42.8752 57 44.3871 57C45.899 57 47.129 55.77 47.129 54.2581V53.8879C47.129 50.9634 47.8156 48.0531 49.1038 45.4285C49.6527 45.6945 50.2406 45.8974 50.8603 46.0213L50.9677 46.0432L51.0752 46.0213C54.5087 45.3353 57 42.2955 57 38.7946V33.2071L55.3592 33.7539ZM55.7239 28.6736C55.8402 28.7471 55.8895 28.8277 55.901 28.9615C55.9553 29.619 55.0494 31.1825 52.3842 33.6157C52.1555 33.5198 51.936 33.4035 51.7284 33.268L51.5002 33.1155C50.7262 31.8699 49.603 30.8793 48.2702 30.2672C52.6995 28.4499 55.0499 28.247 55.7239 28.6736ZM50.4194 44.7765C47.8414 43.9621 46.0323 41.5465 46.0323 38.7941V34.7278L46.2291 34.7936C47.61 35.2537 49.146 35.104 50.4194 34.4108V44.7765ZM42.3191 31.3278L42.8094 31.132C43.5629 30.8304 44.3558 30.678 45.1674 30.678C47.1729 30.678 49.0615 31.6481 50.2515 33.2384L50.2071 33.268C49.6778 33.6175 49.0763 33.8427 48.4476 33.9268C47.819 34.011 47.1794 33.9518 46.5768 33.7539L44.9355 33.2071V38.7946C44.9355 38.9564 44.9465 39.1155 44.9569 39.275C44.4628 39.6024 43.9626 39.9304 43.4439 40.2588C39.4302 42.8012 35.6041 44.7924 32.4224 46.1507C31.9942 45.1041 31.4795 44.0951 30.8836 43.134L29.6854 41.2174C29.5321 40.97 29.3928 40.7142 29.2681 40.4513C29.9514 40.2841 30.5624 39.9003 31.0097 39.3573C31.5266 39.4853 32.0671 39.4836 32.5832 39.3523C33.0992 39.2211 33.5748 38.9643 33.9677 38.6049C34.5673 39.1516 35.3499 39.4537 36.1613 39.4516C36.8423 39.4521 37.5065 39.2406 38.0618 38.8465C38.6172 38.4523 39.036 37.895 39.2602 37.252C41.1533 37.3705 42.7419 35.8454 42.7419 33.9677C42.7413 33.5111 42.6451 33.0596 42.4595 32.6423C42.274 32.2251 42.0031 31.8513 41.6644 31.545C41.8854 31.4835 42.1042 31.4134 42.3191 31.3278ZM24.0968 31.2258C24.0968 30.9236 24.343 30.6774 24.6452 30.6774C24.9473 30.6774 25.1935 30.9236 25.1935 31.2258C25.1935 31.528 24.9473 31.7742 24.6452 31.7742C24.343 31.7742 24.0968 31.528 24.0968 31.2258ZM26.2903 37.2581C26.2903 37.002 26.3413 36.7398 26.4411 36.4783L26.6018 36.0587L26.2218 35.8185C25.9074 35.6226 25.6481 35.35 25.4682 35.0262C25.2883 34.7024 25.1938 34.3381 25.1935 33.9677C25.1934 33.4531 25.3749 32.9549 25.706 32.561C26.0372 32.167 26.4968 31.9026 27.0038 31.8142L27.5681 31.7144L27.4436 31.1551C27.4072 30.9984 27.3883 30.8382 27.3871 30.6774C27.3871 29.4677 28.3709 28.4839 29.5806 28.4839C30.2733 28.4839 30.9127 28.8085 31.3344 29.375L31.7742 29.9651L32.214 29.375C32.4156 29.099 32.6795 28.8744 32.9842 28.7196C33.289 28.5647 33.6259 28.484 33.9677 28.4839C34.3381 28.4841 34.7024 28.5787 35.0262 28.7585C35.35 28.9384 35.6226 29.1977 35.8185 29.5121L36.0587 29.8921L36.4783 29.7315C37.8196 29.2187 39.173 30.0835 39.4105 31.3755L39.479 31.7473L39.8508 31.8159C40.3544 31.908 40.8097 32.1738 41.1376 32.5669C41.4654 32.9601 41.645 33.4558 41.6452 33.9677C41.6452 35.1775 40.6614 36.1613 39.4516 36.1613C39.2908 36.1601 39.1306 36.1412 38.974 36.1048L38.4146 35.9803L38.3148 36.5446C38.2265 37.0516 37.962 37.5112 37.5681 37.8423C37.1741 38.1735 36.6759 38.355 36.1613 38.3548C35.8195 38.3547 35.4825 38.274 35.1778 38.1191C34.8731 37.9643 34.6092 37.7397 34.4075 37.4637L33.9677 36.8736L33.5279 37.4637C32.9499 38.2397 31.9628 38.5747 30.9938 38.204L30.5743 38.0434L30.3341 38.4234C30.1384 38.7378 29.8659 38.9972 29.5421 39.1771C29.2184 39.357 28.8542 39.4515 28.4839 39.4516C27.2741 39.4516 26.2903 38.4678 26.2903 37.2581ZM24.2761 48.0361C24.222 48.0067 24.1769 47.9631 24.1456 47.9101C24.1143 47.8571 24.098 47.7966 24.0984 47.735C24.0513 46.9634 25.2923 45.0084 28.8765 41.9912L29.9535 43.7148C30.5177 44.6242 31.0049 45.5792 31.4101 46.5697C27.7666 48.0328 25.1223 48.5718 24.2761 48.0361ZM46.0323 53.8879V54.2581C46.0323 55.1651 45.2941 55.9032 44.3871 55.9032C43.4801 55.9032 42.7419 55.1651 42.7419 54.2581V49.871C42.7419 48.3591 41.5119 47.129 40 47.129C38.4881 47.129 37.2581 48.3591 37.2581 49.871V54.2581C37.2581 55.1651 36.5199 55.9032 35.6129 55.9032C34.7059 55.9032 33.9677 55.1651 33.9677 54.2581V53.8879C33.9677 51.5885 33.5718 49.3231 32.8194 47.1767C36.373 45.655 40.4009 43.4845 44.0312 41.1851C44.4096 40.9454 44.7699 40.7063 45.1356 40.4672C45.559 42.2604 46.6356 43.8314 48.1551 44.8735C46.7645 47.6754 46.0382 50.76 46.0323 53.8879ZM55.9032 38.7946C55.9032 41.5465 54.0941 43.9621 51.5161 44.777V34.4119C52.7889 35.1045 54.325 35.2543 55.7064 34.7947L55.9032 34.7284V38.7946ZM25.1935 27.3871C26.4033 27.3871 27.3871 26.4033 27.3871 25.1935C27.3871 23.9838 26.4033 23 25.1935 23C23.9838 23 23 23.9838 23 25.1935C23 26.4033 23.9838 27.3871 25.1935 27.3871ZM25.1935 24.0968C25.7984 24.0968 26.2903 24.5887 26.2903 25.1935C26.2903 25.7984 25.7984 26.2903 25.1935 26.2903C24.5887 26.2903 24.0968 25.7984 24.0968 25.1935C24.0968 24.5887 24.5887 24.0968 25.1935 24.0968Z" fill="#9B4522"/>
<path d="M30.677 34.519C30.677 33.6119 29.9389 32.8738 29.0319 32.8738C28.1248 32.8738 27.3867 33.6119 27.3867 34.519C27.3867 35.426 28.1248 36.1641 29.0319 36.1641C29.9389 36.1641 30.677 35.426 30.677 34.519ZM28.4835 34.519C28.4835 34.2168 28.7297 33.9706 29.0319 33.9706C29.334 33.9706 29.5803 34.2168 29.5803 34.519C29.5803 34.8211 29.334 35.0673 29.0319 35.0673C28.7297 35.0673 28.4835 34.8211 28.4835 34.519ZM33.419 32.8738C34.326 32.8738 35.0641 32.1357 35.0641 31.2286C35.0641 30.3216 34.326 29.5835 33.419 29.5835C32.5119 29.5835 31.7738 30.3216 31.7738 31.2286C31.7738 32.1357 32.5119 32.8738 33.419 32.8738ZM33.419 30.6803C33.7211 30.6803 33.9674 30.9265 33.9674 31.2286C33.9674 31.5308 33.7211 31.777 33.419 31.777C33.1168 31.777 32.8706 31.5308 32.8706 31.2286C32.8706 30.9265 33.1168 30.6803 33.419 30.6803ZM37.8061 27.3899C38.7131 27.3899 39.4512 26.6518 39.4512 25.7448C39.4512 24.8377 38.7131 24.0996 37.8061 24.0996C36.899 24.0996 36.1609 24.8377 36.1609 25.7448C36.1609 26.6518 36.899 27.3899 37.8061 27.3899ZM37.8061 25.1964C38.1082 25.1964 38.3545 25.4426 38.3545 25.7448C38.3545 26.0469 38.1082 26.2932 37.8061 26.2932C37.5039 26.2932 37.2577 26.0469 37.2577 25.7448C37.2577 25.4426 37.5039 25.1964 37.8061 25.1964ZM36.7093 36.1641C37.6163 36.1641 38.3545 35.426 38.3545 34.519C38.3545 33.6119 37.6163 32.8738 36.7093 32.8738C35.8023 32.8738 35.0641 33.6119 35.0641 34.519C35.0641 35.426 35.8023 36.1641 36.7093 36.1641ZM36.7093 33.9706C37.0115 33.9706 37.2577 34.2168 37.2577 34.519C37.2577 34.8211 37.0115 35.0673 36.7093 35.0673C36.4071 35.0673 36.1609 34.8211 36.1609 34.519C36.1609 34.2168 36.4071 33.9706 36.7093 33.9706Z" fill="#9B4522"/>
</svg>
