<svg width="80" height="80" viewBox="0 0 80 80" fill="none" xmlns="http://www.w3.org/2000/svg">
<circle cx="40" cy="40" r="40" fill="#EDF8FF"/>
<path d="M52.3822 25.7905C52.3159 25.6629 52.2017 25.5669 52.0647 25.5235C51.9276 25.4802 51.7789 25.4931 51.6513 25.5593C51.5238 25.6256 51.4277 25.7398 51.3844 25.8768C51.341 26.0139 51.3539 26.1626 51.4201 26.2902C52.1273 27.6513 52.2757 29.2158 51.8383 30.6949C51.6638 31.2861 50.1313 36.4767 50.0644 36.7345C50.0511 36.7858 50.0051 36.8219 49.9529 36.8219H37.1626C37.0914 36.8219 37.0209 36.8359 36.9552 36.8631C36.8894 36.8904 36.8296 36.9303 36.7793 36.9806C36.729 37.0309 36.689 37.0907 36.6618 37.1565C36.6346 37.2222 36.6206 37.2927 36.6206 37.3639C36.6206 37.5077 36.6777 37.6455 36.7794 37.7472C36.881 37.8488 37.0189 37.9059 37.1626 37.9059H48.3083L48.0071 39.5621C48.0023 39.5886 47.9883 39.6125 47.9676 39.6297C47.9469 39.647 47.9209 39.6564 47.894 39.6564H32.2773C32.2216 39.6564 32.1743 39.6168 32.1644 39.5621L31.8629 37.9059H34.8023C34.9461 37.9059 35.0839 37.8488 35.1856 37.7472C35.2872 37.6455 35.3443 37.5077 35.3443 37.3639C35.3443 37.2202 35.2872 37.0823 35.1856 36.9807C35.0839 36.879 34.9461 36.8219 34.8023 36.8219H30.2183C30.1661 36.8219 30.12 36.7861 30.1068 36.7347C30.1053 36.7291 30.1037 36.7234 30.1023 36.7178L28.3329 30.6949C27.7974 28.8838 28.1384 26.9775 29.2687 25.4645C30.3989 23.9517 32.1302 23.084 34.0187 23.084C34.5777 23.0836 35.1339 23.1621 35.6709 23.3172C38.5546 24.1536 41.6166 24.1536 44.5002 23.3172C45.0373 23.1621 45.5935 23.0836 46.1524 23.084C47.6054 23.084 48.9996 23.6113 50.0787 24.5688C50.1863 24.6643 50.3273 24.7131 50.4708 24.7046C50.6143 24.696 50.7486 24.6309 50.844 24.5234C50.9394 24.4158 50.9882 24.2748 50.9796 24.1312C50.9711 23.9877 50.9058 23.8535 50.7983 23.7581C49.5206 22.6244 47.8708 22 46.1524 22C45.4915 21.9996 44.8338 22.0924 44.1988 22.2758C41.512 23.0552 38.6591 23.0552 35.9724 22.2758C35.3374 22.0924 34.6797 21.9996 34.0187 22C31.785 22 29.737 23.0264 28.4001 24.8158C27.0632 26.6052 26.6598 28.8601 27.2933 31.0013L29.0601 37.0162C29.1283 37.2713 29.2788 37.4968 29.4882 37.6576C29.6976 37.8185 29.9542 37.9058 30.2183 37.9059H30.7611L31.0979 39.756C31.148 40.0323 31.2935 40.2822 31.5091 40.4621C31.7246 40.642 31.9965 40.7405 32.2773 40.7404H34.6392L35.022 44.0374L34.64 44.1396C34.4455 44.1911 34.2632 44.2807 34.1036 44.4032C33.9439 44.5257 33.8102 44.6787 33.7101 44.8532C33.609 45.0272 33.5435 45.2194 33.5172 45.4189C33.4909 45.6183 33.5045 45.821 33.5571 46.0151C33.7403 46.6985 34.3605 47.1502 35.0366 47.1502C35.152 47.1499 35.2669 47.1365 35.3793 47.1104L35.5741 48.7875L35.0575 48.9261C34.242 49.1446 33.7562 49.9858 33.9747 50.8016C34.1579 51.4847 34.7781 51.9367 35.4541 51.9367C35.5851 51.9367 35.7178 51.9197 35.8501 51.8841L35.9312 51.8625L36.126 53.5378L35.6837 53.6563C35.2884 53.7622 34.9584 54.0157 34.7538 54.37C34.6528 54.5439 34.5873 54.7362 34.5611 54.9356C34.5349 55.1351 34.5485 55.3377 34.6011 55.5319C34.7066 55.9268 34.9601 56.257 35.3143 56.4617C35.5462 56.5962 35.8094 56.6672 36.0775 56.6675C36.2104 56.6675 36.3445 56.6499 36.4763 56.6147L36.4833 56.6127L36.6309 57.8833C36.7047 58.5198 37.2437 59 37.8849 59H42.2865C42.9273 59 43.4665 58.5198 43.5405 57.8833L43.9196 54.6203L44.4878 54.4679C45.303 54.2494 45.7889 53.4082 45.5703 52.5926C45.405 51.9756 44.883 51.548 44.2855 51.4706L44.507 49.5646L45.1139 49.402C45.9291 49.1838 46.415 48.3423 46.1965 47.5268C46.0277 46.8968 45.4877 46.464 44.8746 46.4002L45.0945 44.5091L45.5312 44.3923C46.347 44.1735 46.8325 43.3323 46.614 42.5168C46.4601 41.9429 45.9981 41.533 45.4535 41.4162L45.5323 40.7406H47.8939C48.4737 40.7406 48.9697 40.3266 49.0735 39.7563L49.4103 37.9059H49.9529C50.4991 37.9059 50.9764 37.5361 51.1137 37.0069C51.1613 36.8228 52.1947 33.3151 52.8779 31.0024C53.3951 29.253 53.2192 27.4021 52.3822 25.7905ZM42.4635 57.7579C42.4585 57.8013 42.4377 57.8414 42.4051 57.8705C42.3725 57.8996 42.3303 57.9157 42.2865 57.9157H37.8846C37.8409 57.9157 37.7987 57.8996 37.766 57.8705C37.7334 57.8414 37.7126 57.8014 37.7075 57.7579L37.5416 56.329L42.7933 54.9218L42.4635 57.7579ZM44.5231 52.873C44.5872 53.1113 44.4452 53.3568 44.2069 53.4209L36.1957 55.5674C36.139 55.5828 36.0798 55.5868 36.0216 55.5791C35.9633 55.5715 35.9072 55.5523 35.8564 55.5228C35.8054 55.4936 35.7607 55.4546 35.725 55.408C35.6892 55.3613 35.6631 55.3081 35.6481 55.2513C35.6326 55.1946 35.6286 55.1354 35.6363 55.0771C35.6439 55.0189 35.6631 54.9627 35.6927 54.912C35.7219 54.861 35.7609 54.8163 35.8076 54.7805C35.8542 54.7447 35.9074 54.7184 35.9642 54.7033L43.9755 52.5568C44.0901 52.5262 44.2121 52.5423 44.3148 52.6016C44.4175 52.6609 44.4924 52.7585 44.5232 52.873H44.5231ZM43.1732 51.6496L37.1843 53.2544L36.9897 51.5787L43.3804 49.8663L43.1732 51.6496ZM45.1495 47.8071C45.18 47.9217 45.1638 48.0437 45.1045 48.1464C45.0452 48.2492 44.9476 48.3242 44.833 48.355L35.5696 50.8372C35.455 50.8678 35.3329 50.8517 35.2302 50.7924C35.1275 50.7332 35.0525 50.6355 35.0217 50.521C34.9579 50.2827 35.0999 50.0372 35.3381 49.9731L44.6016 47.4909C44.6393 47.4808 44.6782 47.4757 44.7173 47.4757C44.9149 47.4757 45.0961 47.6075 45.1495 47.8071ZM45.567 42.7971C45.5975 42.9117 45.5814 43.0338 45.522 43.1365C45.4627 43.2392 45.365 43.3142 45.2505 43.345L41.9388 44.2325C41.8701 44.2509 41.8056 44.2827 41.7492 44.326C41.6927 44.3693 41.6453 44.4233 41.6097 44.4849C41.5742 44.5466 41.5511 44.6146 41.5418 44.6852C41.5325 44.7557 41.5373 44.8274 41.5557 44.8962C41.6331 45.1852 41.9301 45.3569 42.2193 45.2795L43.9679 44.8109L43.7607 46.5941L36.6324 48.5041L36.4379 46.8287L39.9377 45.891C40.0766 45.8537 40.195 45.7629 40.2668 45.6384C40.3387 45.5138 40.3582 45.3659 40.321 45.227C40.2437 44.9379 39.9464 44.7663 39.657 44.8436L35.152 46.051C34.9139 46.1148 34.6682 45.9728 34.6042 45.7346C34.5889 45.6779 34.5849 45.6187 34.5926 45.5604C34.6003 45.5022 34.6195 45.446 34.649 45.3952C34.6782 45.3443 34.7173 45.2996 34.7639 45.2638C34.8105 45.2281 34.8638 45.2019 34.9206 45.1869L45.0191 42.4809C45.2574 42.4168 45.5032 42.5591 45.567 42.7971ZM44.3481 41.5384L36.0805 43.7537L35.7304 40.7404H44.441L44.3481 41.5384Z" fill="#9B4522"/>
<path d="M44.1984 25.1698C41.5116 25.9492 38.6587 25.9492 35.972 25.1698C35.6847 25.0869 35.3838 25.2523 35.3007 25.5399C35.2809 25.6083 35.2748 25.6799 35.2826 25.7506C35.2905 25.8214 35.3122 25.8899 35.3465 25.9522C35.3809 26.0145 35.4272 26.0695 35.4827 26.114C35.5383 26.1584 35.6021 26.1915 35.6705 26.2113C37.1144 26.6296 38.5998 26.8387 40.0852 26.8387C41.5706 26.8387 43.056 26.6296 44.4999 26.2113C44.5683 26.1915 44.6321 26.1584 44.6877 26.1139C44.7433 26.0695 44.7895 26.0145 44.8239 25.9522C44.8583 25.8898 44.88 25.8213 44.8879 25.7506C44.8957 25.6798 44.8896 25.6082 44.8698 25.5398C44.85 25.4715 44.8169 25.4077 44.7725 25.3521C44.728 25.2965 44.6731 25.2502 44.6107 25.2158C44.5484 25.1815 44.4799 25.1597 44.4091 25.1519C44.3384 25.144 44.2668 25.1501 44.1984 25.1698Z" fill="#9B4522"/>
</svg>
