<svg width="80" height="80" viewBox="0 0 80 80" fill="none" xmlns="http://www.w3.org/2000/svg">
<circle cx="40" cy="40" r="40" fill="#EDF8FF"/>
<path d="M56.0556 32.6648C52.2992 28.5688 46.0173 22.0307 39.9533 24.569C33.1841 22.0243 27.915 28.7035 23.7163 32.7738C21.4279 34.9467 21.4279 38.8825 23.7163 41.0554L33.4598 50.7216C33.5239 50.7857 33.5816 50.837 33.6457 50.8947C33.8957 53.9971 36.4213 56.529 39.5622 56.6957C40.3763 56.6957 40.4148 55.4714 39.6007 55.4137C36.9918 55.2599 34.9918 53.0741 34.8892 50.5037L33.5687 40.6644C33.3893 39.5747 34.4341 38.6261 35.4982 38.8055C36.12 38.8568 39.7994 39.6452 40.3379 39.4722L44.3634 38.8055C45.4275 38.6261 46.4724 39.5811 46.2993 40.6644C46.2352 41.1388 46.0429 41.799 46.6583 41.9913C47.2032 42.6066 48.2095 42.6451 48.7865 42.0426L50.8826 39.9657C52.5685 38.3632 52.5685 35.4659 50.8826 33.8635C49.0108 32.0238 46.575 29.2227 44.0301 28.4406C43.9211 28.3573 43.7737 28.2868 43.6263 28.2996C41.2353 27.492 38.6264 27.492 36.2354 28.2996C36.0879 28.2868 35.9469 28.3573 35.8379 28.4406C33.2995 29.2162 30.8444 32.0238 28.9791 33.8635C27.2868 35.4659 27.2868 38.3632 28.9791 39.9657L32.6649 43.6194L33.3636 48.8179L24.6137 40.1388C22.8253 38.4402 22.8253 35.3762 24.6137 33.684C28.5624 29.979 33.4341 23.3576 39.6776 25.8446C39.8379 25.9151 40.0174 25.9151 40.1776 25.851C44.3699 24.3319 46.6519 25.9728 50.8377 29.2932C53.1069 31.0944 53.6261 32.0238 55.1518 33.5814C56.9979 35.2993 57.0876 38.3953 55.2543 40.1388L51.2416 44.1194C50.6454 44.7027 51.5492 45.6193 52.1454 45.0296L56.1581 41.049C58.4979 38.8248 58.4017 34.8506 56.0428 32.6584L56.0556 32.6648ZM47.7929 32.5943H44.2929V29.947C45.5942 30.5239 46.7929 31.5302 47.7929 32.5943ZM40.5815 32.5943V28.9919C41.402 29.0432 42.216 29.1906 43.0109 29.4406V32.5943H40.5815ZM36.87 32.5943V29.4406C37.6648 29.1906 38.4789 29.0432 39.2994 28.9919V32.5943H36.87ZM35.5879 29.947V32.5943H32.0816C33.088 31.5302 34.2867 30.5239 35.5879 29.947ZM29.8829 39.0555C28.697 37.9338 28.697 35.9018 29.8829 34.7801L30.7867 33.8827H49.0813L49.9852 34.7865C51.171 35.9082 51.171 37.9402 49.9852 39.0619L47.889 41.1388C47.8057 41.2221 47.7224 41.2029 47.6647 41.1772C47.5429 41.1388 47.5557 40.9593 47.5813 40.8439C47.8826 38.985 46.1455 37.2607 44.2865 37.5364C43.9596 37.5364 39.9853 38.3184 39.7353 38.2158L35.7097 37.5492C35.62 37.5364 35.5302 37.53 35.4405 37.5235C33.1649 37.4082 31.8444 39.4145 32.3829 41.549L29.8765 39.0683L29.8829 39.0555Z" fill="#9B4522"/>
<path d="M50.908 45.3057C43.4851 39.088 33.9083 49.7798 41.2608 56.2346C48.735 62.1254 57.972 51.9271 50.908 45.3057ZM46.0235 56.6833C42.8441 56.741 39.9595 54.0552 39.9339 50.8887C39.8121 47.3248 43.0428 44.4211 46.6261 44.7929C54.2093 45.6454 53.6772 56.5423 46.0235 56.6897V56.6833Z" fill="#9B4522"/>
<path d="M44.7417 51.0234C41.7802 51.1004 41.7866 55.3694 44.7417 55.4463C47.7032 55.3694 47.6968 51.1004 44.7417 51.0234ZM44.7417 54.1643C43.4789 54.1451 43.4789 52.3247 44.7417 52.3054C46.0045 52.3247 46.0045 54.1451 44.7417 54.1643Z" fill="#9B4522"/>
<path d="M48.2673 46.6261C44.8892 46.7158 44.8892 51.5938 48.2673 51.6771C51.6455 51.5874 51.6455 46.7094 48.2673 46.6261ZM48.2673 50.3951C46.5814 50.3631 46.5814 47.9337 48.2673 47.9081C49.9532 47.9401 49.9532 50.3695 48.2673 50.3951ZM44.043 49.4272C45.2225 48.2157 43.4533 46.4786 42.2354 47.6132C41.0559 48.8183 42.8379 50.6066 44.043 49.4272ZM35.5624 44.5364C35.9149 44.498 36.1649 44.1775 36.1265 43.8249L35.7483 40.6392C35.7098 40.2866 35.3893 40.043 35.0367 40.0751C34.6842 40.1136 34.4342 40.4341 34.4727 40.7866L34.8509 43.9723C34.8893 44.3249 35.2162 44.5749 35.5624 44.5364ZM35.8637 47.7222C36.2419 47.7222 36.5495 47.3824 36.4983 47.0042C36.3572 46.4081 36.5816 45.0941 35.6393 45.171C35.2867 45.2095 35.0367 45.53 35.0752 45.8825C35.2162 46.485 35.0047 47.7158 35.8637 47.7222ZM36.088 49.6323C37.2931 49.5298 36.5752 47.767 35.6329 48.5362C35.2355 48.9208 35.5239 49.6516 36.088 49.6323Z" fill="#9B4522"/>
</svg>
