<svg width="80" height="80" viewBox="0 0 80 80" fill="none" xmlns="http://www.w3.org/2000/svg">
<circle cx="40" cy="40" r="40" fill="#EDF8FF"/>
<path d="M56.3877 35.5465H47.2819V34.721H56.3877C56.5487 34.721 56.7031 34.657 56.8169 34.5432C56.9308 34.4293 56.9947 34.2749 56.9947 34.1139C56.9947 33.9529 56.9308 33.7985 56.8169 33.6847C56.7031 33.5708 56.5487 33.5069 56.3877 33.5069H54.2144C55.1372 29.8646 54.2144 26.9568 51.3795 24.8443H51.337C46.0254 21.4387 43.0326 23.5513 41.2479 24.8139C40.8837 25.1291 40.4578 25.3648 39.9974 25.506C39.5369 25.3648 39.111 25.1291 38.7468 24.8139C36.9621 23.5513 33.9633 21.4387 28.6152 24.8139C25.8046 26.9264 24.8576 29.8281 25.7803 33.4765H23.607C23.446 33.4765 23.2916 33.5405 23.1778 33.6543C23.064 33.7681 23 33.9226 23 34.0835C23 34.2445 23.064 34.399 23.1778 34.5128C23.2916 34.6266 23.446 34.6906 23.607 34.6906H32.1057V38.4239C32.1057 38.5849 32.1697 38.7394 32.2835 38.8532C32.3974 38.967 32.5518 39.031 32.7128 39.031H34.5339V39.9901C34.5339 40.1511 34.5979 40.3055 34.7117 40.4194C34.8256 40.5332 34.98 40.5972 35.141 40.5972H44.2467C44.4077 40.5972 44.5621 40.5332 44.676 40.4194C44.7898 40.3055 44.8538 40.1511 44.8538 39.9901V39.0613H46.6749C46.8359 39.0613 46.9903 38.9974 47.1041 38.8835C47.218 38.7697 47.2819 38.6153 47.2819 38.4543V36.7606H56.3877C56.5487 36.7606 56.7031 36.6967 56.8169 36.5828C56.9308 36.469 56.9947 36.3146 56.9947 36.1536C56.9947 35.9926 56.9308 35.8382 56.8169 35.7243C56.7031 35.6105 56.5487 35.5465 56.3877 35.5465ZM34.5339 37.8473H33.3198V32.4202H34.5339V37.8473ZM43.6397 39.3831H35.748V30.8844H43.6397V39.3831ZM46.0679 37.8473H44.8538V32.4202H46.0679V37.8473ZM46.6749 31.2061H44.8538V30.2774C44.8538 30.1164 44.7898 29.962 44.676 29.8481C44.5621 29.7343 44.4077 29.6703 44.2467 29.6703H35.141C34.98 29.6703 34.8256 29.7343 34.7117 29.8481C34.5979 29.962 34.5339 30.1164 34.5339 30.2774V31.2061H32.7128C32.5518 31.2061 32.3974 31.2701 32.2835 31.3839C32.1697 31.4978 32.1057 31.6522 32.1057 31.8132V33.5069H27.0369C26.102 30.2045 26.8669 27.6792 29.3072 25.8459C31.2073 24.6318 32.7128 24.2069 33.9876 24.2069C35.8087 24.2069 37.0228 25.0871 38.0487 25.8095C38.5943 26.2985 39.2722 26.6153 39.9974 26.72C40.7232 26.6136 41.4012 26.2946 41.946 25.8034C43.6821 24.5893 46.0557 22.9017 50.6693 25.8034C53.0975 27.661 53.8866 30.1863 52.9579 33.4826H47.2819V31.8132C47.2819 31.6522 47.218 31.4978 47.1041 31.3839C46.9903 31.2701 46.8359 31.2061 46.6749 31.2061Z" fill="#9B4522"/>
<path d="M52.9821 36.7608L52.8911 36.9489C51.8403 38.905 51.2741 41.0846 51.2399 43.3047C51.1656 45.1408 50.8783 46.962 50.384 48.7318C49.3398 52.4833 45.3151 56.9876 43.5972 56.9876C43.5346 56.9939 43.4715 56.9939 43.409 56.9876C43.29 56.954 43.1791 56.8964 43.0833 56.8182C42.9874 56.7401 42.9086 56.6431 42.8517 56.5333C42.7948 56.4235 42.7611 56.3032 42.7525 56.1798C42.7439 56.0564 42.7608 55.9326 42.8019 55.816C43.7125 50.6682 43.6397 50.3708 43.0326 48.0276C42.7582 46.7904 42.1874 45.6384 41.3693 44.6706C41.1552 44.4421 40.8922 44.2649 40.5999 44.1524C40.3077 44.04 39.9938 43.995 39.6817 44.0211C39.4814 44.0318 39.286 44.087 39.1096 44.1825C38.9332 44.2781 38.7803 44.4116 38.6619 44.5735C37.9287 45.6351 37.3559 46.799 36.9621 48.0276C36.3551 50.3708 36.3004 50.6682 37.2353 55.7917C37.2765 55.9083 37.2933 56.0322 37.2847 56.1555C37.2762 56.2789 37.2424 56.3992 37.1855 56.509C37.1286 56.6188 37.0498 56.7158 36.954 56.7939C36.8581 56.8721 36.7473 56.9297 36.6282 56.9633C35.0378 57.3336 30.7399 52.629 29.6533 48.7318C29.1589 46.962 28.8716 45.1408 28.7973 43.3047C28.7491 41.0831 28.1682 38.9055 27.1036 36.955L27.0126 36.7668H23.607C23.446 36.7668 23.2916 36.7029 23.1778 36.589C23.064 36.4752 23 36.3208 23 36.1598C23 35.9988 23.064 35.8444 23.1778 35.7305C23.2916 35.6167 23.446 35.5527 23.607 35.5527H32.1057V36.7668H28.3602C29.3773 38.7726 29.9253 40.9833 29.9628 43.2319C30.0311 44.9842 30.3061 46.7223 30.7824 48.41C31.7051 51.7306 34.6978 54.7719 35.9423 55.5732C35.0803 50.7957 35.141 50.2251 35.748 47.7362C36.1925 46.373 36.8347 45.0824 37.6542 43.9057C37.8697 43.5924 38.1529 43.3315 38.4828 43.1424C38.8128 42.9532 39.181 42.8407 39.5603 42.813C40.0513 42.7724 40.5453 42.8406 41.0069 43.0126C41.4686 43.1847 41.8867 43.4565 42.2313 43.8086C43.2245 44.9263 43.9179 46.2776 44.2467 47.7362C44.8538 50.2251 44.9327 50.7714 44.0707 55.5671C45.2848 54.7658 48.32 51.7245 49.2306 48.404C49.7068 46.7162 49.9819 44.9781 50.0501 43.2258C50.0876 40.9772 50.6356 38.7665 51.6527 36.7608H52.9821Z" fill="#9B4522"/>
</svg>
