<svg width="80" height="80" viewBox="0 0 80 80" fill="none" xmlns="http://www.w3.org/2000/svg">
<circle cx="40" cy="40" r="40" fill="#EDF8FF"/>
<path d="M32.4997 29.8008C32.1869 29.8008 31.9331 29.5474 31.9331 29.2342C31.9331 28.9209 32.187 28.6675 32.4997 28.6675C34.1379 28.6675 36.422 26.3607 37.1644 25.4711C37.212 25.414 37.2705 25.3668 37.3364 25.3323C37.4022 25.2978 37.4743 25.2765 37.5484 25.2699C37.6225 25.2632 37.6972 25.2712 37.7682 25.2934C37.8392 25.3156 37.9051 25.3515 37.9622 25.3992C38.0776 25.4954 38.15 25.6335 38.1636 25.7831C38.1772 25.9327 38.1308 26.0816 38.0347 26.197C37.7275 26.5658 34.9607 29.8008 32.4997 29.8008ZM48.3658 49.0667C48.2597 49.0666 48.1556 49.0368 48.0656 48.9805L45.1734 47.1735C43.4497 46.0963 42.0512 44.7448 41.017 43.1571C40.0373 41.6532 39.8855 40.7459 39.8712 40.6473C39.8679 40.6207 39.8662 40.5938 39.8661 40.5669V30.934C39.866 30.8042 39.9105 30.6784 39.9921 30.5775C40.0737 30.4767 40.1874 30.4069 40.3143 30.3798L48.2473 28.6799C48.3256 28.6634 48.4065 28.6634 48.4847 28.6799L56.4177 30.3798C56.5445 30.407 56.6581 30.4768 56.7396 30.5777C56.821 30.6786 56.8654 30.8043 56.8653 30.934V40.5669C56.8653 40.5936 56.8637 40.6208 56.8597 40.6473C56.8455 40.7459 56.6942 41.6526 55.714 43.1571C54.6798 44.7448 53.2813 46.0962 51.5576 47.1735L48.6654 48.9805C48.5757 49.0369 48.4718 49.0668 48.3658 49.0667ZM40.9994 40.5148C41.0317 40.6622 41.2187 41.3891 41.9673 42.5378C42.9108 43.9867 44.1919 45.2225 45.7746 46.2119L48.366 47.8314L50.9573 46.2125C52.5399 45.2231 53.8212 43.9867 54.7646 42.5384C55.5081 41.3965 55.6973 40.6712 55.7325 40.5138V31.3925L48.3661 29.8138L40.9997 31.3925V40.5148H40.9994Z" fill="#9B4522"/>
<path d="M48.3659 46.2324C48.2735 46.2324 48.1825 46.2098 48.1007 46.1667L46.4099 45.2708C46.3979 45.264 46.3861 45.2578 46.3747 45.2504C44.9326 44.3482 43.7693 43.228 42.9165 41.9191C42.453 41.2068 42.2456 40.7008 42.1634 40.4627C42.1433 40.403 42.133 40.3404 42.1328 40.2774V32.6329C42.1327 32.5019 42.1781 32.3749 42.2612 32.2736C42.3442 32.1723 42.4599 32.1031 42.5884 32.0776L48.2549 30.9443C48.3282 30.93 48.4036 30.93 48.477 30.9443L54.1434 32.0776C54.2719 32.1031 54.3876 32.1724 54.4707 32.2736C54.5538 32.3749 54.5991 32.5019 54.599 32.6329V40.2775C54.599 40.3404 54.5883 40.4028 54.5679 40.4623C54.4857 40.7009 54.2788 41.2063 53.8147 41.918C52.9625 43.227 51.7992 44.3478 50.3565 45.2499L48.6311 46.1661C48.5495 46.2097 48.4584 46.2324 48.3659 46.2324ZM46.9588 44.2792L48.3658 45.0243L49.7909 44.2689C51.0573 43.4756 52.1039 42.4692 52.8655 41.2996C53.2168 40.7601 53.3897 40.3737 53.4656 40.1776V33.0968L48.3658 32.0769L43.2659 33.0968V40.177C43.3418 40.3737 43.5147 40.7595 43.866 41.2996C44.6248 42.4647 45.6652 43.4667 46.9588 44.2792Z" fill="#9B4522"/>
<path d="M47.7994 40.5652C47.725 40.5652 47.6514 40.5506 47.5826 40.5221C47.5139 40.4936 47.4514 40.4519 47.3988 40.3993L45.6989 38.6993C45.6462 38.6467 45.6044 38.5843 45.5759 38.5155C45.5474 38.4468 45.5327 38.3731 45.5327 38.2987C45.5327 38.2243 45.5474 38.1506 45.5759 38.0818C45.6044 38.0131 45.6462 37.9506 45.6989 37.898C45.7514 37.8454 45.8139 37.8036 45.8826 37.7751C45.9514 37.7466 46.0251 37.7319 46.0995 37.7319C46.1739 37.7319 46.2476 37.7466 46.3164 37.7751C46.3851 37.8036 46.4476 37.8454 46.5001 37.898L47.7678 39.1651L50.7693 35.6633C50.8176 35.6066 50.8767 35.56 50.943 35.5263C51.0094 35.4925 51.0818 35.4722 51.1561 35.4665C51.2303 35.4608 51.305 35.4699 51.3757 35.4931C51.4465 35.5164 51.5119 35.5534 51.5683 35.6021C51.6248 35.6505 51.6712 35.7095 51.7049 35.7758C51.7385 35.8422 51.7588 35.9145 51.7644 35.9886C51.7701 36.0628 51.7611 36.1373 51.738 36.208C51.7148 36.2787 51.678 36.3441 51.6295 36.4005L48.2296 40.367C48.1788 40.4263 48.1163 40.4745 48.046 40.5086C47.9757 40.5426 47.8991 40.5617 47.8211 40.5648C47.8143 40.5652 47.8069 40.5652 47.7994 40.5652Z" fill="#9B4522"/>
<path d="M45.612 56.9994C45.51 56.9994 45.4069 56.9875 45.3038 56.962C45.0872 56.9086 44.8886 56.7988 44.7282 56.6437C44.5679 56.4886 44.4515 56.2938 44.3909 56.0791C43.2463 52.001 40.5281 45.0992 37.5996 45.0992C34.6711 45.0992 31.953 52.0009 30.8089 56.0791C30.7481 56.2937 30.6316 56.4884 30.4713 56.6435C30.311 56.7985 30.1125 56.9084 29.896 56.962C29.4529 57.0719 29.0013 56.9399 28.689 56.6101C26.0405 53.816 26.2564 48.1478 26.2672 47.9076C26.2666 45.9969 26.7982 43.7223 27.2441 42.1562C27.5886 40.9447 27.3619 39.6471 26.6207 38.5954C26.5102 38.4381 26.4025 38.2789 26.2977 38.1177C24.7945 35.8018 24 33.0314 24 30.1064V28.6666C24.0001 24.1842 28.8189 23 31.3665 23C34.5947 23 36.7519 24.4092 37.5996 25.0841C38.4473 24.4092 40.6046 23 43.8327 23C46.3803 23 51.1991 24.1842 51.1991 28.6664V29.7187C51.1992 29.8031 51.1804 29.8865 51.144 29.9627C51.1077 30.0389 51.0547 30.1059 50.989 30.159C50.9234 30.2123 50.8467 30.2501 50.7645 30.2697C50.6823 30.2893 50.5967 30.2902 50.5141 30.2722L48.366 29.8121L40.9996 31.3908V40.5137C41.0318 40.6611 41.2188 41.388 41.9674 42.5367C42.9109 43.9856 44.192 45.2214 45.7748 46.2108L48.5967 47.9742C48.699 48.0185 48.786 48.0919 48.8469 48.1853C48.9077 48.2787 48.9397 48.388 48.9389 48.4994C48.9242 50.1829 48.6585 54.3432 46.5108 56.6093C46.271 56.8633 45.9492 56.9994 45.612 56.9994ZM37.5997 43.966C41.8387 43.966 44.7043 53.0028 45.4818 55.7726C45.4988 55.8338 45.5475 55.8548 45.5752 55.8617C45.6194 55.873 45.6579 55.8622 45.6874 55.8305C47.4644 53.9549 47.7562 50.3097 47.7988 48.8125L45.1735 47.1715C43.4498 46.0943 42.0513 44.7428 41.0171 43.155C40.0375 41.6511 39.8856 40.7439 39.8714 40.6453C39.868 40.619 39.8663 40.5925 39.8662 40.566V30.933C39.8662 30.8033 39.9107 30.6774 39.9922 30.5766C40.0738 30.4757 40.1876 30.4059 40.3144 30.3788L48.2474 28.6789C48.3257 28.6624 48.4066 28.6624 48.4849 28.6789L50.0658 29.0177V28.6664C50.0658 24.1968 44.0865 24.1338 43.8322 24.1332C40.1676 24.1332 38.0206 26.214 37.9991 26.2349C37.8926 26.3404 37.7488 26.3995 37.5989 26.3992C37.449 26.399 37.3053 26.3396 37.199 26.2338C37.1786 26.214 35.0317 24.1332 31.3665 24.1332C31.1126 24.1338 25.1335 24.1967 25.1335 28.6664V30.1063C25.1335 32.8115 25.865 35.3687 27.2481 37.4999C27.3448 37.6495 27.4445 37.7971 27.5473 37.9425C28.4863 39.2753 28.773 40.9242 28.3344 42.4654C27.9083 43.9631 27.4 46.1271 27.4 47.9325C27.3971 48.0112 27.1949 53.3865 29.5114 55.8303C29.5413 55.8621 29.5793 55.8723 29.6241 55.8615C29.6519 55.8541 29.7006 55.8338 29.7176 55.7725C30.4951 53.0028 33.3605 43.966 37.5997 43.966Z" fill="#9B4522"/>
</svg>
