<svg width="80" height="80" viewBox="0 0 80 80" fill="none" xmlns="http://www.w3.org/2000/svg">
<circle cx="40" cy="40" r="40" fill="#EDF8FF"/>
<g clip-path="url(#clip0_515_189)">
<path d="M30.084 38.8904C30.1199 39.3755 30.1532 39.9823 30.1882 40.6201C30.2961 42.5852 30.4303 45.031 30.7603 46.2529C31.3429 48.4017 32.7419 50.6291 34.2181 50.6291C34.2512 50.6291 34.2844 50.6279 34.3176 50.6257C35.4169 50.5506 36.122 49.3677 36.4133 47.1101C36.4431 46.8794 36.4655 46.6151 36.4891 46.3353C36.6278 44.6944 36.8371 43.2101 37.8485 43.0605C38.8599 43.2101 39.0692 44.6945 39.2078 46.3355C39.2314 46.6153 39.2538 46.8794 39.2835 47.11C39.5749 49.3677 40.2801 50.5506 41.3794 50.6256C41.4126 50.6279 41.4457 50.629 41.4789 50.629C42.9549 50.629 44.3541 48.4015 44.9368 46.2524C45.0928 45.6746 45.2153 44.8193 45.3215 43.5453L48.3388 46.5618C48.702 46.9239 49.194 47.1273 49.707 47.1274C50.2199 47.1275 50.712 46.9242 51.0754 46.5622L51.1018 46.5358C51.4642 46.1725 51.6677 45.6804 51.6677 45.1672C51.6677 44.6541 51.4642 44.162 51.1018 43.7987L45.9007 38.5956C47.801 36.5289 47.6725 33.6431 46.4971 31.7471C45.8761 30.7455 44.9967 30.0191 43.9542 29.6464C42.8052 29.2357 41.507 29.2867 40.1995 29.7941C38.4417 30.4769 37.2553 30.4769 35.4974 29.7941C34.1813 29.2832 32.8748 29.2347 31.7205 29.6542C30.6733 30.0345 29.7933 30.7717 29.1759 31.786C27.9623 33.7801 27.9024 36.8296 30.084 38.8904ZM50.4055 44.4953C50.5835 44.6737 50.6835 44.9154 50.6836 45.1674C50.6837 45.4194 50.5838 45.6612 50.4059 45.8397L50.3796 45.866C50.2009 46.0437 49.9592 46.1434 49.7072 46.1434C49.4552 46.1434 49.2135 46.0437 49.0348 45.866L45.2732 42.1053C45.263 42.094 45.2523 42.0833 45.2411 42.0731L43.2393 40.0721C43.1745 40.0072 43.0928 39.9618 43.0036 39.9409C42.9143 39.92 42.821 39.9244 42.7341 39.9536C42.2723 40.1093 41.7778 40.1419 41.2995 40.0483C40.8212 39.9546 40.3755 39.7379 40.0065 39.4195C39.6375 39.101 39.3578 38.6919 39.1951 38.2325C39.0324 37.773 38.9922 37.2791 39.0786 36.7994L40.4404 38.1614C40.4924 38.2132 40.5552 38.2528 40.6244 38.2772C40.6936 38.3017 40.7674 38.3105 40.8403 38.3028L42.2536 38.1534C42.3656 38.1416 42.4701 38.0917 42.5498 38.0121C42.6295 37.9326 42.6794 37.8281 42.6914 37.7162L42.8428 36.3011C42.8507 36.228 42.842 36.154 42.8175 36.0847C42.793 36.0153 42.7533 35.9523 42.7012 35.9003L41.3391 34.5397C41.8188 34.453 42.3128 34.4929 42.7723 34.6554C43.2319 34.8179 43.6411 35.0975 43.9596 35.4665C44.2781 35.8355 44.4949 36.2811 44.5886 36.7595C44.6822 37.2378 44.6495 37.7324 44.4937 38.1942C44.4645 38.2811 44.46 38.3744 44.481 38.4636C44.5019 38.5529 44.5473 38.6345 44.6121 38.6993L50.4055 44.4953ZM30.0169 32.2986C30.8676 30.9005 32.6606 29.7498 35.141 30.7124C37.1146 31.4788 38.5823 31.4792 40.5557 30.7124C43.0166 29.7579 44.8064 30.8895 45.6603 32.2663C46.5284 33.6663 46.7092 35.7162 45.6264 37.3544C45.6355 36.7105 45.4803 36.075 45.1757 35.5077C44.871 34.9404 44.4268 34.4601 43.8851 34.1121C43.3433 33.7641 42.7218 33.5598 42.0792 33.5186C41.4366 33.4774 40.7941 33.6005 40.2123 33.8765C40.1411 33.9103 40.0791 33.9608 40.0314 34.0236C39.9838 34.0864 39.9519 34.1598 39.9385 34.2375C39.9252 34.3152 39.9306 34.395 39.9545 34.4701C39.9784 34.5453 40.02 34.6136 40.0758 34.6693L41.8385 36.4301L41.7541 37.2157L40.9701 37.2986L39.2071 35.5358C39.1514 35.48 39.083 35.4384 39.0078 35.4146C38.9326 35.3907 38.8527 35.3853 38.775 35.3987C38.6972 35.4122 38.6239 35.4441 38.5611 35.4919C38.4982 35.5396 38.4478 35.6018 38.4141 35.6731C38.107 36.3212 37.9901 37.0431 38.077 37.755C38.1639 38.4669 38.451 39.1395 38.905 39.6946C39.359 40.2498 39.9612 40.6648 40.6416 40.8913C41.3221 41.1178 42.0528 41.1466 42.749 40.9743L44.4036 42.6285C44.3274 43.7384 44.2032 45.1929 43.9863 45.9956C43.4042 48.1429 42.1667 49.6923 41.4465 49.6436C41.0353 49.6155 40.5076 48.9022 40.26 46.9841C40.233 46.7751 40.2115 46.5215 40.1888 46.2529C40.0552 44.6687 39.8527 42.2745 37.8985 42.075C37.8652 42.0717 37.8317 42.0717 37.7985 42.075C35.8443 42.2745 35.6419 44.6685 35.5081 46.2527C35.4854 46.5213 35.4639 46.775 35.4368 46.9839C35.1894 48.9019 34.6617 49.6152 34.2504 49.6433C34.2392 49.6441 34.228 49.6445 34.2168 49.6445C33.4937 49.6445 32.2838 48.1096 31.7107 45.9958C31.4077 44.8739 31.2767 42.4853 31.1713 40.5661C31.1311 39.8341 31.0932 39.1427 31.0505 38.6181C31.0401 38.4912 30.9811 38.3732 30.8856 38.289C28.9576 36.5866 28.9892 33.9867 30.0169 32.2986ZM31.0841 36.6701C30.7872 36.1944 30.6051 35.6561 30.5524 35.0979C30.4996 34.5396 30.5776 33.9767 30.7802 33.4538C31.1353 32.5468 31.8337 31.898 32.6962 31.6744C32.7588 31.6582 32.8239 31.6544 32.8879 31.6634C32.952 31.6724 33.0136 31.6938 33.0693 31.7266C33.125 31.7594 33.1738 31.8028 33.2127 31.8544C33.2517 31.906 33.28 31.9648 33.2963 32.0274C33.3125 32.0899 33.3162 32.1551 33.3073 32.2191C33.2983 32.2831 33.2769 32.3448 33.2441 32.4005C33.2113 32.4562 33.1679 32.5049 33.1163 32.5439C33.0647 32.5828 33.0059 32.6112 32.9433 32.6274C32.3818 32.7731 31.9392 33.194 31.697 33.8127C31.5499 34.1904 31.4928 34.5972 31.5302 35.0009C31.5677 35.4045 31.6986 35.7939 31.9126 36.1381C31.9475 36.1925 31.9714 36.2533 31.9828 36.3169C31.9943 36.3805 31.9931 36.4458 31.9793 36.5089C31.9656 36.5721 31.9395 36.6319 31.9026 36.685C31.8657 36.7381 31.8187 36.7834 31.7643 36.8183C31.7099 36.8533 31.6492 36.8771 31.5856 36.8886C31.522 36.9001 31.4567 36.8989 31.3935 36.8851C31.3304 36.8713 31.2705 36.8453 31.2175 36.8084C31.1644 36.7715 31.1191 36.7245 31.0841 36.6701ZM27.9682 27.9687C21.9002 34.0366 21.3013 43.7046 26.5749 50.4573C26.6147 50.5082 26.6441 50.5665 26.6613 50.6288C26.6786 50.6911 26.6834 50.7562 26.6755 50.8204C26.6677 50.8845 26.6472 50.9465 26.6154 51.0028C26.5835 51.059 26.5409 51.1085 26.49 51.1483C26.439 51.1881 26.3807 51.2174 26.3184 51.2347C26.2561 51.252 26.191 51.2568 26.1269 51.2489C26.0627 51.241 26.0007 51.2206 25.9444 51.1887C25.8882 51.1569 25.8387 51.1143 25.799 51.0633C20.2197 43.9193 20.8529 33.6915 27.2719 27.2725C30.206 24.3387 34.0635 22.5084 38.1918 22.0912C42.3201 21.6741 46.4657 22.6957 49.9275 24.9833L49.3174 22.7055C49.3007 22.643 49.2964 22.5779 49.3049 22.5138C49.3133 22.4497 49.3343 22.3879 49.3666 22.3319C49.4319 22.2188 49.5395 22.1363 49.6656 22.1025C49.7917 22.0687 49.9261 22.0864 50.0392 22.1517C50.0952 22.1841 50.1442 22.2271 50.1836 22.2784C50.223 22.3297 50.2518 22.3882 50.2686 22.4507L51.2352 26.0602C51.252 26.1226 51.2562 26.1878 51.2478 26.2519C51.2394 26.316 51.2184 26.3778 51.186 26.4338C51.1537 26.4898 51.1106 26.5388 51.0593 26.5782C51.008 26.6175 50.9495 26.6464 50.887 26.6631L47.2775 27.6298C47.1514 27.6636 47.017 27.6459 46.9039 27.5806C46.7909 27.5153 46.7084 27.4078 46.6746 27.2816C46.6408 27.1555 46.6585 27.0211 46.7238 26.9081C46.7891 26.795 46.8967 26.7125 47.0228 26.6787L49.6409 25.9776C42.95 21.3671 33.7724 22.1624 27.9682 27.9687ZM52.7281 52.7289C49.6198 55.8403 45.4787 57.7042 41.0887 57.9679C40.7251 57.9898 40.3621 58.0007 39.9998 58.0007C36.4699 58.0031 33.0175 56.9663 30.0731 55.0194L30.6828 57.296C30.6995 57.3585 30.7038 57.4236 30.6953 57.4877C30.6869 57.5518 30.6659 57.6136 30.6336 57.6696C30.6013 57.7255 30.5582 57.7746 30.5069 57.814C30.4556 57.8533 30.3971 57.8822 30.3346 57.8989C30.2722 57.9156 30.2071 57.9199 30.143 57.9115C30.0789 57.903 30.0171 57.882 29.9611 57.8497C29.9051 57.8174 29.856 57.7743 29.8167 57.723C29.7773 57.6717 29.7485 57.6132 29.7317 57.5508L28.7648 53.9411C28.7481 53.8787 28.7438 53.8136 28.7522 53.7495C28.7606 53.6854 28.7816 53.6236 28.8139 53.5676C28.8462 53.5116 28.8892 53.4625 28.9405 53.4232C28.9918 53.3838 29.0503 53.3549 29.1127 53.3382L32.7224 52.3696C32.8485 52.3357 32.9829 52.3534 33.096 52.4186C33.2091 52.4838 33.2917 52.5913 33.3255 52.7174C33.3594 52.8435 33.3417 52.9779 33.2765 53.091C33.2113 53.2041 33.1038 53.2867 32.9777 53.3205L30.3577 54.0237C33.6358 56.271 37.5962 57.302 41.554 56.9384C45.5118 56.5748 49.2181 54.8395 52.0318 52.0326C58.0998 45.9646 58.6981 36.2966 53.4231 29.5441C53.3427 29.4412 53.3065 29.3106 53.3224 29.181C53.3384 29.0514 53.4051 28.9334 53.508 28.8531C53.6109 28.7727 53.7415 28.7365 53.8711 28.7524C54.0007 28.7683 54.1186 28.835 54.199 28.9379C59.7797 36.0817 59.1473 46.3095 52.7281 52.7289Z" fill="#9B4522"/>
</g>
<defs>
<clipPath id="clip0_515_189">
<rect width="36" height="36" fill="white" transform="translate(22 22)"/>
</clipPath>
</defs>
</svg>
