<svg width="80" height="80" viewBox="0 0 80 80" fill="none" xmlns="http://www.w3.org/2000/svg">
<circle cx="40" cy="40" r="40" fill="#EDF8FF"/>
<path d="M30.187 31.8299L30.2259 31.791C30.2223 31.791 30.2082 31.8087 30.187 31.8299ZM30.187 31.8299L30.2259 31.791C30.2223 31.791 30.2082 31.8087 30.187 31.8299Z" fill="#9B4522"/>
<path d="M58.1411 38.0402C58.1411 30.9139 51.2478 26.8196 46.2676 30.6351C45.1028 31.521 43.4192 31.521 42.2614 30.6351C40.0308 28.9444 37.1788 28.6903 34.7223 30.0668L33.4798 28.8244C33.1269 28.4679 32.548 28.4679 32.195 28.8244L32.0044 29.0115L25.616 22.6194C24.7865 21.7935 23.4489 21.7935 22.6194 22.6194C21.7935 23.4454 21.7935 24.7866 22.6194 25.6125L29.0115 32.0046L28.8245 32.1917C28.7397 32.2762 28.6725 32.3765 28.6266 32.4871C28.5807 32.5976 28.5571 32.7161 28.5571 32.8358C28.5571 32.9555 28.5807 33.074 28.6266 33.1845C28.6725 33.2951 28.7397 33.3955 28.8245 33.48L30.5857 35.2412C30.6355 35.2904 30.6912 35.3331 30.7516 35.3683C30.5186 36.2119 30.3846 37.1084 30.3846 38.0402C30.3846 40.4932 31.2317 42.7733 32.7741 44.4605C37.2248 49.3596 36.2507 54.3963 36.3848 55.2469C36.3848 56.7646 37.6202 58 39.1449 58C40.5073 58 41.6509 57.0223 41.8627 55.6775L43.1757 47.3795C43.264 46.8395 43.7193 46.4512 44.2593 46.4512C44.7922 46.4512 45.2617 46.8359 45.3464 47.376L46.6629 55.6775C46.8747 57.0223 48.0183 58 49.3807 58C50.8984 58 52.1337 56.7646 52.1337 55.2469C52.2679 54.3822 51.2761 49.3702 55.7516 44.4605C57.2905 42.7733 58.1411 40.4932 58.1411 38.0402ZM33.5576 33.5576L34.7329 32.3787L38.5131 34.14L37.7719 34.8812L36.1906 33.773C36.0318 33.6635 35.8094 33.7024 35.6965 33.8612C35.587 34.02 35.6259 34.2424 35.7847 34.3518L37.2672 35.3895L36.5789 36.0778L35.2765 34.7754C35.1389 34.6378 34.913 34.6378 34.7753 34.7754C34.7426 34.8081 34.7166 34.8469 34.6989 34.8896C34.6812 34.9322 34.6721 34.978 34.6721 35.0242C34.6721 35.0705 34.6812 35.1162 34.6989 35.1589C34.7166 35.2016 34.7426 35.2404 34.7753 35.2731L36.0777 36.5755L35.3894 37.2637L34.3729 35.8095C34.3464 35.771 34.3126 35.7382 34.2734 35.7129C34.2341 35.6876 34.1902 35.6703 34.1443 35.6621C34.0983 35.6539 34.0512 35.6549 34.0056 35.6651C33.96 35.6752 33.9169 35.6943 33.8788 35.7212C33.7199 35.8342 33.6811 36.053 33.7941 36.2119L34.8811 37.7719L34.1399 38.5131L32.3822 34.7329L33.5576 33.5576ZM30.1868 31.8316C30.208 31.8105 30.2221 31.7928 30.2256 31.7928L30.1868 31.8316ZM29.5126 31.5069L23.1206 25.1149C22.57 24.5643 22.5664 23.6713 23.1206 23.1171C23.6712 22.57 24.5642 22.5665 25.1148 23.1171L31.5069 29.5092L29.5126 31.5069ZM51.4278 55.2468C51.4278 56.3763 50.5101 57.294 49.3806 57.294C48.3676 57.294 47.517 56.5669 47.3582 55.568L46.0452 47.2664C45.904 46.3947 45.1522 45.7452 44.2592 45.7452C43.3698 45.7452 42.6215 46.384 42.4803 47.2664L41.1637 55.568C41.0084 56.5669 40.1577 57.294 39.1378 57.294C38.0083 57.294 37.0906 56.3763 37.0906 55.2468C36.953 54.3786 37.966 49.123 33.2928 43.984C31.8951 42.4521 31.0904 40.2814 31.0904 38.0402C31.0904 37.1401 31.2245 36.2825 31.4574 35.4741C31.5986 35.4388 31.7328 35.3682 31.8492 35.2623L33.7129 39.2685C33.8152 39.4908 34.1082 39.5438 34.2846 39.3708C35.9791 37.6734 37.6745 35.9768 39.3707 34.2812C39.5437 34.1082 39.4908 33.8153 39.2684 33.7129L35.2623 31.8458C35.594 31.4929 35.5905 30.9317 35.2446 30.5857C37.4188 29.4527 39.886 29.7175 41.8343 31.1963C43.2603 32.287 45.2615 32.2905 46.6945 31.1963C51.223 27.7268 57.435 31.5104 57.435 38.0402C57.435 40.2814 56.6303 42.4486 55.229 43.984C50.556 49.1124 51.5619 54.3963 51.4278 55.2468Z" fill="#9B4522"/>
<path d="M46.0111 34.0854C45.0463 35.0498 43.477 35.0498 42.5126 34.0854C42.4798 34.0526 42.4409 34.0266 42.3981 34.0089C42.3553 33.9912 42.3094 33.982 42.263 33.982C42.2167 33.982 42.1708 33.9912 42.128 34.0089C42.0852 34.0266 42.0463 34.0526 42.0135 34.0854C41.9807 34.1182 41.9547 34.1571 41.937 34.1999C41.9192 34.2427 41.9101 34.2886 41.9101 34.335C41.9101 34.3813 41.9192 34.4272 41.937 34.47C41.9547 34.5128 41.9807 34.5517 42.0135 34.5845C43.2532 35.8245 45.2701 35.8244 46.5102 34.5845C46.543 34.5517 46.569 34.5128 46.5868 34.47C46.6045 34.4272 46.6136 34.3813 46.6136 34.335C46.6136 34.2886 46.6045 34.2427 46.5868 34.1999C46.569 34.1571 46.543 34.1182 46.5102 34.0854C46.4775 34.0526 46.4386 34.0266 46.3958 34.0089C46.3529 33.9912 46.307 33.982 46.2607 33.982C46.2143 33.982 46.1685 33.9912 46.1256 34.0089C46.0828 34.0266 46.0439 34.0526 46.0111 34.0854ZM40.4842 28.4436H42.263C42.4579 28.4436 42.6159 28.2857 42.6159 28.0906C42.6159 27.8955 42.4578 27.7377 42.263 27.7377H40.4842C40.2893 27.7377 40.1313 27.8955 40.1313 28.0906C40.1313 28.2857 40.2894 28.4436 40.4842 28.4436ZM41.0563 24.3253C41.0235 24.2925 40.9846 24.2665 40.9418 24.2488C40.899 24.2311 40.8531 24.2219 40.8067 24.2219C40.7604 24.2219 40.7145 24.2311 40.6717 24.2488C40.6289 24.2665 40.5899 24.2925 40.5572 24.3253L39.2994 25.583C39.2332 25.6492 39.196 25.739 39.196 25.8326C39.196 25.9262 39.2332 26.016 39.2994 26.0821C39.3656 26.1483 39.4554 26.1855 39.549 26.1855C39.6426 26.1855 39.7323 26.1483 39.7985 26.0821L41.0563 24.8244C41.0891 24.7916 41.1151 24.7527 41.1328 24.7099C41.1506 24.6671 41.1597 24.6212 41.1597 24.5748C41.1597 24.5285 41.1506 24.4826 41.1328 24.4398C41.1151 24.397 41.0891 24.3581 41.0563 24.3253ZM36.938 23.1186V24.8971C36.938 25.0922 37.096 25.2501 37.2909 25.2501C37.4858 25.2501 37.6438 25.0922 37.6438 24.8971V23.1186C37.6438 22.9235 37.4858 22.7656 37.2909 22.7656C37.096 22.7656 36.938 22.9235 36.938 23.1186ZM24.8338 35.6227H23.0551C22.8601 35.6227 22.7021 35.7806 22.7021 35.9757C22.7021 36.1708 22.8602 36.3286 23.0551 36.3286H24.8338C25.0288 36.3286 25.1868 36.1708 25.1868 35.9757C25.1868 35.7806 25.0288 35.6227 24.8338 35.6227ZM24.2618 39.741C24.2945 39.7738 24.3334 39.7998 24.3763 39.8175C24.4191 39.8353 24.465 39.8444 24.5113 39.8444C24.5577 39.8444 24.6036 39.8353 24.6464 39.8175C24.6892 39.7998 24.7281 39.7738 24.7609 39.741L26.0187 38.4832C26.0514 38.4505 26.0774 38.4115 26.0952 38.3687C26.1129 38.3259 26.122 38.28 26.122 38.2337C26.122 38.1873 26.1129 38.1414 26.0952 38.0986C26.0774 38.0558 26.0514 38.0169 26.0187 37.9841C25.9859 37.9513 25.947 37.9253 25.9042 37.9076C25.8613 37.8899 25.8155 37.8807 25.7691 37.8807C25.7228 37.8807 25.6769 37.8899 25.634 37.9076C25.5912 37.9253 25.5523 37.9513 25.5196 37.9841L24.2618 39.2419C24.229 39.2747 24.203 39.3136 24.1852 39.3564C24.1675 39.3992 24.1584 39.4451 24.1584 39.4915C24.1584 39.5378 24.1675 39.5837 24.1852 39.6265C24.203 39.6693 24.229 39.7082 24.2618 39.741ZM28.3801 40.9478V39.1692C28.3801 39.1228 28.371 39.0769 28.3533 39.0341C28.3355 38.9913 28.3095 38.9524 28.2767 38.9196C28.244 38.8868 28.2051 38.8608 28.1622 38.8431C28.1194 38.8253 28.0735 38.8162 28.0272 38.8162C27.9808 38.8162 27.9349 38.8253 27.8921 38.8431C27.8492 38.8608 27.8103 38.8868 27.7776 38.9196C27.7448 38.9523 27.7188 38.9913 27.701 39.0341C27.6833 39.0769 27.6742 39.1228 27.6742 39.1692V40.9478C27.6742 41.1428 27.8323 41.3007 28.0272 41.3007C28.222 41.3007 28.3801 41.1428 28.3801 40.9478Z" fill="#9B4522"/>
</svg>
