<svg width="80" height="80" viewBox="0 0 80 80" fill="none" xmlns="http://www.w3.org/2000/svg">
<circle cx="40" cy="40" r="40" fill="#EDF8FF"/>
<path fill-rule="evenodd" clip-rule="evenodd" d="M35.7887 58.9931C33.8289 58.9931 31.3569 55.051 30.9338 52.0221C30.377 48.0133 31.3792 48.9264 29.3303 44.8731C25.2103 36.7663 31.2233 31.4212 39.6415 35.4746C48.0597 31.4212 54.095 36.7663 49.975 44.8731C47.9261 48.9042 48.9283 47.991 48.3715 52.0221C47.9261 55.2738 44.9864 59.8616 42.893 58.8594C41.8018 58.3472 41.4232 56.5209 41.4232 56.1201V51.3095C41.4232 47.5456 37.8822 47.4565 37.8822 51.3095L37.8599 56.2537C37.7708 56.9664 37.2809 58.9931 35.7887 58.9931ZM34.1853 34.9623C29.2412 34.9623 27.4819 39.3052 30.1098 44.4499C32.27 48.7037 31.2678 47.9465 31.8246 51.8885C32.2477 54.9397 34.8756 58.5922 36.0337 58.0577C36.4568 57.8572 36.8354 57.1 36.9913 56.1646V51.3095C36.9913 46.2761 42.314 46.3652 42.314 51.3095V56.0978C42.3585 56.6991 42.8262 58.6813 44.0733 57.924C45.4096 57.1223 47.1244 54.4497 47.4807 51.8885C48.0375 47.9465 47.0353 48.7037 49.1955 44.4499C52.9815 37.0336 47.5475 32.5347 39.8642 36.3654C39.7306 36.4322 39.5747 36.4322 39.4634 36.3654C37.5926 35.43 35.7665 34.9623 34.1853 34.9623Z" fill="#9B4522"/>
<path fill-rule="evenodd" clip-rule="evenodd" d="M31.401 41.6232C31.156 41.6232 30.9556 41.4228 30.9556 41.1778C30.9556 38.9061 32.804 37.0576 35.0979 37.0576C35.6769 37.0576 35.6769 37.9485 35.0979 37.9485C33.294 37.9485 31.8464 39.3961 31.8464 41.1778C31.8464 41.4228 31.646 41.6232 31.401 41.6232ZM47.9034 41.6232C47.6584 41.6232 47.458 41.4228 47.458 41.1778C47.458 39.3961 45.9881 37.9485 44.2065 37.9485C43.6275 37.9485 43.6275 37.0576 44.2065 37.0576C46.4781 37.0576 48.3488 38.9061 48.3488 41.1778C48.3488 41.4228 48.1484 41.6232 47.9034 41.6232ZM39.641 39.1511C35.8328 39.1511 34.8752 34.8528 35.5433 34.3182C36.0332 33.9174 38.9061 35.12 39.641 35.4764C40.376 35.12 43.2711 33.9174 43.7611 34.3182C44.4292 34.8528 43.4493 39.1511 39.641 39.1511ZM36.2782 35.2091C36.4341 36.924 37.8817 38.2603 39.641 38.2603C41.4004 38.2603 42.848 36.924 43.0262 35.2091C42.0017 35.4318 40.9327 35.8327 39.8415 36.3672C39.7301 36.434 39.5742 36.434 39.4406 36.3672C38.3716 35.8327 37.3026 35.4318 36.2782 35.2091ZM43.5161 25.6547H35.7883C35.3651 25.6547 35.0311 25.3429 34.9197 24.8752L34.2961 21.9577C34.1848 21.4454 34.6525 21 35.1424 21H44.1397C44.6519 21 45.1196 21.4677 45.0082 21.9577L44.3624 24.8752C44.2733 25.3429 43.9392 25.6547 43.5161 25.6547ZM35.8328 24.7639H43.4716L44.1174 21.8909H35.187L35.8328 24.7639Z" fill="#9B4522"/>
<path fill-rule="evenodd" clip-rule="evenodd" d="M42.2689 29.2199H37.0131C36.3227 29.2199 35.7437 28.6408 35.7437 27.9282V25.2111C35.7437 24.9438 35.9441 24.7656 36.1891 24.7656H43.1152C43.3601 24.7656 43.5606 24.9438 43.5606 25.2111V27.9282C43.5606 28.6408 42.9815 29.2199 42.2689 29.2199ZM36.6345 25.6565V27.9282C36.6345 28.1509 36.8126 28.329 37.0131 28.329H42.2689C42.4916 28.329 42.6698 28.1509 42.6698 27.9282V25.6565H36.6345Z" fill="#9B4522"/>
<path fill-rule="evenodd" clip-rule="evenodd" d="M40.4217 33.0249H38.9073C38.1724 33.0249 37.5488 32.4235 37.5488 31.6663V28.771C37.5488 28.5261 37.7493 28.3256 37.9942 28.3256H41.3348C41.5798 28.3256 41.7802 28.5261 41.7802 28.771V31.6663C41.7802 32.4235 41.1789 33.0249 40.4217 33.0249ZM38.4396 29.2165V31.6663C38.4396 31.9336 38.6624 32.134 38.9073 32.134H40.4217C40.689 32.134 40.8894 31.9336 40.8894 31.6663V29.2165H38.4396ZM44.2522 23.76H39.6423C39.0632 23.76 39.0632 22.8691 39.6423 22.8691H44.2522C44.8313 22.8691 44.8313 23.76 44.2522 23.76Z" fill="#9B4522"/>
<path fill-rule="evenodd" clip-rule="evenodd" d="M39.664 37.6379C39.419 37.6379 39.2186 37.4374 39.2186 37.1924V32.5823C39.2186 32.0032 40.1094 32.0032 40.1094 32.5823V37.1924C40.1094 37.4374 39.909 37.6379 39.664 37.6379ZM42.4256 34.0299C42.0247 34.0299 41.8465 33.5399 42.1138 33.2504L43.5613 31.8028C43.9622 31.4019 44.6081 32.0255 44.1849 32.4487C43.7618 32.8718 42.7819 34.0299 42.4256 34.0299ZM36.9025 34.0299C36.5684 34.0299 35.5885 32.8941 35.1431 32.4487C34.7422 32.0255 35.3658 31.4019 35.789 31.8028L37.2365 33.2504C37.5038 33.5399 37.3033 34.0299 36.9025 34.0299Z" fill="#9B4522"/>
</svg>
