<svg width="80" height="80" viewBox="0 0 80 80" fill="none" xmlns="http://www.w3.org/2000/svg">
<circle cx="40" cy="40" r="40" fill="#EDF8FF"/>
<path d="M32.8814 22.8634C32.7365 22.8662 32.5986 22.9261 32.4977 23.0301C32.3968 23.1341 32.3411 23.2738 32.3427 23.4187V26.9635C32.3427 28.0636 33.2419 28.9669 34.342 28.9669H34.7046V30.6305C34.7046 31.7286 35.6078 32.6319 36.708 32.6319H37.547V34.8197C36.8986 34.6332 36.2646 34.1878 35.7114 33.5414C34.5285 32.1326 33.0741 31.511 31.6176 31.4986C29.1915 31.4779 26.7614 33.1436 25.5804 35.665C24.4555 38.207 24.441 41.7436 25.9451 45.9368C27.4658 50.1798 28.2779 52.8069 29.0838 54.4601C29.7716 55.9042 30.8593 56.8489 32.3572 56.8613C33.5506 56.8613 34.4269 56.2315 34.9532 55.4049C35.5395 54.3897 35.8088 53.3082 36.0968 52.2247C36.2832 51.5451 35.2308 51.1474 35.005 51.9761C34.7605 52.9622 34.5367 53.9443 34.0271 54.8165C33.6355 55.4318 33.2067 55.7654 32.3593 55.7654C31.1162 55.755 30.4968 54.8496 30.07 53.9816C29.3386 52.4816 28.5037 49.8276 26.9768 45.5681C25.539 41.5612 25.6094 38.3065 26.5832 36.1104C28.021 33.0317 32.3054 31.3204 34.8848 34.2624C35.092 34.4985 35.4566 34.8798 35.6886 35.1222C34.6445 34.9896 34.0374 34.7948 33.7142 34.7078C32.9788 34.4385 32.7301 35.5572 33.2978 35.723C34.8641 36.2989 38.4586 36.8624 40.1119 35.493C40.7832 34.9502 40.9489 34.6767 41.3094 34.2624C41.6921 33.7447 42.1991 33.3319 42.7835 33.0622C43.368 32.7924 44.0111 32.6743 44.6532 32.7189C46.6939 32.8287 48.7802 34.3266 49.611 36.1104C50.5847 38.3065 50.6552 41.5592 49.2174 45.5681C47.6884 49.8276 46.8555 52.4816 46.1242 53.9795C45.6353 55.061 44.8708 55.7571 43.8349 55.7654C41.3695 55.7654 41.2721 51.4105 40.3647 49.5645C39.134 47.4596 36.7059 47.6896 35.8275 49.5645C35.554 50.3269 36.5774 50.5693 36.8488 49.981C37.4352 48.8415 38.9144 49.0404 39.3971 50.0763C40.4537 52.2371 40.2611 56.8613 43.8349 56.8613C45.6187 56.8613 46.4868 55.726 47.1083 54.4601C47.9163 52.8069 48.7284 50.1798 50.2491 45.9368C51.7553 41.7436 51.7387 38.207 50.6117 35.665C48.7554 31.7845 43.3294 29.8578 40.4807 33.5414C39.9317 34.3328 39.2977 34.7534 38.643 34.8777V32.6339H39.4862C40.0167 32.6323 40.525 32.421 40.9003 32.0461C41.2756 31.6712 41.4874 31.1631 41.4896 30.6326V28.969H41.8522C42.3823 28.9662 42.8899 28.7542 43.2643 28.3789C43.6388 28.0037 43.8498 27.4957 43.8515 26.9656V23.9656H53.5474C53.8043 23.9656 53.9928 24.1562 53.9928 24.4111V25.5091C53.9945 25.5681 53.9842 25.6268 53.9624 25.6816C53.9406 25.7364 53.9079 25.7862 53.8662 25.8279C53.8245 25.8696 53.7747 25.9023 53.7199 25.9241C53.665 25.9459 53.6063 25.9562 53.5474 25.9545H45.3266C44.5849 25.9442 44.5849 27.0609 45.3266 27.0505H53.5474C53.9559 27.0489 54.3472 26.886 54.6363 26.5974C54.9253 26.3087 55.0887 25.9176 55.0909 25.5091V24.4111C55.0887 24.0026 54.9253 23.6115 54.6363 23.3228C54.3472 23.0341 53.9559 22.8713 53.5474 22.8697L35.2888 22.8717C34.543 22.8551 34.543 23.9843 35.2888 23.9698H42.7534V26.9635C42.7556 27.0827 42.7339 27.2012 42.6895 27.3119C42.6451 27.4226 42.5789 27.5233 42.4948 27.6079C42.4108 27.6925 42.3106 27.7594 42.2002 27.8046C42.0898 27.8498 41.9715 27.8723 41.8522 27.8709H34.3441C34.2244 27.8726 34.1057 27.8503 33.9948 27.8053C33.884 27.7602 33.7833 27.6935 33.6987 27.6089C33.6141 27.5243 33.5473 27.4236 33.5023 27.3127C33.4573 27.2019 33.435 27.0831 33.4366 26.9635V23.4207C33.438 23.3473 33.4246 23.2742 33.3973 23.206C33.3699 23.1378 33.3291 23.0757 33.2774 23.0236C33.2256 22.9714 33.1638 22.9302 33.0958 22.9023C33.0278 22.8744 32.9549 22.8605 32.8814 22.8614V22.8634ZM35.8026 28.969H40.3916V30.6326C40.3935 30.752 40.3715 30.8707 40.3267 30.9814C40.2819 31.0921 40.2152 31.1927 40.1308 31.2772C40.0463 31.3616 39.9457 31.4282 39.835 31.4731C39.7243 31.5179 39.6057 31.5399 39.4862 31.538H36.708C36.5885 31.5399 36.4699 31.5179 36.3592 31.4731C36.2485 31.4282 36.1479 31.3616 36.0634 31.2772C35.9789 31.1927 35.9123 31.0921 35.8675 30.9814C35.8227 30.8707 35.8006 30.752 35.8026 30.6326V28.969Z" fill="#9B4522"/>
</svg>
