<svg width="80" height="80" viewBox="0 0 80 80" fill="none" xmlns="http://www.w3.org/2000/svg">
<circle cx="40" cy="40" r="40" fill="#EDF8FF"/>
<path d="M27.8833 28.4053C28.1802 28.4053 28.4209 28.1646 28.4209 27.8677C28.4209 27.5708 28.1802 27.3301 27.8833 27.3301C27.5864 27.3301 27.3457 27.5708 27.3457 27.8677C27.3457 28.1646 27.5864 28.4053 27.8833 28.4053Z" fill="#9B4522"/>
<path d="M52.9204 33.8955C53.2173 33.8955 53.458 33.6548 53.458 33.3579C53.458 33.061 53.2173 32.8203 52.9204 32.8203C52.6235 32.8203 52.3828 33.061 52.3828 33.3579C52.3828 33.6548 52.6235 33.8955 52.9204 33.8955Z" fill="#9B4522"/>
<path d="M32.9409 39.4873C33.2378 39.4873 33.4785 39.2466 33.4785 38.9497C33.4785 38.6528 33.2378 38.4121 32.9409 38.4121C32.644 38.4121 32.4033 38.6528 32.4033 38.9497C32.4033 39.2466 32.644 39.4873 32.9409 39.4873Z" fill="#9B4522"/>
<path d="M38.2861 33.8955C38.5831 33.8955 38.8238 33.6548 38.8238 33.3579C38.8238 33.061 38.5831 32.8203 38.2861 32.8203C37.9892 32.8203 37.7485 33.061 37.7485 33.3579C37.7485 33.6548 37.9892 33.8955 38.2861 33.8955Z" fill="#9B4522"/>
<path d="M59.5655 25.8619H50.8765L47.571 22.5563C47.2122 22.1976 46.7352 22 46.2278 22H39.5664C39.4238 22 39.287 22.0566 39.1862 22.1575C39.0854 22.2583 39.0287 22.395 39.0287 22.5376C39.0287 22.6802 39.0854 22.8169 39.1862 22.9178C39.287 23.0186 39.4238 23.0752 39.5664 23.0752H46.2278C46.448 23.0752 46.655 23.1609 46.8107 23.3166L50.2737 26.7797C50.3237 26.8296 50.3829 26.8692 50.4482 26.8963C50.5134 26.9233 50.5833 26.9372 50.6539 26.9372H59.5546V28.5859H50.0897C49.8695 28.5859 49.6625 28.5001 49.5068 28.3444L46.0438 24.8814C45.9939 24.8315 45.9346 24.7919 45.8694 24.7649C45.8042 24.7379 45.7342 24.724 45.6636 24.724H33.4784V23.0753H37.4159C37.5585 23.0753 37.6952 23.0186 37.7961 22.9178C37.8969 22.817 37.9535 22.6803 37.9535 22.5377C37.9535 22.3951 37.8969 22.2584 37.7961 22.1575C37.6952 22.0567 37.5585 22.0001 37.4159 22.0001H33.4675C32.8807 22.0001 32.4032 22.4775 32.4032 23.0644V24.7349C32.4032 25.3218 32.8807 25.7992 33.4675 25.7992H33.6286V28.4825C33.553 28.4781 33.4774 28.4759 33.4018 28.4757C31.7621 28.4757 30.3207 29.4614 29.7101 30.9362C29.4107 30.8456 29.0996 30.7995 28.7867 30.7994C27.0325 30.7994 25.6053 32.2265 25.6053 33.9808C25.6053 34.3274 25.6622 34.671 25.7722 34.9972C24.7046 35.5249 24 36.6242 24 37.8496C24 39.486 25.2419 40.8372 26.8326 41.0116C26.9278 42.2476 27.215 43.4494 27.6879 44.5876C28.3987 46.2988 28.9387 48.2639 29.461 50.1643L29.5126 50.3524C29.5438 50.4659 29.6114 50.566 29.705 50.6374C29.7986 50.7088 29.913 50.7475 30.0307 50.7477C30.0778 50.7477 30.1259 50.7414 30.1735 50.7282C30.311 50.6904 30.4278 50.5996 30.4983 50.4756C30.5688 50.3517 30.5872 50.2048 30.5494 50.0673L30.4978 49.8794C29.9667 47.947 29.4176 45.9487 28.6809 44.1751C28.2541 43.1478 27.9941 42.0629 27.9061 40.9468C29.3122 40.6179 30.3629 39.3546 30.3629 37.8496C30.3629 37.5031 30.3059 37.1596 30.196 36.8334C30.6425 36.613 31.031 36.2908 31.33 35.8926C31.9548 36.2712 32.6713 36.4715 33.4018 36.4719C33.8208 36.4719 34.2302 36.4078 34.6238 36.2809C35.6413 37.6074 37.2078 38.3873 38.8956 38.3873C40.6794 38.3873 42.3055 37.5324 43.3141 36.0828C43.7892 36.134 44.2697 36.1001 44.7329 35.9827C45.0191 36.3357 45.3773 36.6236 45.7836 36.8272L45.7834 36.8618C45.7834 38.5267 47.069 39.8959 48.6995 40.0313C48.7104 41.4456 48.433 42.8726 47.8918 44.1753C47.1551 45.9488 46.606 47.947 46.0749 49.8794C45.0792 53.5024 44.1388 56.9246 42.3889 56.9246C40.818 56.9246 40.4961 53.5852 40.212 50.6389C40.0978 49.455 39.99 48.3366 39.8058 47.371C39.662 46.6174 39.0513 46.1111 38.2863 46.1111H38.2863C37.5212 46.1111 36.9105 46.6175 36.7667 47.371C36.5821 48.3387 36.475 49.4595 36.3617 50.646C36.0807 53.589 35.7622 56.9247 34.1836 56.9247C32.763 56.9247 31.8843 54.6422 31.1464 52.1756C31.1055 52.039 31.0121 51.9242 30.8866 51.8565C30.7611 51.7888 30.6139 51.7738 30.4773 51.8146C30.3406 51.8555 30.2259 51.949 30.1582 52.0744C30.0905 52.1999 30.0754 52.3472 30.1163 52.4838C30.9147 55.1526 31.9533 57.9999 34.1836 57.9999C35.362 57.9999 36.2131 57.1464 36.7134 55.4632C37.109 54.1319 37.2733 52.4118 37.4321 50.7483C37.5429 49.5874 37.6477 48.491 37.8229 47.5726C37.8913 47.2143 38.1949 47.1864 38.2863 47.1864C38.3777 47.1864 38.6813 47.2143 38.7496 47.5726C38.9246 48.4894 39.0301 49.5837 39.1418 50.7422C39.3023 52.4069 39.4683 54.1283 39.8641 55.4606C40.3647 57.1456 41.2142 58 42.3889 58C43.5916 58 44.5708 57.164 45.3826 55.4441C46.0488 54.0327 46.5651 52.1538 47.1118 50.1645C47.634 48.2641 48.174 46.2991 48.8848 44.5879C49.4916 43.1269 49.7967 41.5244 49.7728 39.9391C51.1369 39.5806 52.1462 38.337 52.1462 36.8619C52.1462 35.6452 51.454 34.5487 50.3866 34.0158C50.3868 34.0042 50.3868 33.9925 50.3868 33.9809C50.3868 32.3357 49.1318 30.9783 47.5288 30.8158C47.1224 29.617 46.1758 28.6854 44.9615 28.2993V25.7991H45.441L48.7465 29.1047C49.1053 29.4634 49.5823 29.661 50.0896 29.661H59.5654C60.1522 29.661 60.6297 29.1835 60.6297 28.5967V26.9262C60.6298 26.3394 60.1523 25.8619 59.5655 25.8619ZM39.8144 29.5256V25.7991H41.4266V29.5256H39.8144ZM37.1269 29.5256V25.7991H38.7392V29.5256H37.1269ZM36.0517 25.7991V29.5256H34.7038V25.7991H36.0517ZM46.5943 31.4579C46.6513 31.7089 46.877 31.8861 47.1356 31.8762L47.1559 31.8756C47.1724 31.875 47.1889 31.8744 47.2054 31.8744C48.3668 31.8744 49.3116 32.8192 49.3116 33.9806C49.3115 34.0821 49.3041 34.1836 49.2895 34.2841C49.2716 34.408 49.2976 34.5343 49.363 34.6411C49.4283 34.748 49.5289 34.8286 49.6474 34.8692C50.0627 35.0115 50.4232 35.2801 50.6784 35.6373C50.9336 35.9946 51.0709 36.4226 51.0709 36.8617C51.0709 38.023 50.1261 38.9679 48.9647 38.9679C47.8033 38.9679 46.8585 38.023 46.8585 36.8617C46.8585 36.7624 46.8659 36.6604 46.8805 36.5587C46.8983 36.4347 46.8722 36.3085 46.8069 36.2017C46.7415 36.0949 46.641 36.0143 46.5225 35.9737C46.0565 35.8133 45.6612 35.4951 45.4049 35.0742C45.3401 34.9677 45.2402 34.887 45.1224 34.8461C45.0046 34.8051 44.8762 34.8064 44.7592 34.8497C44.4345 34.9698 44.091 35.0311 43.7449 35.0306C43.5479 35.0306 43.3508 35.0109 43.1592 34.9719C43.0504 34.9498 42.9374 34.9619 42.8358 35.0066C42.7341 35.0512 42.6488 35.1263 42.5915 35.2214C41.8029 36.5305 40.4213 37.312 38.8955 37.312C37.4268 37.312 36.0726 36.5739 35.273 35.3374C35.2032 35.2294 35.0969 35.15 34.9736 35.1136C34.8502 35.0773 34.7179 35.0863 34.6006 35.1392C34.2239 35.3095 33.8151 35.3973 33.4016 35.3966C32.7128 35.3962 32.0461 35.1527 31.5193 34.7089C31.4565 34.656 31.3824 34.6181 31.3027 34.5982C31.223 34.5783 31.1399 34.577 31.0596 34.5943C30.9793 34.6116 30.904 34.647 30.8396 34.6979C30.7751 34.7489 30.7232 34.8139 30.6878 34.888C30.557 35.1623 30.3682 35.4051 30.1346 35.5995C29.901 35.794 29.628 35.9355 29.3345 36.0144C29.2549 36.0357 29.1814 36.0751 29.1194 36.1294C29.0575 36.1837 29.0088 36.2515 28.9773 36.3276C28.9457 36.4037 28.9321 36.486 28.9374 36.5682C28.9427 36.6504 28.9669 36.7303 29.008 36.8017C29.1912 37.1206 29.2875 37.4819 29.2876 37.8496C29.2876 39.011 28.3427 39.9558 27.1814 39.9558C26.02 39.9558 25.0752 39.011 25.0752 37.8496C25.0752 36.8986 25.716 36.0623 26.6335 35.8158C26.7131 35.7945 26.7866 35.7551 26.8486 35.7008C26.9105 35.6465 26.9591 35.5787 26.9907 35.5026C27.0222 35.4265 27.0359 35.3442 27.0306 35.262C27.0252 35.1798 27.0011 35.0999 26.96 35.0286C26.7768 34.7097 26.6805 34.3483 26.6804 33.9806C26.6804 32.8192 27.6253 31.8744 28.7867 31.8744C29.1351 31.8744 29.4803 31.9612 29.7849 32.1255C29.8572 32.1646 29.9375 32.1865 30.0197 32.1896C30.1018 32.1927 30.1836 32.177 30.2587 32.1436C30.3338 32.1102 30.4002 32.06 30.4529 31.9969C30.5055 31.9338 30.543 31.8595 30.5625 31.7796C30.882 30.4673 32.0496 29.5508 33.4017 29.5508C33.4774 29.5508 33.5531 29.5547 33.6285 29.5605V30.0632C33.6285 30.1338 33.6424 30.2037 33.6694 30.2689C33.6964 30.3342 33.736 30.3934 33.786 30.4433C33.8359 30.4933 33.8951 30.5329 33.9604 30.5599C34.0256 30.5869 34.0955 30.6008 34.1661 30.6008H44.4238C44.4944 30.6008 44.5643 30.5869 44.6296 30.5599C44.6948 30.5329 44.7541 30.4933 44.804 30.4433C44.8539 30.3934 44.8935 30.3342 44.9205 30.2689C44.9475 30.2037 44.9614 30.1338 44.9614 30.0632V29.4522C45.7744 29.8283 46.3933 30.5724 46.5943 31.4579ZM43.8863 29.5256H42.5018V25.7991H43.8863V29.5256Z" fill="#9B4522"/>
</svg>
