<svg width="80" height="80" viewBox="0 0 80 80" fill="none" xmlns="http://www.w3.org/2000/svg">
<circle cx="40" cy="40" r="40" fill="#EDF8FF"/>
<path d="M28.2425 40.9032C28.2273 40.8231 28.1965 40.7468 28.1518 40.6787C28.1071 40.6105 28.0494 40.5519 27.982 40.506C27.8459 40.4134 27.6787 40.3786 27.517 40.4093C27.3553 40.4401 27.2124 40.5338 27.1198 40.6698C27.0272 40.8059 26.9924 40.9732 27.0231 41.1349C27.0538 41.2966 27.1475 41.4394 27.2836 41.532C27.4197 41.6247 27.5869 41.6594 27.7486 41.6287C27.9103 41.598 28.0532 41.5043 28.1458 41.3682C28.2384 41.2322 28.2732 41.0649 28.2425 40.9032ZM42.619 51.7372L42.3751 50.7495C42.2613 50.2824 41.9939 49.8669 41.6158 49.5699C41.2377 49.2728 40.7708 49.1114 40.29 49.1114C39.8091 49.1114 39.3422 49.2728 38.9641 49.5699C38.586 49.8669 38.3186 50.2824 38.2048 50.7495L37.1013 55.2673C36.9957 55.6968 36.7473 56.0777 36.3968 56.3475C36.0463 56.6173 35.6145 56.76 35.1723 56.7523C34.73 56.7445 34.3036 56.5866 33.9628 56.3046C33.622 56.0226 33.3872 55.6332 33.2968 55.2002C32.9371 53.4687 32.4189 50.9324 32.0043 48.9083C31.2483 45.3112 29.7423 44.1955 29.0412 42.9639C28.9603 42.8232 28.8269 42.7204 28.6703 42.6781C28.5136 42.6358 28.3466 42.6575 28.2059 42.7383C28.0652 42.8192 27.9624 42.9526 27.9201 43.1092C27.8778 43.2659 27.8995 43.4329 27.9803 43.5736C28.7546 44.921 30.1142 45.8416 30.8093 49.1583C31.2239 51.1885 31.7543 53.7065 32.1018 55.4441C32.2508 56.1471 32.6342 56.7787 33.1892 57.2352C33.7442 57.6918 34.4379 57.9463 35.1565 57.9569C35.8751 57.9675 36.5759 57.7337 37.1442 57.2937C37.7125 56.8538 38.1144 56.2338 38.2841 55.5355L39.3876 51.0178C39.4355 50.817 39.5517 50.6391 39.7163 50.5145C39.8809 50.39 40.0837 50.3265 40.29 50.3349C41.1801 50.3349 41.2228 51.1641 41.4362 52.0299C41.4799 52.1813 41.5806 52.3099 41.7171 52.3886C41.8536 52.4674 42.0154 52.4903 42.1684 52.4524C42.3214 52.4146 42.4537 52.319 42.5378 52.1856C42.6218 52.0523 42.6509 51.8916 42.619 51.7372Z" fill="#9B4522"/>
<path d="M53.4967 37.6407C54.0801 37.1899 54.7957 36.9435 55.5331 36.9396C55.6948 36.9396 55.8498 36.8753 55.9642 36.761C56.0785 36.6467 56.1427 36.4916 56.1427 36.3299C56.1427 36.1682 56.0785 36.0131 55.9642 35.8988C55.8498 35.7845 55.6948 35.7202 55.5331 35.7202C55.0925 35.721 54.6561 35.6348 54.2489 35.4666C53.8417 35.2984 53.4717 35.0514 53.1601 34.7399C52.8486 34.4283 52.6016 34.0584 52.4334 33.6512C52.2651 33.244 52.179 32.8076 52.1798 32.367C52.1798 32.2053 52.1155 32.0502 52.0012 31.9359C51.8868 31.8215 51.7318 31.7573 51.5701 31.7573C51.4084 31.7573 51.2533 31.8215 51.139 31.9359C51.0246 32.0502 50.9604 32.2053 50.9604 32.367C50.9598 32.6506 50.925 32.9331 50.8567 33.2083C49.5469 32.0468 47.8996 31.3353 46.156 31.1781C42.4979 30.8611 41.7114 32.9279 37.8581 31.5988C36.6938 31.2032 35.4563 31.0709 34.2347 31.2115C33.0131 31.3521 31.8379 31.762 30.7939 32.4118C29.7499 33.0615 28.8631 33.9348 28.1975 34.9687C27.5318 36.0026 27.104 37.1713 26.9447 38.3906C26.9245 38.5523 26.9693 38.7154 27.0694 38.844C27.1694 38.9727 27.3165 39.0563 27.4782 39.0765C27.6399 39.0967 27.803 39.0519 27.9316 38.9518C28.0602 38.8518 28.1439 38.7047 28.1641 38.543C28.2996 37.5034 28.6642 36.5069 29.2316 35.6252C29.799 34.7436 30.555 33.9989 31.445 33.4448C32.335 32.8907 33.337 32.5411 34.3785 32.4211C35.42 32.3012 36.4752 32.4139 37.4679 32.7511C39.3043 33.388 41.3017 33.388 43.1381 32.7511C44.367 32.3294 45.6888 32.2566 46.9566 32.5408C48.2245 32.8249 49.3887 33.4548 50.3202 34.3606C50.0077 34.7857 49.5989 35.1306 49.1273 35.3669C48.6556 35.6032 48.1346 35.7243 47.6071 35.7202C47.4454 35.7202 47.2903 35.7845 47.176 35.8988C47.0616 36.0131 46.9974 36.1682 46.9974 36.3299C46.9974 36.4916 47.0616 36.6467 47.176 36.761C47.2903 36.8753 47.4454 36.9396 47.6071 36.9396C48.4959 36.9412 49.3479 37.295 49.9764 37.9235C50.605 38.552 50.9588 39.404 50.9604 40.2928C50.9604 40.4545 51.0246 40.6096 51.139 40.7239C51.2533 40.8383 51.4084 40.9025 51.5701 40.9025C51.7318 40.9025 51.8868 40.8383 52.0012 40.7239C52.1155 40.6096 52.1798 40.4545 52.1798 40.2928C52.1815 39.8444 52.2727 39.4008 52.448 38.9881C52.595 40.7847 52.03 42.567 50.875 43.9509C49.7122 45.4024 48.923 47.1169 48.5765 48.9442C47.1864 55.7604 47.3083 55.7787 46.6072 56.3457C46.3519 56.5537 46.0482 56.6938 45.7242 56.7528C45.4002 56.8118 45.0666 56.7879 44.7544 56.6832C44.4422 56.5785 44.1615 56.3965 43.9386 56.1541C43.7157 55.9118 43.5577 55.6169 43.4795 55.2971L43.1868 54.0777C43.1431 53.9263 43.0424 53.7977 42.9059 53.7189C42.7694 53.6401 42.6077 53.6172 42.4547 53.6551C42.3017 53.693 42.1693 53.7886 42.0853 53.9219C42.0012 54.0553 41.9721 54.216 42.004 54.3703L42.2967 55.5897C42.4252 56.1081 42.6823 56.5857 43.0443 56.9784C43.4063 57.3711 43.8615 57.6662 44.3678 57.8363C44.874 58.0065 45.415 58.0463 45.9407 57.952C46.4664 57.8577 46.9599 57.6323 47.3754 57.2968C48.5277 56.364 48.4241 55.7787 49.7715 49.1881C50.0772 47.5577 50.7786 46.0273 51.8139 44.7313C52.622 43.7591 53.1944 42.6132 53.4863 41.3832C53.7782 40.1532 53.7817 38.8723 53.4967 37.6407ZM51.5701 38.0126C51.1668 37.3136 50.5864 36.7332 49.8873 36.3299C50.2307 36.1219 50.5515 35.8788 50.8445 35.6044C52.0639 34.385 51.0396 34.3362 52.3017 35.6044C53.5638 36.8725 53.5211 35.8117 52.3017 37.0615C52.0153 37.3434 51.7691 37.6635 51.5701 38.0126Z" fill="#9B4522"/>
<path d="M40.2907 36.4616C42.3788 36.4227 44.4241 35.8631 46.2413 34.8338C46.3517 34.7411 46.4257 34.6123 46.4501 34.4702C46.4746 34.3281 46.4479 34.1819 46.3748 34.0577C46.3017 33.9334 46.1869 33.8391 46.0509 33.7914C45.9148 33.7437 45.7663 33.7458 45.6316 33.7973C43.9941 34.7033 42.1616 35.1991 40.2907 35.2423C38.4281 35.1952 36.6044 34.6995 34.9742 33.7973C34.8395 33.7458 34.691 33.7437 34.5549 33.7914C34.4189 33.8391 34.3041 33.9334 34.231 34.0577C34.1579 34.1819 34.1312 34.3281 34.1556 34.4702C34.1801 34.6123 34.2541 34.7411 34.3645 34.8338C36.1744 35.8592 38.2109 36.4186 40.2907 36.4616ZM24.4388 39.6807H22.6097C22.448 39.6807 22.2929 39.745 22.1786 39.8593C22.0642 39.9736 22 40.1287 22 40.2904C22 40.4521 22.0642 40.6072 22.1786 40.7215C22.2929 40.8359 22.448 40.9001 22.6097 40.9001H24.4388C24.6005 40.9001 24.7555 40.8359 24.8699 40.7215C24.9842 40.6072 25.0485 40.4521 25.0485 40.2904C25.0485 40.1287 24.9842 39.9736 24.8699 39.8593C24.7555 39.745 24.6005 39.6807 24.4388 39.6807ZM57.9717 39.6807H56.1426C55.9809 39.6807 55.8259 39.745 55.7115 39.8593C55.5972 39.9736 55.533 40.1287 55.533 40.2904C55.533 40.4521 55.5972 40.6072 55.7115 40.7215C55.8259 40.8359 55.9809 40.9001 56.1426 40.9001H57.9717C58.1334 40.9001 58.2885 40.8359 58.4028 40.7215C58.5172 40.6072 58.5814 40.4521 58.5814 40.2904C58.5814 40.1287 58.5172 39.9736 58.4028 39.8593C58.2885 39.745 58.1334 39.6807 57.9717 39.6807ZM40.9004 24.4387V22.6097C40.9004 22.448 40.8362 22.2929 40.7218 22.1786C40.6075 22.0642 40.4524 22 40.2907 22C40.129 22 39.9739 22.0642 39.8596 22.1786C39.7452 22.2929 39.681 22.448 39.681 22.6097V24.4387C39.681 24.6004 39.7452 24.7555 39.8596 24.8698C39.9739 24.9842 40.129 25.0484 40.2907 25.0484C40.4524 25.0484 40.6075 24.9842 40.7218 24.8698C40.8362 24.7555 40.9004 24.6004 40.9004 24.4387ZM26.2678 47.6858L24.6887 48.6004C24.5481 48.6812 24.4453 48.8146 24.4029 48.9713C24.3606 49.1279 24.3823 49.2949 24.4631 49.4356C24.544 49.5763 24.6774 49.6791 24.8341 49.7214C24.9907 49.7637 25.1577 49.742 25.2984 49.6612L26.8775 48.7467C27.0182 48.6658 27.121 48.5324 27.1633 48.3758C27.2056 48.2191 27.184 48.0521 27.1031 47.9114C27.0223 47.7707 26.8888 47.6679 26.7322 47.6256C26.5755 47.5833 26.4085 47.605 26.2678 47.6858ZM54.0209 32.9742C54.2404 32.9742 54.1672 32.9742 55.9049 31.9805C56.0455 31.8996 56.1483 31.7662 56.1906 31.6096C56.233 31.4529 56.2113 31.2859 56.1304 31.1452C56.0904 31.0756 56.0371 31.0145 55.9734 30.9654C55.9098 30.9164 55.8371 30.8804 55.7595 30.8594C55.6029 30.8171 55.4359 30.8388 55.2952 30.9196L53.7039 31.8341C53.5854 31.9012 53.4928 32.0059 53.4407 32.1317C53.3887 32.2574 53.3802 32.397 53.4167 32.5281C53.4531 32.6593 53.5324 32.7744 53.6419 32.8553C53.7515 32.9361 53.8849 32.978 54.0209 32.9742ZM31.8343 26.8774C31.9152 27.0181 32.0486 27.1209 32.2052 27.1632C32.3619 27.2055 32.5289 27.1839 32.6696 27.103C32.8103 27.0222 32.9131 26.8888 32.9554 26.7321C32.9977 26.5755 32.976 26.4084 32.8952 26.2678L31.9806 24.6887C31.9406 24.619 31.8872 24.5579 31.8236 24.5089C31.7599 24.4599 31.6873 24.4239 31.6097 24.4029C31.4531 24.3606 31.286 24.3823 31.1454 24.4631C31.0047 24.544 30.9019 24.6774 30.8596 24.834C30.8173 24.9907 30.8389 25.1577 30.9198 25.2984L31.8343 26.8774ZM48.7471 26.8774L49.6616 25.2984C49.7017 25.2287 49.7276 25.1519 49.7379 25.0722C49.7483 24.9925 49.7428 24.9116 49.7218 24.834C49.7009 24.7565 49.6649 24.6838 49.6158 24.6201C49.5668 24.5565 49.5057 24.5031 49.4361 24.4631C49.3664 24.4231 49.2895 24.3972 49.2099 24.3868C49.1302 24.3765 49.0493 24.382 48.9717 24.4029C48.8941 24.4239 48.8215 24.4599 48.7578 24.5089C48.6942 24.5579 48.6408 24.619 48.6008 24.6887L47.6862 26.2678C47.6054 26.4084 47.5837 26.5755 47.626 26.7321C47.6684 26.8888 47.7711 27.0222 47.9118 27.103C48.0525 27.1839 48.2195 27.2055 48.3762 27.1632C48.5328 27.1209 48.6663 27.0181 48.7471 26.8774ZM24.6765 31.9805C26.4142 32.9742 26.3471 32.9742 26.5605 32.9742C26.6955 32.9752 26.827 32.9313 26.9343 32.8495C27.0417 32.7676 27.1189 32.6525 27.1537 32.5221C27.1886 32.3916 27.1792 32.2533 27.127 32.1289C27.0748 32.0044 26.9828 31.9007 26.8653 31.8341L25.2862 30.9196C25.1456 30.8388 24.9785 30.8171 24.8219 30.8594C24.6652 30.9017 24.5318 31.0045 24.451 31.1452C24.3701 31.2859 24.3485 31.4529 24.3908 31.6096C24.4331 31.7662 24.5359 31.8996 24.6765 31.9805ZM55.9049 48.6004L54.3136 47.6858C54.1729 47.605 54.0059 47.5833 53.8492 47.6256C53.6926 47.6679 53.5591 47.7707 53.4783 47.9114C53.3974 48.0521 53.3758 48.2191 53.4181 48.3758C53.4604 48.5324 53.5632 48.6658 53.7039 48.7467L55.283 49.6612C55.4237 49.7437 55.5913 49.7669 55.7491 49.7257C55.9069 49.6845 56.0419 49.5824 56.1244 49.4417C56.2068 49.301 56.23 49.1334 56.1889 48.9756C56.1477 48.8178 56.0455 48.6828 55.9049 48.6004Z" fill="#9B4522"/>
</svg>
