<svg width="80" height="80" viewBox="0 0 80 80" fill="none" xmlns="http://www.w3.org/2000/svg">
<circle cx="40" cy="40" r="40" fill="#EDF8FF"/>
<path d="M22.5276 44.4866C22.5938 44.4866 22.6611 44.474 22.7262 44.4475C24.8009 43.6028 28.2202 43.3214 30.5452 44.2471C30.5856 45.068 30.7216 47.2581 31.101 49.5056C31.7779 53.516 32.8524 55.54 34.3857 55.6933C35.5594 55.811 36.628 54.9323 37.5603 53.0817C37.5923 53.0198 37.6118 52.9521 37.6175 52.8826C37.6232 52.8131 37.615 52.7432 37.5935 52.6769C37.572 52.6105 37.5376 52.5491 37.4922 52.4962C37.4469 52.4433 37.3914 52.3999 37.3292 52.3685C37.2669 52.3371 37.199 52.3184 37.1295 52.3134C37.0599 52.3084 36.9901 52.3173 36.924 52.3395C36.8579 52.3617 36.7969 52.3968 36.7444 52.4427C36.692 52.4887 36.6492 52.5445 36.6184 52.6071C36.1262 53.5842 35.3577 54.7304 34.4907 54.6437C33.8938 54.584 33.4205 53.7582 33.1285 53.0759C32.7399 52.1679 32.4082 50.9106 32.1425 49.339C31.6833 46.6235 31.5856 43.9015 31.5847 43.8744C31.5802 43.8438 31.5846 43.812 31.5535 43.7127L30.0973 39.695C29.8805 39.0976 29.7697 38.467 29.7698 37.8316C29.7698 36.3838 30.3301 35.0186 31.3475 33.9875C31.6391 33.692 31.9634 33.4307 32.3141 33.2085C32.4789 33.1041 32.6767 33.0898 32.8568 33.169C33.0357 33.2478 33.1595 33.4009 33.1986 33.5907L33.5573 37.0078C33.6568 37.974 34.1115 38.8689 34.8332 39.519C35.555 40.169 36.4924 40.5278 37.4637 40.5259H42.3805C43.3518 40.5278 44.2892 40.1689 45.0109 39.5189C45.7327 38.8689 46.1874 37.9741 46.2869 37.0079L46.6456 33.5907C46.6847 33.4009 46.8085 33.2479 46.9873 33.1691C47.1675 33.0898 47.3653 33.1042 47.5302 33.2085C47.8808 33.4308 48.2051 33.6921 48.4967 33.9876C49.9712 35.4812 50.4619 37.7214 49.747 39.6948L48.2908 43.7128C48.2846 43.7398 48.2677 43.7668 48.2595 43.8744C48.2586 43.9016 48.1609 46.6236 47.7017 49.339C47.4359 50.9107 47.1041 52.1679 46.7156 53.076C46.4237 53.7583 45.9503 54.5841 45.3534 54.6438C44.0231 54.7781 42.5176 51.9328 41.5175 47.3965C41.37 46.6367 40.73 46.1268 39.922 46.1268C39.1143 46.1268 38.4743 46.6366 38.3267 47.3964C38.1651 48.1291 37.8934 49.2403 37.5144 50.3857C37.4726 50.5179 37.4846 50.6612 37.5477 50.7847C37.6108 50.9081 37.72 51.0018 37.8516 51.0453C37.9832 51.0889 38.1267 51.0789 38.251 51.0174C38.3753 50.956 38.4704 50.8481 38.5157 50.7171C38.9101 49.5255 39.1915 48.3731 39.3583 47.6163C39.3594 47.6111 39.3605 47.6059 39.3614 47.6007C39.4367 47.2017 39.8417 47.1816 39.9221 47.1816C40.0025 47.1816 40.4074 47.2017 40.4828 47.6007L40.486 47.6163C40.7217 48.6862 41.2312 50.7396 41.9963 52.4714C42.9444 54.6179 44.0386 55.7039 45.2515 55.7037C46.9918 55.6686 48.0404 53.5771 48.7432 49.5056C49.123 47.2555 49.2589 45.0628 49.2991 44.2443C51.6386 43.2913 54.9889 43.6197 57.0495 44.4484C57.112 44.4737 57.1787 44.4867 57.2461 44.4867C57.3687 44.4868 57.4874 44.4442 57.582 44.3663C57.6765 44.2884 57.741 44.1799 57.7643 44.0596C57.7876 43.9393 57.7683 43.8146 57.7097 43.707C57.6511 43.5994 57.5568 43.5155 57.4431 43.4699C55.3505 42.6281 52.1956 42.2687 49.6705 43.0011L50.7386 40.0542C51.5913 37.7004 51.006 35.0282 49.2472 33.2466C48.8994 32.8942 48.5126 32.5825 48.0944 32.3175C47.868 32.1741 47.6098 32.0888 47.3427 32.0689C47.0755 32.0491 46.8075 32.0954 46.5625 32.2038C46.3478 32.298 46.1557 32.4371 45.9991 32.6117C45.8426 32.7863 45.7252 32.9924 45.6548 33.2161L41.6932 36.465C40.6477 37.3225 39.1334 37.3182 38.0927 36.4549L34.19 33.2178C34.1198 32.9938 34.0024 32.7873 33.8458 32.6124C33.6891 32.4375 33.4968 32.2982 33.2818 32.2038C33.0368 32.0955 32.7688 32.0492 32.5016 32.069C32.2345 32.0889 31.9763 32.1742 31.7499 32.3175C31.3316 32.5826 30.9448 32.8943 30.597 33.2467C29.3835 34.4766 28.7152 36.1049 28.7152 37.8317C28.715 38.5897 28.8472 39.3418 29.1057 40.0543L30.1768 43.0094C27.6039 42.2751 24.3636 42.6424 22.3287 43.4708C22.2155 43.5169 22.1218 43.601 22.0637 43.7085C22.0055 43.8161 21.9866 43.9406 22.0101 44.0606C22.0336 44.1806 22.098 44.2887 22.1924 44.3664C22.2868 44.4441 22.4053 44.4866 22.5276 44.4866ZM39.899 38.1594C40.7731 38.1594 41.6473 37.8665 42.362 37.2805L45.4649 34.7358L45.238 36.8977C45.1652 37.6045 44.8326 38.259 44.3046 38.7345C43.7767 39.21 43.091 39.4725 42.3805 39.4711H37.4637C36.7532 39.4725 36.0675 39.21 35.5396 38.7345C35.0116 38.2591 34.679 37.6045 34.6062 36.8977L34.3804 34.746L37.4193 37.2667C38.1366 37.8617 39.0177 38.1594 39.899 38.1594ZM57.2463 56.9455H22.5274C22.3875 56.9455 22.2534 57.0011 22.1545 57.1C22.0556 57.1989 22 57.333 22 57.4729C22 57.6128 22.0556 57.7469 22.1545 57.8458C22.2534 57.9447 22.3875 58.0003 22.5274 58.0003H57.2463C57.3862 58.0003 57.5203 57.9447 57.6192 57.8458C57.7181 57.7469 57.7737 57.6128 57.7737 57.4729C57.7737 57.333 57.7181 57.1989 57.6192 57.1C57.5203 57.0011 57.3862 56.9455 57.2463 56.9455Z" fill="#9B4522"/>
<path d="M33.3231 24.991C33.692 27.0519 35.4791 28.5477 37.5724 28.5477H38.3747V30.3959C38.2615 30.3696 38.1455 30.3563 38.0293 30.3564C37.8307 30.3559 37.6339 30.3947 37.4504 30.4707C37.267 30.5468 37.1004 30.6584 36.9603 30.7992C36.6748 31.0848 36.5175 31.4644 36.5175 31.8683C36.5175 32.2722 36.6748 32.6519 36.9603 32.9374L38.8175 34.7947C39.103 35.0803 39.4827 35.2375 39.8865 35.2375C40.2903 35.2375 40.6699 35.0803 40.9555 34.7947L42.8127 32.9374C43.0983 32.6518 43.2555 32.2722 43.2555 31.8683C43.2555 31.4645 43.0983 31.0847 42.8128 30.7992C42.6727 30.6584 42.5061 30.5468 42.3226 30.4708C42.1391 30.3947 41.9424 30.3559 41.7438 30.3564C41.626 30.3564 41.5103 30.3698 41.3983 30.3959V27.0215C41.3983 26.1879 40.7201 25.5097 39.8866 25.5097C39.053 25.5097 38.3748 26.1879 38.3748 27.0215V27.4929H37.5725C35.9906 27.4929 34.6402 26.3626 34.3614 24.8052L34.1203 23.4572C34.1138 23.4214 34.1145 23.3846 34.1224 23.3491C34.1303 23.3135 34.1452 23.2799 34.1662 23.2502C34.1871 23.2206 34.2136 23.1953 34.2443 23.1761C34.275 23.1568 34.3092 23.1438 34.345 23.1379C34.3579 23.1358 34.3707 23.1332 34.3834 23.13C35.4469 22.871 36.9784 23.3188 38.2945 23.7454C37.6447 23.9559 36.8807 24.1635 36.2466 24.2231C36.1117 24.2358 35.9869 24.2999 35.898 24.4023C35.8091 24.5046 35.763 24.6372 35.7693 24.7726C35.7755 24.9079 35.8337 25.0357 35.9316 25.1294C36.0296 25.223 36.1598 25.2754 36.2954 25.2756C38.7337 24.9482 39.7148 24.2525 41.2014 23.8595C42.573 23.4093 44.2799 22.849 45.462 23.1305C45.4739 23.1334 45.4859 23.1358 45.4979 23.1378C45.5338 23.1436 45.5681 23.1566 45.599 23.1759C45.6298 23.1953 45.6564 23.2205 45.6773 23.2503C45.6983 23.28 45.7132 23.3135 45.7211 23.349C45.729 23.3845 45.7297 23.4212 45.7232 23.457L45.4821 24.8051C45.2637 26.0252 44.3906 27.0031 43.2037 27.3571C43.1373 27.3769 43.0755 27.4096 43.0217 27.4532C42.968 27.4969 42.9234 27.5508 42.8904 27.6117C42.8239 27.7348 42.809 27.8792 42.849 28.0132C42.889 28.1473 42.9805 28.26 43.1036 28.3265C43.2266 28.393 43.3711 28.4079 43.5051 28.3679C45.076 27.8995 46.2314 26.6054 46.5203 24.9909L46.7615 23.6429C46.793 23.4696 46.7896 23.2918 46.7514 23.12C46.7132 22.9481 46.6409 22.7856 46.539 22.642C46.3386 22.3564 46.0334 22.1618 45.6899 22.1006C44.2203 21.7585 42.3647 22.3676 40.8726 22.8573C40.5361 22.9678 40.2157 23.0729 39.9222 23.1602C39.6391 23.0756 39.3283 22.9737 39.002 22.8668C37.4893 22.3711 35.6085 21.7546 34.1512 22.101C33.8086 22.1625 33.5042 22.3569 33.3044 22.642C33.2024 22.7855 33.1302 22.9481 33.092 23.12C33.0538 23.2919 33.0504 23.4697 33.0819 23.643L33.3231 24.991ZM39.4294 27.0215C39.4294 26.7695 39.6345 26.5645 39.8865 26.5645C40.1385 26.5645 40.3435 26.7695 40.3435 27.0215V31.3489C40.3435 31.4532 40.3744 31.5552 40.4324 31.642C40.4903 31.7287 40.5727 31.7963 40.669 31.8362C40.7654 31.8762 40.8715 31.8866 40.9738 31.8662C41.0761 31.8459 41.17 31.7956 41.2438 31.7218L41.4205 31.5451C41.5069 31.4587 41.6216 31.4112 41.7437 31.4112C41.8658 31.4112 41.9805 31.4587 42.0669 31.5451C42.1533 31.6314 42.2008 31.7461 42.2008 31.8682C42.2008 31.9904 42.1532 32.1051 42.0669 32.1914L40.2097 34.0488C40.1233 34.1351 40.0086 34.1827 39.8865 34.1827C39.7644 34.1827 39.6497 34.1351 39.5633 34.0488L37.706 32.1914C37.6197 32.1051 37.5722 31.9903 37.5722 31.8682C37.5722 31.746 37.6197 31.6313 37.7061 31.545C37.7924 31.4586 37.9072 31.4111 38.0293 31.4111C38.1513 31.4111 38.2661 31.4586 38.3524 31.545L38.5292 31.7218C38.6029 31.7956 38.6969 31.8459 38.7992 31.8663C38.9015 31.8866 39.0076 31.8762 39.104 31.8363C39.2004 31.7964 39.2827 31.7287 39.3407 31.642C39.3986 31.5552 39.4295 31.4532 39.4294 31.3489V27.0215Z" fill="#9B4522"/>
<path d="M53.7753 48.1247C54.0579 48.0577 54.2327 47.7743 54.1657 47.4917C54.0987 47.2091 53.8153 47.0343 53.5327 47.1013C53.2501 47.1683 53.0753 47.4518 53.1423 47.7344C53.2093 48.017 53.4927 48.1918 53.7753 48.1247Z" fill="#9B4522"/>
<path d="M27.1777 54.8064C27.4603 54.7394 27.635 54.4559 27.568 54.1733C27.501 53.8907 27.2176 53.7159 26.935 53.783C26.6524 53.85 26.4777 54.1334 26.5447 54.416C26.6117 54.6986 26.8951 54.8734 27.1777 54.8064Z" fill="#9B4522"/>
<path d="M25.6863 52.6648C25.8917 52.4595 25.8917 52.1265 25.6863 51.9211C25.481 51.7157 25.148 51.7157 24.9426 51.9211C24.7373 52.1265 24.7373 52.4595 24.9426 52.6648C25.148 52.8702 25.481 52.8702 25.6863 52.6648Z" fill="#9B4522"/>
</svg>
