<svg width="500" height="500" viewBox="0 0 500 500" fill="none" xmlns="http://www.w3.org/2000/svg">
<rect width="500" height="500" rx="70" fill="white"/>
<path d="M79.2274 139.877C79.6053 124.051 82.3301 108.85 89.0626 95.6697C96.8448 80.4364 111.518 67.9045 128.879 65.3337C138.103 63.9667 147.602 65.4177 156.402 68.4084C166.979 72.0056 176.272 78.0009 186.047 83.1331C196.465 88.6059 207.033 93.8174 217.857 98.4877C228.434 103.051 239.254 107.026 250.633 109.247C257.179 110.525 263.832 111.286 270.439 112.284C270.621 112.312 270.803 112.354 270.98 112.396C271.199 112.447 271.316 112.676 271.227 112.876C271.181 112.979 271.143 113.072 271.111 113.105C270.854 113.39 270.495 113.581 270.15 113.754C268.19 114.719 265.955 115.2 263.823 115.662C261.56 116.152 259.269 116.502 256.965 116.716C256.605 116.749 256.251 116.777 255.892 116.805C254.17 116.931 252.444 116.982 250.717 116.954C234.192 116.688 217.75 114.775 201.462 112.13C185.576 109.55 169.4 104.763 153.257 104.32C132.723 103.76 123.626 121.368 120.579 138.505C117.556 155.506 118.139 172.909 119.557 190.107C122.767 229.102 130.797 267.608 142.171 305.119C146.674 319.961 151.162 334.844 157.087 349.228C162.565 362.521 169.381 379.769 181.279 388.961C181.685 389.273 182.072 389.619 182.501 389.899C188.296 393.659 191.422 393.584 196.703 387.911C201.49 382.769 203.79 376.21 205.689 369.65C207.528 363.304 209.24 356.894 210.458 350.413C212.487 339.603 215.24 329.045 220.064 319.056C222.35 314.325 225.42 310.14 229.461 306.659C234.266 302.516 239.753 301.965 245.674 303.892C252.406 306.085 257.245 310.755 261.92 315.617C263.114 316.858 264.28 318.127 265.437 319.406C266.016 320.045 266.594 320.684 267.168 321.323C267.574 321.776 268.19 322.275 268.573 322.849C268.778 323.152 268.447 323.521 268.111 323.362C268.111 323.362 268.111 323.362 268.106 323.362C265.428 322.135 262.867 320.511 260.053 319.755C255.826 318.617 252.094 319.909 248.809 322.9C243.294 327.92 239.697 334.126 237.248 340.853C233.87 350.133 230.8 359.549 228.159 369.048C226.003 376.797 224.795 384.785 222.933 392.614C220.601 402.407 218.268 412.233 213.565 421.294C207.905 432.202 198.584 439.42 186.024 432.417C180.621 429.403 176.51 424.662 172.671 419.903C126.868 363.155 103.913 292.214 89.8977 221.497C85.1201 197.385 78.5509 167.665 79.2134 139.867L79.2274 139.877Z" fill="#A4BB6B"/>
<path d="M421.088 124.893C420.85 135.876 419.347 147.41 416.305 158.005C415.591 160.492 414.733 162.941 413.674 165.312C412.675 167.551 411.486 170.537 409.685 172.277C409.2 170.323 409.549 167.864 409.652 165.862C409.769 163.609 409.969 161.36 410.17 159.111C410.576 154.604 411.015 150.074 410.823 145.543C410.408 135.703 406.862 126.918 400.456 119.234C395.758 113.602 390.374 108.741 383.991 104.901C375.966 100.077 367.368 96.7876 358.111 94.9213C350.296 93.3443 342.43 92.2432 334.512 93.1624C327.91 93.9275 321.411 95.5465 314.856 96.7176C310.778 97.4501 306.691 98.1919 302.581 98.6865C296.66 99.4003 290.721 100.128 284.767 100.427C278.03 100.767 271.26 100.926 264.528 100.627C258.714 100.371 252.789 99.9275 247.176 98.5512C237.644 96.2137 228.738 92.3599 222.098 84.8575C221.347 84.0084 220.647 83.1172 219.892 82.2774C219.621 81.9788 219.448 81.6149 219.416 81.2137C219.406 81.0737 219.509 81.083 219.621 81.0784C219.775 81.069 219.887 81.0784 220.041 81.1157C220.213 81.1623 220.386 81.2137 220.559 81.265C220.899 81.3676 221.235 81.4796 221.571 81.5916C222.131 81.7782 222.696 81.9648 223.255 82.1515C223.535 82.2448 223.815 82.3381 224.1 82.4314C224.357 82.5154 224.613 82.576 224.874 82.6507C225.728 82.9026 226.587 83.1452 227.445 83.3785C228.537 83.6725 229.638 83.9431 230.744 84.1997C231.845 84.4516 232.951 84.6896 234.056 84.9042C235.162 85.1188 236.273 85.3194 237.383 85.4967C238.493 85.6787 239.608 85.8373 240.724 85.9866C241.839 86.1313 242.958 86.2619 244.078 86.3739C245.198 86.4858 246.322 86.5838 247.447 86.6631C248.571 86.7424 249.7 86.8124 250.825 86.8638C251.954 86.9151 253.083 86.9524 254.212 86.9757C255.341 86.9991 256.479 87.0084 257.608 87.0037C258.742 87.0037 259.881 86.9851 261.014 86.9571C262.148 86.9291 263.291 86.8871 264.43 86.8358C264.798 86.8171 265.171 86.8031 265.54 86.7844C271.157 86.4952 276.752 85.4874 282.318 84.5636C289.018 83.4485 295.722 82.2681 302.333 80.7424C307.116 79.6414 311.762 77.9804 316.442 76.4874C321.243 74.9571 326.03 73.3754 330.789 71.7238C335.002 70.2634 339.103 68.4718 343.372 67.1841C359.226 62.4158 377.823 65.3598 392.114 73.2261C404.375 79.9726 414.192 91.0582 418.4 104.084C420.57 110.803 421.246 117.839 421.092 124.898L421.088 124.893Z" fill="#A4BB6B"/>
<path d="M270.004 284.579C276.359 284.397 282.457 286.138 288.191 290.901C296.631 297.909 301.903 307.068 307.11 316.329C311.249 323.691 315.779 330.858 322.026 336.778C325.46 340.03 329.053 343.17 334.008 344.201C340.404 345.531 345.774 343.6 350.51 339.484C357.326 333.554 361.889 326.108 365.823 318.242C368.085 313.711 370.222 309.125 372.368 304.543C372.9 303.41 373.236 302.187 373.689 301.012C373.689 301.002 373.693 300.993 373.698 300.988C373.829 300.671 374.342 300.802 374.286 301.138C374.286 301.138 374.286 301.142 374.286 301.147C373.6 304.921 373.162 308.761 372.126 312.447C369.569 321.531 366.793 330.559 363.994 339.573C359.337 354.559 353.267 368.981 344.655 382.264C341.739 386.761 338.333 390.942 333.476 393.942C326.337 398.346 319.997 396.34 315.326 390.615C311.053 385.376 308.431 379.259 306.126 373.007C300.956 358.977 296.067 344.841 290.426 330.988C286.539 321.438 281.239 312.508 273.891 304.898C268.203 299.015 261.266 295.31 253.161 293.617C251.202 293.206 249.214 292.889 247.245 292.515C246.994 292.469 246.746 292.394 246.499 292.319C246.284 292.254 246.214 291.998 246.364 291.834C246.592 291.596 246.816 291.358 247.096 291.232C249.877 290.01 252.634 288.713 255.494 287.682C260.449 285.895 265.297 284.71 270 284.575L270.004 284.579Z" fill="#A4BB6B"/>
<path d="M170.264 192.806C168.971 192.383 167.431 190.785 166.714 189.246C166.173 187.554 166.737 186.603 168.041 186.861C201.262 196.334 226.559 194 245.804 186.111C248.341 182.985 251.03 180.035 253.556 177.073C272.515 154.613 289.053 131.32 297.624 110.767C298.212 109.486 298.764 108.698 299.281 108.404C303.615 105.572 306.743 112.738 303.104 126.698C300.992 135.476 296.518 147.227 288.919 158.757C280.403 171.543 267.94 184.049 250.035 191.703C225.943 218.923 199.359 243.981 180.364 259.99C176.663 263.199 175.066 264.738 175.383 264.926C178.886 269.144 205.864 268.749 236.484 268.282C281.664 267.694 333.963 266.951 339.761 287.7C340.15 289.216 339.269 289.98 337.988 289.393C336.707 288.806 335.167 287.208 334.791 285.528C331.38 273.05 282.065 273.675 239.694 274.297C207.757 274.67 179.451 275.136 172.893 267.395C169.695 263.53 170.164 259.264 175.791 254.539C192.508 240.352 214.992 219.466 236.488 196.195C218.993 200.406 197.174 200.342 170.264 192.806ZM263.743 175.648C272.307 169.148 278.979 161.356 284.159 153.623C289.726 145.091 293.637 136.606 295.984 129.168C287.975 144.14 276.593 160.029 263.743 175.648ZM302.761 115.265C303.665 114.172 304.205 113.549 303.512 113.996C303.336 114.149 303.148 114.466 302.761 115.265Z" fill="#9B4220"/>
</svg>
