<svg width="34" height="32" viewBox="0 0 34 32" fill="none" xmlns="http://www.w3.org/2000/svg">
<path d="M32.765 11.5602L21.8959 10.5522L17.5783 0.526503C17.276 -0.175501 16.2807 -0.175501 15.9784 0.526503L11.6609 10.5522L0.791748 11.5602C0.0306914 11.6308 -0.27689 12.5774 0.29731 13.0818L8.49813 20.2862L6.09817 30.9349C5.93012 31.6805 6.73536 32.2655 7.39253 31.8753L16.7784 26.3021L26.1643 31.8753C26.8214 32.2655 27.6267 31.6805 27.4587 30.9349L25.0587 20.2862L33.2595 13.0818C33.8337 12.5774 33.5261 11.6308 32.765 11.5602Z" fill="#FFDC64"/>
<path d="M17.5783 0.526504C17.2761 -0.175501 16.2807 -0.175501 15.9784 0.526504L11.6609 10.5523L0.79175 11.5603C0.0306915 11.6309 -0.276891 12.5775 0.297311 13.0819L8.49815 20.2862L6.09818 30.935C5.93014 31.6806 6.73537 32.2656 7.39254 31.8754L9.48742 30.6315C9.77737 18.6965 15.3228 10.2917 19.7132 5.48374L17.5783 0.526504Z" fill="#FFC850"/>
</svg>
